<?xml version="1.0" encoding="utf-8"?>
<!-- Generator: Adobe Illustrator 23.0.1, SVG Export Plug-In . SVG Version: 6.00 Build 0)  -->
<svg version="1.1" id="Layer_1" xmlns="http://www.w3.org/2000/svg" xmlns:xlink="http://www.w3.org/1999/xlink" x="0px" y="0px"
	 viewBox="0 0 261.99 188.86" style="enable-background:new 0 0 261.99 188.86;" xml:space="preserve">
<style type="text/css">
	.st0{display:none;}
	.st1{display:inline;}
	.st2{fill:none;stroke:#000000;stroke-linecap:round;stroke-linejoin:round;stroke-miterlimit:10;}
	.st3{stroke:#000000;stroke-linecap:round;stroke-linejoin:round;stroke-miterlimit:10;}
	.st4{display:inline;fill:none;}
	.st5{display:inline;stroke:#000000;stroke-linecap:round;stroke-linejoin:round;stroke-miterlimit:10;}
	.st6{fill:none;}
</style>
<g class="st0">
	<path class="st1" d="M151.93,44.83h-41.86c-22.62,0-22.88-22.66-22.88-22.89V1.02c0-22.61,22.66-22.88,22.88-22.88h41.86
		c22.61,0,22.88,17.47,22.88,17.64v26.15C174.81,44.57,152.16,44.83,151.93,44.83z M110.08-17.95c-0.77,0-18.97,0.29-18.97,18.97
		v20.92c0,0.77,0.29,18.98,18.97,18.98h41.85c0.77,0,18.97-0.29,18.97-18.98V-4.21c0-0.55-0.35-13.74-18.97-13.74L110.08-17.95
		L110.08-17.95z"/>
	<path class="st1" d="M158.89,161.91H103.1c-5.5,0-15.91-3.33-15.91-15.91V69.27c0-5.5,3.33-15.91,15.91-15.91h55.79
		c5.5,0,15.92,3.33,15.92,15.91V146C174.81,151.5,171.48,161.91,158.89,161.91z M103.1,57.27c-11.87,0-12,11.51-12,12V146
		c0,11.86,11.51,12,12,12h55.79c11.87,0,12.01-11.51,12.01-12V69.27c0-11.87-11.52-12-12.01-12H103.1z"/>
	<path class="st1" d="M62.75,154.93c-5.5,0-15.91-3.33-15.91-15.91V69.27c0-12.59,10.41-15.91,15.91-15.91
		c12.58,0,15.9,10.41,15.9,15.91v69.75C78.64,151.6,68.25,154.93,62.75,154.93z M62.75,57.27c-1.22,0.01-12,0.41-12,12v69.75
		c0,11.82,11.43,12,11.99,12c1.23-0.01,12-0.41,12-12V69.27C74.73,68.05,74.33,57.27,62.75,57.27z"/>
	<path class="st1" d="M199.26,154.93c-5.5,0-15.9-3.33-15.9-15.91V69.27c0-12.59,10.4-15.91,15.9-15.91
		c12.58,0,15.9,10.41,15.9,15.91v69.75C215.16,151.6,204.76,154.93,199.26,154.93z M199.26,57.27c-1.22,0.01-11.99,0.41-11.99,12
		v69.75c0,11.57,10.73,11.99,11.99,12c1.25-0.01,11.99-0.43,11.99-12V69.27C211.24,68.05,210.84,57.27,199.26,57.27z"/>
	<path class="st1" d="M131-18.93c-0.54,0-0.98-0.44-0.98-0.98v-26.71c0-0.54,0.44-0.98,0.98-0.98c0.54,0,0.98,0.44,0.98,0.98v26.71
		C131.98-19.36,131.54-18.93,131-18.93z"/>
	<path class="st1" d="M131-45.64c-3.79,0-6.87-3.08-6.87-6.87c0-3.79,3.08-6.87,6.87-6.87c3.78,0,6.86,3.08,6.86,6.87
		C137.86-48.72,134.78-45.64,131-45.64z M131-57.42c-2.71,0-4.91,2.2-4.91,4.91s2.2,4.91,4.91,4.91c2.71,0,4.91-2.2,4.91-4.91
		S133.7-57.42,131-57.42z"/>
	<path class="st1" d="M158.89,177.39c-0.54,0-0.98-0.44-0.98-0.98v-16.46c0-0.54,0.43-0.98,0.98-0.98c0.54,0,0.98,0.44,0.98,0.98
		v16.46C159.87,176.95,159.43,177.39,158.89,177.39z"/>
	<path class="st1" d="M181.98,248.24c-12.02,0-21.43-16.21-21.43-36.89s9.41-36.89,21.43-36.89c12.02,0,21.43,16.21,21.43,36.89
		S194,248.24,181.98,248.24z M181.98,178.37c-9.5,0-17.52,15.1-17.52,32.98s8.03,32.98,17.52,32.98c9.5,0,17.52-15.1,17.52-32.98
		S191.48,178.37,181.98,178.37z"/>
	<ellipse class="st1" cx="181.99" cy="211.35" rx="5.78" ry="10.36"/>
	<path class="st1" d="M98.77,248.24c-12.02,0-21.43-16.21-21.43-36.89s9.42-36.89,21.43-36.89s21.43,16.21,21.43,36.89
		S110.79,248.24,98.77,248.24z M98.77,178.37c-9.5,0-17.52,15.1-17.52,32.98s8.03,32.98,17.52,32.98s17.52-15.1,17.52-32.98
		S108.27,178.37,98.77,178.37z"/>
	<ellipse class="st1" cx="98.78" cy="211.35" rx="5.78" ry="10.36"/>
	<path class="st1" d="M98.89,207.18c-0.54,0-0.98-0.44-0.98-0.98v-46.25c0-0.54,0.44-0.98,0.98-0.98s0.98,0.44,0.98,0.98v46.25
		C99.87,206.74,99.43,207.18,98.89,207.18z"/>
	<g class="st1">
		<path d="M98.77,248.24H79.3c-12.02,0-21.43-16.21-21.43-36.89s9.42-36.89,21.43-36.89h19.48c1.08,0,1.95,0.88,1.95,1.95
			s-0.88,1.95-1.95,1.95c-9.5,0-17.52,15.1-17.52,32.98s8.03,32.98,17.52,32.98c1.08,0,1.95,0.88,1.95,1.95
			S99.85,248.24,98.77,248.24z M79.29,178.37c-9.5,0-17.52,15.1-17.52,32.98s8.03,32.98,17.52,32.98h9.72
			c-6.99-6.01-11.68-18.38-11.68-32.98c0-14.6,4.69-26.97,11.68-32.98H79.29z"/>
		<path d="M98.82,248.24h-0.05c-1.08,0-1.95-0.88-1.95-1.95s0.88-1.95,1.95-1.95s1.98,0.88,1.98,1.95S99.9,248.24,98.82,248.24z"/>
	</g>
	<g class="st1">
		<path d="M181.98,248.24h-19.47c-12.02,0-21.44-16.21-21.44-36.89s9.42-36.89,21.44-36.89h19.47c1.08,0,1.95,0.88,1.95,1.95
			s-0.88,1.95-1.95,1.95c-9.5,0-17.52,15.1-17.52,32.98s8.03,32.98,17.52,32.98c1.08,0,1.95,0.88,1.95,1.95
			S183.06,248.24,181.98,248.24z M162.51,178.37c-9.5,0-17.53,15.1-17.53,32.98s8.03,32.98,17.53,32.98h9.72
			c-6.99-6.01-11.67-18.38-11.67-32.98c0-14.6,4.69-26.97,11.67-32.98H162.51z"/>
		<path d="M182.03,248.24h-0.05c-1.08,0-1.95-0.88-1.95-1.95s0.88-1.95,1.95-1.95s1.98,0.88,1.98,1.95S183.11,248.24,182.03,248.24z
			"/>
	</g>
</g>
<g class="st0">
	<path class="st1" d="M43.94,207.47c0,1.7-0.87,3.08-1.93,3.08l0,0c-1.07,0-1.93-1.38-1.93-3.08V-14.39c0-1.7,0.86-3.08,1.93-3.08
		l0,0c1.06,0,1.93,1.38,1.93,3.08V207.47z"/>
	<path class="st1" d="M63.25-9.97c-1.88,0.33-3.77,0.73-5.66,1.19c-0.69-1.97-1.37-3.94-2.05-5.89c-0.69,2.33-1.38,4.67-2.06,7.01
		c-1.88,0.57-3.77,1.21-5.66,1.93c1.48,0.67,2.97,1.39,4.45,2.16C51.64-1.41,51,0.77,50.38,2.96c1.71-1.66,3.43-3.26,5.16-4.8
		c1.71,0.6,3.43,1.27,5.13,1.99c-0.63-1.84-1.25-3.67-1.88-5.5C60.27-6.94,61.75-8.47,63.25-9.97z"/>
	<path class="st1" d="M124.62-3.9c-1.87-0.45-3.76-0.9-5.64-1.34c-0.69-2.3-1.38-4.6-2.08-6.9c-0.67,1.99-1.37,3.97-2.04,5.96
		c-1.88-0.41-3.78-0.82-5.67-1.2c1.49,1.54,2.97,3.09,4.47,4.65c-0.64,1.83-1.26,3.67-1.89,5.5c1.72-0.71,3.43-1.4,5.14-2.08
		c1.73,1.46,3.45,2.93,5.16,4.41c-0.63-2.12-1.27-4.24-1.9-6.36C121.65-2.14,123.14-3.03,124.62-3.9z"/>
	<path class="st1" d="M62.99,12.3c-1.89,0.33-3.78,0.73-5.66,1.2c-0.69-1.97-1.38-3.93-2.06-5.88c-0.69,2.33-1.38,4.67-2.07,7.02
		c-1.88,0.57-3.76,1.22-5.66,1.95c1.5,0.66,2.99,1.38,4.48,2.14c-0.63,2.17-1.27,4.35-1.9,6.54c1.72-1.67,3.42-3.27,5.15-4.82
		c1.72,0.6,3.44,1.25,5.14,1.97c-0.62-1.84-1.25-3.67-1.88-5.49C60.01,15.34,61.5,13.8,62.99,12.3z"/>
	<path class="st1" d="M124.86,18.38c-1.88-0.46-3.76-0.91-5.65-1.35c-0.68-2.3-1.38-4.6-2.06-6.9c-0.68,1.98-1.37,3.97-2.06,5.95
		c-1.88-0.42-3.79-0.82-5.66-1.21c1.49,1.54,2.98,3.1,4.48,4.66c-0.63,1.83-1.27,3.67-1.9,5.5c1.71-0.71,3.44-1.4,5.14-2.08
		c1.73,1.46,3.44,2.94,5.15,4.42c-0.63-2.12-1.27-4.24-1.9-6.36C121.89,20.14,123.38,19.26,124.86,18.38z"/>
	<path class="st1" d="M185.69,45.57c-18.07,0-36.32-4.51-53.97-8.87l-1.97-0.49c-0.88-0.21-1.49-1-1.49-1.9V12.11
		c0-0.6,0.28-1.17,0.75-1.54c0.47-0.37,1.09-0.5,1.67-0.36l1.96,0.48c17.43,4.31,35.45,8.76,53.04,8.76
		c13.09,0,24.8-2.43,35.82-7.43c0.61-0.28,1.31-0.22,1.87,0.14c0.56,0.36,0.9,0.98,0.9,1.64v22.21c0,0.77-0.45,1.46-1.15,1.78
		C211.59,43.02,199.34,45.57,185.69,45.57z M132.17,32.78l0.49,0.12c17.42,4.3,35.43,8.75,53.03,8.75c12.63,0,23.99-2.27,34.67-6.92
		V16.78c-10.73,4.43-22.1,6.59-34.67,6.59c-17.92,0-36.01-4.43-53.52-8.76L132.17,32.78L132.17,32.78z"/>
	<path class="st1" d="M185.68,110.22c-18.07,0-36.32-4.51-53.97-8.87c-17.42-4.3-35.44-8.75-53.03-8.75
		c-13.08,0-24.8,2.43-35.82,7.43c-0.6,0.28-1.31,0.23-1.87-0.14c-0.56-0.36-0.9-0.98-0.9-1.64v-43.1c0-0.77,0.45-1.46,1.15-1.78
		c11.53-5.24,23.77-7.78,37.43-7.78c18.07,0,36.32,4.51,53.96,8.87c17.42,4.31,35.44,8.76,53.04,8.76c13.09,0,24.81-2.43,35.83-7.43
		c0.61-0.28,1.31-0.22,1.87,0.14c0.56,0.36,0.9,0.98,0.9,1.64v43.1c0,0.77-0.45,1.46-1.15,1.78
		C211.59,107.68,199.34,110.22,185.68,110.22z M78.68,88.69c18.07,0,36.32,4.51,53.97,8.87c17.43,4.3,35.44,8.76,53.04,8.76
		c12.63,0,23.99-2.27,34.68-6.92V60.53c-10.73,4.43-22.11,6.59-34.68,6.59c-18.07,0-36.33-4.51-53.97-8.87
		c-17.42-4.3-35.43-8.76-53.02-8.76c-12.63,0-23.99,2.27-34.66,6.92v38.86C54.73,90.85,66.11,88.69,78.68,88.69z"/>
	<path class="st1" d="M130.21,36.27c-0.16,0-0.31-0.02-0.47-0.06c-15.71-3.88-33.52-8.27-51.07-8.27c-13.09,0-24.8,2.44-35.82,7.43
		c-0.6,0.28-1.31,0.22-1.87-0.14c-0.56-0.36-0.9-0.98-0.9-1.64v-47.68c0-0.77,0.45-1.46,1.15-1.78c11.54-5.24,23.78-7.78,37.43-7.78
		c16.7,0,32.75,3.64,52,8.38c0.88,0.21,1.49,1,1.49,1.9v47.68c0,0.6-0.28,1.17-0.75,1.54C131.07,36.12,130.65,36.27,130.21,36.27z
		 M78.68,24.03c15.99,0,31.39,3.33,49.59,7.79v-43.66c-18.33-4.5-33.75-7.9-49.58-7.9c-12.63,0-23.99,2.27-34.67,6.92v43.43
		C54.73,26.19,66.11,24.03,78.68,24.03z"/>
	<path class="st1" d="M185.68,110.22c-18.07,0-36.32-4.51-53.97-8.87c-17.42-4.3-35.44-8.75-53.03-8.75
		c-13.08,0-24.8,2.43-35.82,7.43c-0.6,0.28-1.31,0.23-1.87-0.14c-0.56-0.36-0.9-0.98-0.9-1.64V-14.08c0-0.77,0.45-1.46,1.15-1.78
		c11.53-5.24,23.78-7.78,37.43-7.78c18.07,0,36.32,4.51,53.96,8.87c17.43,4.31,35.44,8.76,53.04,8.76c13.09,0,24.81-2.43,35.83-7.43
		c0.61-0.28,1.31-0.22,1.87,0.14c0.56,0.36,0.9,0.98,0.9,1.64v112.34c0,0.77-0.45,1.46-1.15,1.78
		C211.59,107.68,199.34,110.22,185.68,110.22z M78.68,88.69c18.07,0,36.32,4.51,53.97,8.87c17.43,4.3,35.44,8.76,53.04,8.76
		c12.63,0,23.99-2.27,34.68-6.92V-8.7c-10.73,4.43-22.11,6.59-34.68,6.59c-18.07,0-36.33-4.51-53.98-8.87
		c-17.42-4.3-35.43-8.76-53.02-8.76c-12.63,0-23.99,2.27-34.67,6.92V95.28C54.73,90.85,66.11,88.69,78.68,88.69z"/>
	<path class="st1" d="M94.71-10.28c-1.88-0.24-3.76-0.44-5.65-0.6c-0.68-2.2-1.38-4.39-2.06-6.59c-0.68,2.09-1.37,4.19-2.05,6.29
		c-1.89-0.1-3.79-0.16-5.66-0.17c1.49,1.24,2.98,2.52,4.47,3.82c-0.64,1.94-1.27,3.89-1.9,5.84C83.56-2.7,85.28-3.69,87-4.64
		c1.72,1.2,3.44,2.42,5.15,3.67c-0.64-2.04-1.27-4.07-1.9-6.1C91.73-8.16,93.22-9.23,94.71-10.28z"/>
	<path class="st1" d="M94.96,11.97c-1.88-0.24-3.77-0.45-5.66-0.61c-0.68-2.2-1.38-4.4-2.06-6.59c-0.69,2.09-1.38,4.19-2.06,6.29
		c-1.89-0.1-3.77-0.17-5.66-0.18c1.49,1.25,2.98,2.53,4.48,3.83c-0.64,1.94-1.27,3.89-1.91,5.84c1.72-1.02,3.44-2,5.16-2.95
		c1.72,1.2,3.43,2.43,5.15,3.69c-0.64-2.04-1.26-4.08-1.89-6.11C91.98,14.09,93.47,13.02,94.96,11.97z"/>
	<g class="st1">
		<path d="M185.69,23.36c-18.07,0-36.33-4.51-53.98-8.87l-1.96-0.48c-0.88-0.21-1.49-1-1.49-1.9v-25.47c0-0.6,0.28-1.17,0.75-1.54
			s1.09-0.5,1.67-0.36l1.96,0.48c17.43,4.31,35.45,8.76,53.04,8.76c13.09,0,24.8-2.43,35.82-7.43c0.61-0.28,1.31-0.22,1.87,0.14
			c0.56,0.36,0.9,0.98,0.9,1.64V13.8c0,0.77-0.45,1.46-1.15,1.78C211.59,20.82,199.34,23.36,185.69,23.36z M132.17,10.58l0.48,0.12
			c17.43,4.31,35.44,8.76,53.04,8.76c12.63,0,23.99-2.27,34.67-6.92V-8.69c-10.73,4.43-22.1,6.59-34.67,6.59
			c-17.92,0-36.01-4.43-53.52-8.76L132.17,10.58L132.17,10.58z"/>
	</g>
	<path class="st1" d="M185.68,110.22c-18.07,0-36.32-4.51-53.97-8.87c-17.42-4.3-35.44-8.75-53.03-8.75
		c-13.08,0-24.8,2.43-35.82,7.43c-0.6,0.28-1.31,0.23-1.87-0.14c-0.56-0.36-0.9-0.98-0.9-1.64v-20.9c0-0.77,0.45-1.46,1.15-1.78
		c11.53-5.24,23.78-7.78,37.43-7.78c18.07,0,36.32,4.51,53.96,8.87c17.42,4.3,35.44,8.76,53.04,8.76c13.09,0,24.81-2.43,35.83-7.43
		c0.61-0.27,1.31-0.22,1.87,0.14c0.56,0.36,0.9,0.98,0.9,1.64v20.91c0,0.77-0.45,1.46-1.15,1.78
		C211.59,107.68,199.34,110.22,185.68,110.22z M78.68,88.69c18.07,0,36.32,4.51,53.97,8.87c17.43,4.3,35.44,8.76,53.04,8.76
		c12.63,0,23.99-2.27,34.68-6.92V82.74c-10.73,4.43-22.11,6.59-34.68,6.59c-18.07,0-36.33-4.51-53.97-8.87
		c-17.42-4.3-35.43-8.75-53.02-8.75c-12.63,0-23.99,2.27-34.67,6.92v16.65C54.73,90.85,66.11,88.69,78.68,88.69z"/>
</g>
<g class="st0">
	<g class="st1">
		<path d="M165.16,157.87H96.83c-1.08,0-1.95-0.88-1.95-1.95V26.12c0-34.86,21.01-70.27,36.12-70.27s36.12,35.41,36.12,70.27v129.79
			C167.11,156.99,166.24,157.87,165.16,157.87z M98.79,153.96h64.42V26.12c0-33.57-20.38-66.36-32.21-66.36S98.79-7.45,98.79,26.12
			L98.79,153.96L98.79,153.96z"/>
	</g>
	<g class="st1">
		<path d="M165.16,226.18h-20.5c-1.08,0-1.95-0.88-1.95-1.95v-13.66c0-1.08,0.88-1.95,1.95-1.95h13.66c0.74,0,1.42,0.41,1.75,1.08
			l6.84,13.66c0.3,0.61,0.27,1.33-0.08,1.9C166.47,225.82,165.84,226.18,165.16,226.18z M146.62,222.27H162l-4.88-9.75h-10.5V222.27
			z"/>
	</g>
	<g class="st1">
		<path d="M165.16,198.85c-0.47,0-0.91-0.16-1.27-0.47c-0.43-0.38-0.68-0.91-0.68-1.49v-13.67c0-0.97,0.7-1.79,1.66-1.93l88.8-13.66
			c0.57-0.08,1.14,0.08,1.57,0.45c0.43,0.37,0.68,0.91,0.68,1.49v13.66c0,0.96-0.71,1.78-1.66,1.93l-88.8,13.67
			C165.36,198.84,165.26,198.85,165.16,198.85z M167.11,184.91v9.71l84.89-13.07v-9.7L167.11,184.91z"/>
	</g>
	<g class="st1">
		<path d="M96.83,185.19c-0.1,0-0.2-0.01-0.3-0.02l-88.8-13.66c-0.95-0.15-1.66-0.97-1.66-1.93v-27.32c0-0.55,0.23-1.08,0.65-1.45
			l67.96-61.16L95,25.44c0.33-0.89,1.25-1.4,2.18-1.24c0.93,0.17,1.61,0.98,1.61,1.92v127.84h4.88c0.79,0,1.5,0.47,1.81,1.21
			c0.3,0.73,0.14,1.57-0.42,2.13c-0.06,0.06-6.27,6.51-6.27,19.11v6.83c0,0.57-0.25,1.11-0.68,1.48
			C97.75,185.02,97.29,185.19,96.83,185.19z M9.98,167.89l84.89,13.06v-4.54c0-8.89,2.75-15.07,4.9-18.54h-2.94
			c-1.08,0-1.95-0.88-1.95-1.95V36.9l-16.7,44.55c-0.11,0.29-0.29,0.56-0.52,0.77l-67.67,60.9V167.89z"/>
	</g>
	<g class="st1">
		<path d="M144.66,233.01h-27.34c-0.63,0-1.22-0.3-1.59-0.81c-0.37-0.51-0.47-1.16-0.27-1.76l6.84-20.49
			c0.09-0.29,0.25-0.55,0.47-0.76l6.83-6.84c0.73-0.73,2.04-0.73,2.77,0l6.83,6.84c0.21,0.21,0.38,0.48,0.47,0.76l6.84,20.49
			c0.2,0.59,0.1,1.25-0.27,1.76C145.88,232.71,145.29,233.01,144.66,233.01z M120.04,229.1h21.91l-5.83-17.48l-5.12-5.12l-5.12,5.13
			L120.04,229.1z"/>
	</g>
	<g class="st1">
		<path d="M117.33,226.18H96.83c-0.68,0-1.31-0.35-1.66-0.93s-0.39-1.29-0.09-1.9l6.84-13.66c0.33-0.66,1.01-1.08,1.75-1.08h13.66
			c1.08,0,1.95,0.88,1.95,1.95v13.66C119.28,225.3,118.41,226.18,117.33,226.18z M99.99,222.27h15.38v-9.75h-10.5L99.99,222.27z"/>
	</g>
	<g class="st1">
		<path d="M144.66-0.23h-27.34c-4.31,0-7.81-3.5-7.81-7.81c0-4.31,3.5-7.81,7.81-7.81h27.34c4.31,0,7.81,3.51,7.81,7.81
			C152.47-3.73,148.97-0.23,144.66-0.23z M117.33-13.89c-3.23,0-5.86,2.63-5.86,5.86c0,3.23,2.63,5.85,5.86,5.85h27.34
			c3.23,0,5.86-2.62,5.86-5.85c0-3.23-2.63-5.86-5.86-5.86H117.33z"/>
	</g>
	<g class="st1">
		<path d="M96.83,198.85c-0.1,0-0.2-0.01-0.3-0.02l-88.8-13.67c-0.95-0.15-1.66-0.97-1.66-1.93v-13.66c0-0.57,0.25-1.11,0.68-1.49
			c0.43-0.37,1-0.54,1.57-0.45l88.8,13.66c0.95,0.14,1.66,0.97,1.66,1.93v13.67c0,0.57-0.25,1.11-0.68,1.49
			C97.75,198.69,97.29,198.85,96.83,198.85z M9.98,181.55l84.89,13.07v-9.71L9.98,171.85L9.98,181.55L9.98,181.55z"/>
	</g>
	<g class="st1">
		<path d="M124.17,212.52H96.83c-1.08,0-1.95-0.88-1.95-1.95v-34.16c0-14.31,7.11-21.58,7.41-21.87c0.37-0.37,0.86-0.57,1.38-0.57
			H131c1.08,0,1.95,0.87,1.95,1.95c0,1.07-0.88,1.95-1.95,1.95c-2.69,0-4.87,2.19-4.87,4.88v34.15c0,2.69,2.19,4.87,4.87,4.87
			c0.79,0,1.5,0.48,1.81,1.21c0.3,0.73,0.14,1.57-0.42,2.13l-6.83,6.84C125.18,212.31,124.69,212.52,124.17,212.52z M98.79,208.61
			h24.57l3.81-3.82c-2.93-1.42-4.95-4.43-4.95-7.9v-34.15c0-1.81,0.55-3.48,1.48-4.88h-19.14c-1.48,1.83-5.77,8.06-5.77,18.54
			L98.79,208.61L98.79,208.61z"/>
	</g>
	<g class="st1">
		<path d="M165.16,212.52h-27.34c-0.52,0-1.02-0.21-1.38-0.57l-6.83-6.84c-0.56-0.56-0.72-1.4-0.42-2.13
			c0.3-0.73,1.02-1.21,1.81-1.21c2.69,0,4.87-2.19,4.87-4.87v-34.15c0-2.69-2.19-4.88-4.87-4.88c-1.08,0-1.95-0.88-1.95-1.95
			c0-1.08,0.88-1.95,1.95-1.95h27.33c0.52,0,1.02,0.21,1.38,0.57c0.3,0.3,7.41,7.57,7.41,21.87v34.16
			C167.11,211.64,166.24,212.52,165.16,212.52z M138.64,208.61h24.57v-32.2c0-10.47-4.29-16.7-5.77-18.54h-19.14
			c0.93,1.4,1.48,3.07,1.48,4.88v34.15c0,3.47-2.02,6.47-4.95,7.9L138.64,208.61z"/>
	</g>
	<g class="st1">
		<path d="M165.16,185.19c-0.47,0-0.91-0.17-1.27-0.47c-0.43-0.37-0.68-0.91-0.68-1.48v-6.83c0-12.7-6.2-19.05-6.27-19.11
			c-0.56-0.56-0.73-1.4-0.42-2.13c0.3-0.73,1.02-1.21,1.81-1.21h4.88V26.12c0-0.95,0.68-1.76,1.6-1.92
			c0.94-0.16,1.85,0.35,2.19,1.24l20.31,54.2l67.96,61.16c0.41,0.37,0.64,0.9,0.64,1.45v27.32c0,0.96-0.71,1.78-1.66,1.93
			l-88.8,13.66C165.36,185.18,165.26,185.19,165.16,185.19z M162.22,157.87c2.15,3.47,4.9,9.64,4.9,18.54v4.54l84.89-13.06v-24.77
			l-67.67-60.9c-0.24-0.21-0.41-0.47-0.53-0.77l-16.7-44.55v119.01c0,1.07-0.88,1.95-1.95,1.95L162.22,157.87L162.22,157.87z"/>
	</g>
</g>
<g class="st0">
	<g class="st1">
		<circle cx="130.99" cy="94.43" r="115.21"/>
		<path d="M130.99,211.6c-64.6,0-117.16-52.56-117.16-117.17c0-64.61,52.56-117.17,117.16-117.17
			c64.61,0,117.17,52.56,117.17,117.17S195.6,211.6,130.99,211.6z M130.99-18.83c-62.45,0-113.25,50.81-113.25,113.26
			c0,62.46,50.8,113.27,113.25,113.27c62.45,0,113.26-50.81,113.26-113.27C244.25,31.98,193.44-18.83,130.99-18.83z"/>
	</g>
	<path class="st1" d="M131,183.36c-1.47,0-147.4-0.19-147.4-16.4c0-3.33,4.38-5.69,14.65-7.91c16.42-3.57,47.07-6.36,84.1-7.67
		c15.57-0.55,31.94-0.82,48.65-0.82c1.47,0,147.4,0.19,147.4,16.4C278.39,183.18,132.47,183.36,131,183.36z M131,154.47
		c-16.67,0-32.99,0.28-48.51,0.82c-36.81,1.29-67.21,4.05-83.41,7.58c-10.57,2.29-11.56,4.16-11.59,4.24
		c2.43,4.87,54.94,12.34,143.51,12.34s141.08-7.47,143.51-12.64C272.08,161.94,219.58,154.47,131,154.47z"/>
	<g class="st1">
		<path d="M29.68,177.83c0,4.77-3.86,8.63-8.62,8.63c-4.75,0-8.62-3.86-8.62-8.63c0-4.75,3.86-8.61,8.62-8.61
			C25.81,169.21,29.68,173.07,29.68,177.83z"/>
		<path d="M21.06,187.43c-5.29,0-9.59-4.31-9.59-9.6c0-5.29,4.3-9.59,9.59-9.59c5.29,0,9.6,4.3,9.6,9.59
			C30.66,183.12,26.35,187.43,21.06,187.43z M21.06,170.19c-4.21,0-7.64,3.42-7.64,7.63c0,4.22,3.42,7.65,7.64,7.65
			c4.22,0,7.65-3.43,7.65-7.65C28.7,173.62,25.27,170.19,21.06,170.19z"/>
	</g>
	<g class="st1">
		<circle cx="170.32" cy="181.69" r="12.48"/>
		<path d="M170.32,195.14c-7.42,0-13.46-6.04-13.46-13.45c0-7.42,6.04-13.45,13.46-13.45c7.42,0,13.46,6.04,13.46,13.45
			C183.77,189.11,177.74,195.14,170.32,195.14z M170.32,170.19c-6.34,0-11.5,5.16-11.5,11.5c0,6.34,5.16,11.5,11.5,11.5
			c6.34,0,11.5-5.16,11.5-11.5C181.82,175.35,176.66,170.19,170.32,170.19z"/>
	</g>
	<g class="st1">
		<path d="M249.54,178.08c0,4.9-3.98,8.87-8.87,8.87c-4.89,0-8.87-3.97-8.87-8.87c0-4.89,3.98-8.87,8.87-8.87
			C245.56,169.21,249.54,173.19,249.54,178.08z"/>
		<path d="M240.67,188.9c-5.97,0-10.82-4.85-10.82-10.82s4.85-10.82,10.82-10.82c5.97,0,10.83,4.85,10.83,10.82
			S246.64,188.9,240.67,188.9z M240.67,171.17c-3.81,0-6.91,3.1-6.91,6.91s3.1,6.91,6.91,6.91c3.82,0,6.92-3.1,6.92-6.91
			S244.48,171.17,240.67,171.17z"/>
	</g>
	<g class="st1">
		<path d="M220.09,167.46c16.31-19.88,26.11-45.32,26.11-73.03c0-63.64-51.59-115.22-115.22-115.22
			c-63.63,0-115.21,51.57-115.21,115.22c0,27.72,9.79,53.15,26.1,73.03"/>
		<path d="M220.09,169.42c-0.44,0-0.88-0.14-1.24-0.44c-0.83-0.68-0.95-1.92-0.27-2.75c16.55-20.18,25.67-45.68,25.67-71.79
			c0-62.45-50.81-113.26-113.26-113.26c-62.45,0-113.25,50.81-113.25,113.26c0,26.12,9.11,51.62,25.65,71.79
			c0.68,0.84,0.56,2.07-0.27,2.75c-0.84,0.68-2.07,0.56-2.75-0.27c-17.11-20.87-26.54-47.25-26.54-74.27
			c0-64.61,52.56-117.17,117.16-117.17c64.61,0,117.17,52.56,117.17,117.17c0,27.01-9.43,53.39-26.55,74.27
			C221.22,169.17,220.66,169.42,220.09,169.42z"/>
	</g>
	<g class="st1">
		<circle cx="85.05" cy="180.78" r="19.04"/>
		<path d="M85.05,200.8c-11.04,0-20.02-8.98-20.02-20.02c0-11.04,8.98-20.03,20.02-20.03c11.04,0,20.02,8.98,20.02,20.03
			C105.08,191.82,96.09,200.8,85.05,200.8z M85.05,162.71c-9.96,0-18.06,8.11-18.06,18.07c0,9.96,8.1,18.06,18.06,18.06
			c9.96,0,18.07-8.1,18.07-18.06C103.12,170.82,95.01,162.71,85.05,162.71z"/>
	</g>
</g>
<g class="st0">
	<g class="st1">
		<line class="st2" x1="-16.57" y1="169.08" x2="280.99" y2="169.08"/>
		<path class="st3" d="M-17.38,169.08c9.09,0,38.86-21.45,44.93-21.45c6.07,0,17.99-5.36,21.01-10.73
			c3.03-5.36,23.07-10.73,26.1-16.09c3.03-5.37,20.62,5.36,23.66,5.36c3.03,0,21.31,10.73,24.34,10.73
			c3.03,0,22.55-10.73,25.58-10.73c3.03,0,15.31,5.36,21.37,5.36c6.06,0,20.24,0,23.27,5.36s26.83-10.73,32.9,10.73
			c6.06,21.45,32.14,10.72,35.17,16.09c3.03,5.36,20.04,5.36,20.04,5.36"/>
		<path class="st3" d="M-18.19,169.08c18.17,0,33.06-42.9,45.18-42.9c12.13,0,13.54-10.72,19.61-21.45
			C52.66,94,62.68,83.28,68.74,72.55c6.05-10.73,19.39,10.72,25.46,10.72c6.06,0,19.75,21.45,25.8,21.45
			c6.07,0,20.37-21.45,26.42-21.45c6.06,0,12.2,10.73,24.33,10.73s19.21,0,25.28,10.72c6.05,10.73,17.96-21.45,30.08,21.45
			c12.12,42.9,25.16,21.45,31.22,32.18c6.06,10.72,23.66,10.72,23.66,10.72"/>
		<path class="st3" d="M-19,169.08c27.26,0,27.26-64.35,45.45-64.35c18.19,0,9.09-16.09,18.19-32.18
			c9.09-16.09,9.09-32.17,18.18-48.26C71.9,8.2,80.98,40.38,90.08,40.38c9.09,0,18.18,32.17,27.26,32.17
			c9.1,0,18.19-32.17,27.28-32.17c9.09,0,9.09,16.09,27.28,16.09s18.18,0,27.28,16.09c9.08,16.09,9.08-32.17,27.27,32.18
			c18.18,64.35,18.18,32.17,27.28,48.27c9.09,16.08,27.26,16.08,27.26,16.08"/>
	</g>
	<rect x="72.76" y="-84.89" class="st4" width="197.3" height="67.32"/>
	<text transform="matrix(1 0 0 1 72.7626 -51.5825)" class="st1" style="font-family:'MyriadPro-Regular'; font-size:46.9074px;">faire qqch</text>
</g>
<g class="st0">
	<g class="st1">
		<path d="M131,225.04c-70.19,0-127.28-58.6-127.28-130.62c0-72.01,57.1-130.6,127.28-130.6c0.45,0,0.89,0.02,1.33,0.03l0.78,0.02
			c18.13,2.63,33.23,37.33,38.82,88.58c49.89,5.75,83.69,21.23,86.27,39.57l0.04,0.91c0.02,0.49,0.04,0.98,0.04,1.47
			C258.28,166.45,201.18,225.04,131,225.04z M131-32.27C62.97-32.27,7.63,24.56,7.63,94.42c0,69.87,55.34,126.71,123.37,126.71
			c68.02,0,123.37-56.84,123.37-126.71c0-0.44-0.02-0.88-0.03-1.33l-0.03-0.73c-2.29-16.23-36.2-30.87-84.37-36.19
			c-0.91-0.1-1.63-0.82-1.73-1.74c-5.19-49.5-19.43-84.32-35.43-86.67l-0.59,0C131.79-32.25,131.4-32.27,131-32.27z"/>
	</g>
	<g class="st1">
		<path d="M91.95,136.48c-0.99,0-1.84-0.75-1.94-1.75c-1.36-13.08-2.06-26.64-2.06-40.31c0-3.16,0.04-6.32,0.11-9.45l0.06-1.8
			c0.08-3.13,0.19-6.25,0.36-9.34c0.18-3.54,0.39-6.73,0.63-9.89C93.78,3.97,110.61-36.18,131-36.18
			c19.17,0,35.26,35.45,40.99,90.31c0.11,1.07-0.67,2.04-1.74,2.15c-1.06,0.12-2.04-0.66-2.15-1.74
			c-5.34-51.11-20.6-86.81-37.1-86.81c-17.66,0-33.63,40.5-37.96,96.3c-0.27,3.34-0.47,6.51-0.64,9.73
			c-0.18,3.34-0.29,6.42-0.36,9.52l-0.06,1.79c-0.08,3.1-0.11,6.22-0.11,9.35c0,13.53,0.68,26.95,2.04,39.9
			c0.11,1.07-0.66,2.04-1.74,2.15C92.09,136.47,92.02,136.48,91.95,136.48z"/>
	</g>
	<path class="st5" d="M170.05,54.53"/>
	<g class="st1">
		<path d="M130.99,138.76c-13.43,0-26.63-0.71-39.25-2.11c-0.74-0.08-1.37-0.58-1.63-1.28c-0.25-0.71-0.08-1.49,0.44-2.02
			l21.03-21.59c0.75-0.77,1.99-0.79,2.76-0.04c0.77,0.75,0.79,1.99,0.04,2.76l-18.22,18.7c14.19,1.39,29.34,1.86,43.96,1.55
			l1.73-0.05c3.03-0.09,6.02-0.2,8.99-0.37c0.04,0,0.37-0.02,0.41-0.02c3.02-0.16,6.1-0.38,9.14-0.63
			c54.55-4.48,93.98-20.89,93.98-39.05c0-16.98-34.76-32.66-84.53-38.16c-1.07-0.12-1.85-1.08-1.73-2.16
			c0.12-1.07,1.09-1.84,2.16-1.73c52.65,5.8,88.01,22.7,88.01,42.04c0,20.58-40.04,38.23-97.36,42.92c-3.3,0.28-6.41,0.49-9.57,0.66
			c-0.04,0-0.36,0.02-0.4,0.02c-2.9,0.16-5.92,0.28-8.99,0.38l-1.73,0.05C137.16,138.71,134.1,138.76,130.99,138.76z"/>
	</g>
	<g class="st1">
		<g>
			<path d="M128.88,114.92c-5.77,0-11.48-0.31-16.97-0.91c-0.46-0.05-0.82-0.41-0.86-0.87c-0.59-5.71-0.9-11.58-0.9-17.44
				c0-1.37,0.02-2.74,0.07-4.1c0-0.24,0-0.5,0.02-0.79c0.03-1.33,0.07-2.7,0.16-4.03c0.06-1.51,0.16-2.89,0.27-4.26
				c1.75-22.44,7.92-44.98,17.77-44.98c31.67,0.14,57.44,27.05,57.44,59.99c0,0.28,0,0.41,0.01,0.47h-0.01
				c0.04,0.25,0.02,0.54,0,0.83c-0.73,4.84-20.69,13.65-43.96,15.56c-0.08,0.02-0.16,0.03-0.23,0.03c-1.26,0.1-2.6,0.2-4.01,0.27
				c-1.18,0.07-2.29,0.11-3.41,0.15l-1.39,0.04C131.57,114.9,130.25,114.92,128.88,114.92z M112.91,112.15
				c6.46,0.68,13.39,0.9,19.94,0.77l1.34-0.04c1.1-0.04,2.2-0.08,3.27-0.15c1.47-0.08,2.78-0.17,4.08-0.27
				c0.05-0.01,0.1-0.02,0.15-0.02c24.68-2.01,41.83-11.12,42.24-13.82l0.02-0.4c-0.03-0.22-0.03-0.46-0.03-0.69
				c0-31.87-24.89-57.9-55.49-58.03c-7.2,0-13.86,18.12-15.82,43.08c-0.11,1.45-0.21,2.8-0.26,4.19c-0.1,1.46-0.13,2.79-0.16,4.13
				c-0.02,0.27-0.02,0.5-0.02,0.73c-0.05,1.38-0.07,2.72-0.07,4.07C112.1,101.21,112.37,106.75,112.91,112.15z"/>
		</g>
	</g>
</g>
<g class="st0">
	<g class="st1">
		<path d="M162.3-9.26c-0.04,0-0.08,0-0.13-0.01l-62.29-8.13c-0.49-0.07-0.85-0.48-0.85-0.97v-13.51c0-0.28,0.12-0.55,0.33-0.73
			c0.21-0.18,0.49-0.27,0.77-0.23l62.29,8.12c0.48,0.07,0.85,0.48,0.85,0.97v13.52c0,0.28-0.12,0.55-0.33,0.73
			C162.76-9.34,162.53-9.26,162.3-9.26z M100.98-19.22l60.34,7.87V-22.9l-60.34-7.86V-19.22z"/>
	</g>
	<g class="st1">
		<path d="M162.3,20.38c-0.04,0-0.08,0-0.12-0.01l-62.29-7.59c-0.49-0.06-0.86-0.48-0.86-0.97V-1.69c0-0.28,0.12-0.55,0.33-0.73
			c0.21-0.19,0.49-0.27,0.77-0.24l62.29,7.59c0.49,0.06,0.86,0.48,0.86,0.97V19.4c0,0.28-0.12,0.55-0.33,0.73
			C162.76,20.3,162.53,20.38,162.3,20.38z M100.98,10.95l60.34,7.35V6.75l-60.34-7.35V10.95z"/>
	</g>
	<g class="st1">
		<path d="M157.62,50.66c-0.04,0-0.09,0-0.13-0.01l-55.31-7.4c-0.39-0.05-0.72-0.34-0.81-0.72c-1.16-4.44-1.9-9.14-2.17-13.98
			c-0.02-0.29,0.1-0.57,0.31-0.77c0.21-0.2,0.49-0.31,0.79-0.25l61.05,8.14c0.26,0.04,0.5,0.18,0.66,0.39
			c0.16,0.21,0.22,0.48,0.18,0.74c-0.77,4.54-2.01,8.99-3.66,13.23C158.39,50.41,158.02,50.66,157.62,50.66z M103.09,41.4
			l53.89,7.21c1.35-3.59,2.39-7.33,3.1-11.14l-58.86-7.85C101.52,33.68,102.14,37.64,103.09,41.4z"/>
	</g>
	<g class="st1">
		<path d="M139.55,78.12c-0.04,0-0.08,0-0.12-0.01l-18.88-2.4c-0.23-0.03-0.45-0.14-0.61-0.32c-4.59-5.2-8.24-10.12-11.14-15.05
			c-0.19-0.32-0.18-0.72,0.02-1.03c0.2-0.31,0.57-0.48,0.94-0.43l39.82,5.04c0.34,0.04,0.63,0.26,0.77,0.57
			c0.14,0.31,0.11,0.67-0.08,0.95c-2.78,4.04-6.05,8.08-10.01,12.36C140.09,78.01,139.83,78.12,139.55,78.12z M121.17,73.83
			l18.01,2.29c3.31-3.61,6.13-7.05,8.57-10.46l-36.21-4.58C114.14,65.24,117.31,69.43,121.17,73.83z"/>
	</g>
	<g class="st1">
		<path d="M155.43,140.43c-0.05,0-0.09-0.01-0.14-0.02l-44.93-6.61c-0.08-0.01-0.21-0.05-0.29-0.08c-0.35-0.03-0.55-0.21-0.7-0.54
			c-0.15-0.32,0-0.67,0.2-0.95c2.69-3.8,6.02-7.76,10.17-12.09c0.22-0.23,0.55-0.34,0.86-0.29l24.17,3.77
			c0.23,0.04,0.43,0.15,0.58,0.32c4.72,5.3,8.3,10.23,10.94,15.05c0.18,0.33,0.15,0.73-0.06,1.03
			C156.05,140.28,155.75,140.43,155.43,140.43z M112.08,132.1l41.5,6.09c-2.4-4.07-5.52-8.24-9.47-12.7l-23.31-3.64
			C117.34,125.5,114.47,128.87,112.08,132.1z"/>
	</g>
	<g class="st1">
		<path d="M161.99,171.42c-0.05,0-0.08-0.01-0.13-0.01l-62.16-8.34c-0.5-0.07-0.87-0.51-0.84-1.02c0.22-4.66,1.03-9.19,2.39-13.46
			c0.14-0.45,0.58-0.73,1.06-0.67l59.2,7.95c0.43,0.05,0.77,0.39,0.84,0.82c0.41,2.76,0.62,5.41,0.62,8.14v5.6
			c0,0.28-0.12,0.55-0.34,0.73C162.45,171.34,162.22,171.42,161.99,171.42z M100.85,161.26l60.16,8.06v-4.48
			c0-2.38-0.16-4.73-0.5-7.12l-57.65-7.75C101.78,153.59,101.1,157.37,100.85,161.26z"/>
	</g>
	<g class="st1">
		<path d="M161.76,202.34c-0.05,0-0.1-0.01-0.15-0.02l-62.05-9.6c-0.48-0.07-0.83-0.48-0.83-0.96v-13.58c0-0.29,0.13-0.56,0.34-0.74
			c0.21-0.19,0.5-0.28,0.79-0.23l62.32,9.66c0.48,0.08,0.84,0.5,0.83,0.99l-0.27,13.52c-0.01,0.28-0.13,0.55-0.35,0.73
			C162.21,202.26,161.99,202.34,161.76,202.34z M100.69,190.92l60.12,9.31l0.23-11.55l-60.35-9.35V190.92z"/>
	</g>
	<g class="st1">
		<path d="M164.15,232.05c-0.04,0-0.08-0.01-0.13-0.01l-64.44-8.63c-0.48-0.07-0.85-0.48-0.85-0.97v-13.53
			c0-0.28,0.12-0.55,0.33-0.74c0.21-0.18,0.49-0.26,0.77-0.23l62.28,8.38c0.48,0.06,0.85,0.48,0.85,0.97v7.91
			c0,1.91,0.67,3.72,1.94,5.25c0.26,0.3,0.3,0.74,0.11,1.1C164.83,231.86,164.5,232.05,164.15,232.05z M100.69,221.59l61.46,8.22
			c-0.74-1.43-1.14-3.01-1.14-4.61v-7.06l-60.32-8.11V221.59z"/>
	</g>
	<g class="st1">
		<path d="M90.77,236.09c-6.01,0-10.9-4.89-10.9-10.89v-60.35c0-33.77,21.03-53.42,41.38-72.42c20.15-18.86,39.1-36.61,39.1-68.4
			v-60.35c0-6.01,4.89-10.9,10.89-10.9c6.01,0,10.89,4.89,10.89,10.9v60.35c0,41.26-24.42,64.11-45.96,84.28
			c-18.53,17.31-34.5,32.23-34.5,56.54v60.35C101.66,231.21,96.77,236.09,90.77,236.09z M171.23-43.32c-3.85,0-6.98,3.13-6.98,6.99
			v60.35c0,33.49-19.55,51.79-40.25,71.18c-19.81,18.51-40.22,37.58-40.22,69.64v60.35c0,3.85,3.13,6.99,6.99,6.99
			c3.85,0,6.99-3.14,6.99-6.99v-60.35c0-26.01,16.54-41.47,35.7-59.36c21.01-19.66,44.77-41.9,44.77-81.46v-60.35
			C178.22-40.18,175.08-43.32,171.23-43.32z"/>
	</g>
	<g class="st1">
		<g>
			<path d="M117.98,100.09c-0.49,0-0.98-0.18-1.35-0.54c-19.1-18.58-36.76-40.6-36.76-75.52v-60.35c0-6.01,4.89-10.9,10.9-10.9
				s10.9,4.89,10.9,10.9v60.35c0,28.37,15.17,45.41,30.7,60.44c0.38,0.37,0.59,0.88,0.59,1.4c0,0.53-0.21,1.04-0.59,1.4
				c-2.77,2.68-5.59,5.32-8.45,8l-4.55,4.27C118.98,99.9,118.48,100.09,117.98,100.09z M90.77-43.32c-3.85,0-6.99,3.13-6.99,6.99
				v60.35c0,32.67,16.29,53.71,34.25,71.42l3.22-3.02c2.34-2.2,4.66-4.37,6.95-6.56c-15.62-15.28-30.44-32.84-30.44-61.84v-60.35
				C97.75-40.18,94.62-43.32,90.77-43.32z"/>
		</g>
		<g>
			<path d="M171.23,236.09c-6,0-10.89-4.89-10.89-10.89v-60.35c0-22.32-13.3-36.61-30.69-52.96c-0.39-0.37-0.61-0.88-0.61-1.42
				s0.22-1.05,0.61-1.42c1.25-1.19,2.52-2.36,3.81-3.56c3.03-2.84,6.11-5.75,9.19-8.74c0.75-0.73,1.95-0.74,2.71-0.02
				c19.38,18.31,36.77,37.3,36.77,68.12v60.35C182.13,231.21,177.24,236.09,171.23,236.09z M133.85,110.47
				c17.34,16.43,30.41,31.16,30.41,54.38v60.35c0,3.85,3.13,6.99,6.98,6.99c3.85,0,6.99-3.14,6.99-6.99v-60.35
				c0-28.55-16.01-46.68-34.19-63.99c-2.65,2.55-5.3,5.05-7.9,7.49C135.35,109.05,134.6,109.76,133.85,110.47z"/>
		</g>
	</g>
</g>
<g class="st0">
	<g class="st1">
		<g>
			<path d="M206.65,130.23H54.99c-13.55,0-17.13-11.2-17.13-17.13V52.45c0-13.55,11.2-17.13,17.13-17.13h5.85
				c0.66-3.33,3.11-7.58,9.32-7.58h15.17c6.22,0,8.66,4.24,9.33,7.58h5.84c2.99,0,6.57-3.57,10.02-7.02c4-4,8.14-8.14,12.73-8.14
				h30.35c4.59,0,8.73,4.14,12.74,8.14c3.45,3.45,7.02,7.02,10.01,7.02h30.31c8.65,0,17.14,8.48,17.14,17.13v60.66
				C223.78,126.65,212.57,130.23,206.65,130.23z M54.99,39.23c-0.54,0-13.22,0.22-13.22,13.22v60.66c0,0.54,0.22,13.22,13.22,13.22
				h151.65c0.54,0,13.24-0.22,13.24-13.22V52.45c0-6.55-6.68-13.22-13.23-13.22h-30.31c-4.61,0-8.76-4.15-12.78-8.16
				c-3.44-3.44-7-7-9.97-7h-30.35c-2.97,0-6.52,3.56-9.97,6.99c-4.01,4.01-8.17,8.17-12.78,8.17h-7.59c-1.08,0-1.95-0.88-1.95-1.95
				c-0.01-0.93-0.33-5.62-5.62-5.62H70.15c-5.45,0-5.61,5.05-5.61,5.62c0,1.08-0.88,1.95-1.95,1.95H54.99z"/>
		</g>
		<g>
			<line class="st6" x1="62.59" y1="37.28" x2="92.9" y2="37.28"/>
			<path d="M92.9,39.23H62.59c-1.08,0-1.95-0.88-1.95-1.95c0-1.08,0.88-1.95,1.95-1.95H92.9c1.08,0,1.95,0.88,1.95,1.95
				C94.85,38.35,93.97,39.23,92.9,39.23z"/>
		</g>
		<g>
			<path d="M149.8,38.25h-22.76c-2.63,0-4.78-2.14-4.78-4.77c0-2.63,2.14-4.77,4.78-4.77h22.76c2.63,0,4.77,2.14,4.77,4.77
				C154.57,36.11,152.42,38.25,149.8,38.25z M127.04,30.68c-1.56,0-2.83,1.26-2.83,2.81s1.27,2.81,2.83,2.81h22.76
				c1.55,0,2.81-1.26,2.81-2.81s-1.26-2.81-2.81-2.81H127.04z"/>
		</g>
		<g>
			<path d="M130.83,121.19c-21.17,0-38.4-17.23-38.4-38.42c0-21.17,17.23-38.41,38.4-38.41c21.19,0,38.43,17.23,38.43,38.41
				C169.26,103.95,152.02,121.19,130.83,121.19z M130.83,48.27c-19.02,0-34.49,15.48-34.49,34.5c0,19.03,15.47,34.51,34.49,34.51
				c19.03,0,34.52-15.48,34.52-34.51C165.35,63.74,149.86,48.27,130.83,48.27z"/>
		</g>
		<g>
			<path d="M130.83,110.3c-15.17,0-27.52-12.35-27.52-27.52s12.35-27.52,27.52-27.52c15.18,0,27.53,12.34,27.53,27.52
				C158.35,97.95,146.01,110.3,130.83,110.3z M130.83,57.21c-14.1,0-25.57,11.47-25.57,25.56c0,14.1,11.47,25.57,25.57,25.57
				c14.1,0,25.57-11.47,25.57-25.57C156.4,68.68,144.93,57.21,130.83,57.21z"/>
		</g>
		<g>
			<path d="M111.87,87.55c-0.54,0-0.98-0.44-0.98-0.98c0-13.08,10.65-23.72,23.73-23.72c0.54,0,0.98,0.44,0.98,0.98
				c0,0.54-0.43,0.98-0.98,0.98c-12.01,0-21.78,9.77-21.78,21.77C112.85,87.11,112.42,87.55,111.87,87.55z"/>
		</g>
	</g>
	<g class="st1">
		<path d="M13.24,137.7c-5.5,0-15.91-3.32-15.91-15.91V52.04c0-12.58,10.41-15.91,15.91-15.91c12.58,0,15.9,10.41,15.9,15.91v69.76
			C29.13,134.39,18.73,137.7,13.24,137.7z M13.24,40.04c-1.22,0.01-12,0.41-12,12v69.76c0,11.57,10.74,11.99,12,12
			c1.25-0.01,11.99-0.43,11.99-12V52.04C25.22,50.82,24.82,40.04,13.24,40.04z"/>
	</g>
	<g class="st1">
		<path d="M248.77,137.29c-5.5,0-15.9-3.32-15.9-15.91V51.64c0-12.59,10.4-15.91,15.9-15.91c12.58,0,15.9,10.41,15.9,15.91v69.75
			C264.67,133.97,254.26,137.29,248.77,137.29z M248.77,39.63c-1.22,0.01-11.99,0.41-11.99,12v69.75c0,11.82,11.43,12,11.98,12
			c1.24-0.01,12-0.41,12-12V51.64C260.75,50.41,260.35,39.63,248.77,39.63z"/>
	</g>
	<path class="st1" d="M130.85,12.59c-0.54,0-0.98-0.44-0.98-0.98V-15.1c0-0.54,0.44-0.98,0.98-0.98c0.54,0,0.98,0.44,0.98,0.98
		v26.71C131.82,12.15,131.39,12.59,130.85,12.59z"/>
	<path class="st1" d="M130.84-14.12c-3.79,0-6.87-3.08-6.87-6.87c0-3.78,3.08-6.86,6.87-6.86c3.78,0,6.86,3.08,6.86,6.86
		C137.7-17.21,134.62-14.12,130.84-14.12z M130.84-25.9c-2.71,0-4.91,2.2-4.91,4.91s2.2,4.92,4.91,4.92c2.7,0,4.9-2.2,4.9-4.92
		C135.75-23.7,133.54-25.9,130.84-25.9z"/>
	<g class="st1">
		<path d="M182.07,216.72c-12.02,0-21.43-16.2-21.43-36.89c0-20.68,9.41-36.89,21.43-36.89c12.02,0,21.43,16.21,21.43,36.89
			C203.5,200.53,194.09,216.72,182.07,216.72z M182.07,146.85c-9.5,0-17.52,15.11-17.52,32.98c0,17.88,8.03,32.98,17.52,32.98
			s17.52-15.1,17.52-32.98C199.59,161.96,191.57,146.85,182.07,146.85z"/>
	</g>
	<ellipse class="st1" cx="182.07" cy="179.84" rx="5.78" ry="10.36"/>
	<g class="st1">
		<path d="M98.86,216.72c-12.02,0-21.43-16.2-21.43-36.89c0-20.68,9.41-36.89,21.43-36.89c12.02,0,21.43,16.21,21.43,36.89
			C120.29,200.53,110.88,216.72,98.86,216.72z M98.86,146.85c-9.5,0-17.52,15.11-17.52,32.98c0,17.88,8.03,32.98,17.52,32.98
			c9.5,0,17.52-15.1,17.52-32.98C116.38,161.96,108.36,146.85,98.86,146.85z"/>
	</g>
	<ellipse class="st1" cx="98.86" cy="179.84" rx="5.77" ry="10.36"/>
	<g class="st1">
		<g>
			<path d="M182.07,216.72h-19.48c-12.02,0-21.44-16.2-21.44-36.89c0-20.68,9.42-36.89,21.44-36.89h19.48
				c1.08,0,1.95,0.88,1.95,1.95c0,1.08-0.88,1.95-1.95,1.95c-9.5,0-17.52,15.11-17.52,32.98c0,17.88,8.03,32.98,17.52,32.98
				c1.08,0,1.95,0.88,1.95,1.95C184.02,215.85,183.15,216.72,182.07,216.72z M162.59,146.85c-9.5,0-17.53,15.11-17.53,32.98
				c0,17.88,8.03,32.98,17.53,32.98h9.72c-6.99-6.01-11.67-18.38-11.67-32.98c0-14.6,4.69-26.96,11.67-32.98L162.59,146.85
				L162.59,146.85z"/>
		</g>
		<g>
			<polygon points="182.07,214.77 182.11,214.77 182.11,214.77 			"/>
			<path d="M182.11,216.72h-0.04c-1.08,0-1.95-0.87-1.95-1.95c0-1.07,0.88-1.95,1.95-1.95s1.97,0.88,1.97,1.95
				C184.04,215.85,183.19,216.72,182.11,216.72z"/>
		</g>
	</g>
	<g class="st1">
		<g>
			<path d="M98.86,216.72H79.38c-12.02,0-21.44-16.2-21.44-36.89c0-20.68,9.42-36.89,21.44-36.89h19.47c1.08,0,1.95,0.88,1.95,1.95
				c0,1.08-0.88,1.95-1.95,1.95c-9.5,0-17.52,15.11-17.52,32.98c0,17.88,8.03,32.98,17.52,32.98c1.08,0,1.95,0.88,1.95,1.95
				C100.81,215.85,99.94,216.72,98.86,216.72z M79.38,146.85c-9.5,0-17.53,15.11-17.53,32.98c0,17.88,8.03,32.98,17.53,32.98h9.72
				c-6.99-6.01-11.67-18.38-11.67-32.98c0-14.6,4.69-26.96,11.67-32.98L79.38,146.85L79.38,146.85z"/>
		</g>
		<g>
			<polygon points="98.86,214.77 98.9,214.77 98.9,214.77 			"/>
			<path d="M98.9,216.72h-0.05c-1.08,0-1.95-0.87-1.95-1.95c0-1.07,0.88-1.95,1.95-1.95s1.98,0.88,1.98,1.95
				C100.83,215.85,99.98,216.72,98.9,216.72z"/>
		</g>
	</g>
</g>
<g class="st0">
	<g class="st1">
		<path d="M97.25,70.15c-0.49,0-0.91-0.37-0.97-0.87c-0.06-0.54,0.32-1.02,0.86-1.08c0.15-0.02,15.46-1.77,33.45-8.48
			c16.54-6.16,38.82-17.88,50.98-38.74c0.27-0.47,0.87-0.63,1.34-0.35c0.47,0.27,0.62,0.87,0.35,1.34
			c-12.46,21.37-35.18,33.33-52.03,39.6c-18.22,6.78-33.72,8.56-33.87,8.57C97.32,70.15,97.28,70.15,97.25,70.15z"/>
		<path d="M114.28,114.44c-0.46,0-0.88-0.33-0.96-0.8c-0.09-0.53,0.25-1.04,0.79-1.14c0.37-0.07,37.09-7.17,50.36-43.66
			c0.18-0.51,0.74-0.77,1.25-0.58c0.5,0.18,0.77,0.74,0.58,1.25c-13.66,37.57-51.47,44.85-51.84,44.92
			C114.39,114.43,114.34,114.44,114.28,114.44z"/>
		<path d="M131.31,33.65c-54.88,0-56.46-17.04-56.46-18.98c0-1.95,1.58-19,56.46-19c54.89,0,56.47,17.05,56.47,19
			C187.78,16.62,186.19,33.65,131.31,33.65z M131.31-0.42c-51.12,0-52.54,14.99-52.55,15.14c0.01,0.05,1.44,15.02,52.55,15.02
			c51.13,0,52.56-14.92,52.56-15.07C183.86,14.57,182.43-0.42,131.31-0.42z"/>
		<path d="M131.31,163.12L131.31,163.12c-0.82,0-1.55-0.51-1.83-1.27L76.2,18.67c-0.35-0.94,0.07-1.99,0.97-2.44
			c0.9-0.45,1.99-0.14,2.52,0.71c2.43,3.85,12.32,12.8,51.63,12.8c39.31,0,49.21-8.96,51.64-12.8c0.54-0.85,1.63-1.16,2.52-0.71
			c0.9,0.45,1.32,1.49,0.97,2.44l-53.29,143.18C132.86,162.61,132.13,163.12,131.31,163.12z M82.68,24.86l48.63,130.7l48.64-130.7
			c-7.26,4.48-21.35,8.79-48.64,8.79C104.02,33.65,89.94,29.34,82.68,24.86z"/>
	</g>
	<g class="st1">
		<path d="M131.72-11.58c-0.54,0-0.98-0.44-0.98-0.98v-26.71c0-0.54,0.44-0.98,0.98-0.98c0.54,0,0.98,0.44,0.98,0.98v26.71
			C132.7-12.02,132.26-11.58,131.72-11.58z"/>
		<path d="M131.71-38.29c-3.78,0-6.86-3.08-6.86-6.87c0-3.78,3.08-6.86,6.86-6.86c3.79,0,6.87,3.08,6.87,6.86
			C138.57-41.37,135.49-38.29,131.71-38.29z M131.71-50.07c-2.71,0-4.91,2.2-4.91,4.91c0,2.71,2.2,4.92,4.91,4.92
			s4.91-2.2,4.91-4.92C136.62-47.87,134.42-50.07,131.71-50.07z"/>
	</g>
	<g class="st1">
		<path d="M54.99,142.16c-5.5,0-15.91-3.33-15.91-15.91V56.49c0-12.59,10.41-15.91,15.91-15.91c12.58,0,15.9,10.41,15.9,15.91v69.76
			C70.88,138.83,60.48,142.16,54.99,142.16z M54.99,44.49c-1.22,0.01-12,0.41-12,12v69.76c0,11.82,11.43,12,11.99,12
			c1.23-0.01,12-0.41,12-12V56.49C66.97,55.27,66.57,44.49,54.99,44.49z"/>
	</g>
	<g class="st1">
		<path d="M207.01,142.16c-5.5,0-15.89-3.33-15.89-15.91V56.49c0-12.59,10.39-15.91,15.89-15.91c12.58,0,15.91,10.41,15.91,15.91
			v69.76C222.91,138.83,212.51,142.16,207.01,142.16z M207.01,44.49c-1.22,0.01-11.98,0.41-11.98,12v69.76
			c0,11.57,10.73,11.99,11.98,12c1.26-0.01,12-0.43,12-12V56.49C219,55.27,218.6,44.49,207.01,44.49z"/>
	</g>
	<g class="st1">
		<path d="M182.4,240.89c-12.02,0-21.43-16.21-21.43-36.89c0-20.69,9.42-36.89,21.43-36.89c12.02,0,21.43,16.2,21.43,36.89
			C203.83,224.68,194.42,240.89,182.4,240.89z M182.4,171.02c-9.5,0-17.52,15.1-17.52,32.98c0,17.87,8.03,32.98,17.52,32.98
			s17.52-15.11,17.52-32.98C199.92,186.12,191.9,171.02,182.4,171.02z"/>
	</g>
	<path class="st1" d="M188.18,204c0,5.71-2.59,10.36-5.78,10.36s-5.77-4.65-5.77-10.36c0-5.73,2.58-10.37,5.77-10.37
		C185.59,193.62,188.18,198.26,188.18,204z"/>
	<g class="st1">
		<path d="M99.19,240.89c-12.02,0-21.43-16.21-21.43-36.89c0-20.69,9.42-36.89,21.43-36.89s21.43,16.2,21.43,36.89
			C120.63,224.68,111.21,240.89,99.19,240.89z M99.19,171.02c-9.5,0-17.52,15.1-17.52,32.98c0,17.87,8.03,32.98,17.52,32.98
			s17.52-15.11,17.52-32.98C116.72,186.12,108.69,171.02,99.19,171.02z"/>
	</g>
	<path class="st1" d="M104.97,204c0,5.71-2.59,10.36-5.78,10.36c-3.2,0-5.77-4.65-5.77-10.36c0-5.73,2.57-10.37,5.77-10.37
		C102.39,193.62,104.97,198.26,104.97,204z"/>
	<g class="st1">
		<g>
			<path d="M182.4,240.89h-19.48c-12.02,0-21.44-16.21-21.44-36.89c0-20.69,9.42-36.89,21.44-36.89h19.48
				c1.08,0,1.95,0.87,1.95,1.95c0,1.07-0.88,1.95-1.95,1.95c-9.5,0-17.52,15.1-17.52,32.98c0,17.87,8.03,32.98,17.52,32.98
				c1.08,0,1.95,0.87,1.95,1.95C184.35,240.01,183.48,240.89,182.4,240.89z M162.92,171.02c-9.5,0-17.53,15.1-17.53,32.98
				c0,17.87,8.03,32.98,17.53,32.98h9.72c-6.99-6.02-11.68-18.38-11.68-32.98c0-14.6,4.69-26.97,11.68-32.98L162.92,171.02
				L162.92,171.02z"/>
		</g>
		<g>
			<polygon points="182.4,238.93 182.44,238.93 182.44,238.93 			"/>
			<path d="M182.44,240.89h-0.04c-1.08,0-1.95-0.88-1.95-1.95c0-0.98,0.72-1.79,1.65-1.93c1.23-0.21,2.31,0.73,2.31,1.92
				C184.4,240.01,183.52,240.89,182.44,240.89z"/>
		</g>
	</g>
	<g class="st1">
		<g>
			<path d="M99.19,240.89H79.71c-12.02,0-21.44-16.21-21.44-36.89c0-20.69,9.42-36.89,21.44-36.89h19.48c1.08,0,1.95,0.87,1.95,1.95
				c0,1.07-0.88,1.95-1.95,1.95c-9.5,0-17.52,15.1-17.52,32.98c0,17.87,8.03,32.98,17.52,32.98c1.08,0,1.95,0.87,1.95,1.95
				C101.15,240.01,100.28,240.89,99.19,240.89z M79.71,171.02c-9.5,0-17.53,15.1-17.53,32.98c0,17.87,8.03,32.98,17.53,32.98h9.72
				c-6.99-6.02-11.68-18.38-11.68-32.98c0-14.6,4.69-26.97,11.68-32.98L79.71,171.02L79.71,171.02z"/>
		</g>
		<g>
			<polygon points="99.19,238.93 99.24,238.93 99.24,238.93 			"/>
			<path d="M99.24,240.89h-0.04c-1.08,0-1.95-0.88-1.95-1.95c0-0.98,0.71-1.78,1.64-1.93c1.23-0.24,2.31,0.73,2.31,1.92
				C101.19,240.01,100.31,240.89,99.24,240.89z"/>
		</g>
	</g>
</g>
<g class="st0">
	<path class="st1" d="M130.34,166.29c-2.17,0-6.27-0.96-6.27-4.6c0-1.31-0.72-2.06-1.72-3.09c-1.53-1.59-3.44-3.56-3.44-8.26V63.29
		c0-0.45,0.49-0.81,1.1-0.81h20.65c0.61,0,1.1,0.36,1.1,0.81v87.05c0,4.69-1.9,6.66-3.44,8.25c-1,1.04-1.72,1.79-1.72,3.1
		C136.6,165.33,132.5,166.29,130.34,166.29z M121.11,64.1v86.24c0,4.18,1.61,5.85,3.04,7.33c1.09,1.13,2.13,2.2,2.13,4.02
		c0,2.86,3.62,2.98,4.07,2.99c0.44-0.01,4.06-0.12,4.06-2.99c0-1.82,1.03-2.89,2.12-4.03c1.42-1.47,3.04-3.15,3.04-7.32V64.1H121.11
		z"/>
	<g class="st1">
		<path d="M140.82,66.39h-18.34c-2.63,0-6.54-1.74-6.54-6.54V26.82c-2.96-3.63-4.58-8.15-4.58-12.82c0-11.19,9.1-20.3,20.29-20.3
			c11.19,0,20.29,9.1,20.29,20.3c0,4.67-1.62,9.19-4.58,12.81v33.03C147.37,64.65,143.45,66.39,140.82,66.39z M131.65-2.38
			c-9.03,0-16.38,7.35-16.38,16.39c0,3.97,1.45,7.81,4.09,10.82c0.31,0.36,0.49,0.81,0.49,1.29v33.75c0,2.44,2.02,2.63,2.63,2.63
			h18.33c0.8-0.02,2.65-0.31,2.65-2.63V26.1c0-0.48,0.18-0.93,0.49-1.29c2.64-3,4.09-6.84,4.09-10.8
			C148.04,4.97,140.69-2.38,131.65-2.38z"/>
	</g>
	<g class="st1">
		<path d="M131.18-17.16c-0.54,0-0.98-0.44-0.98-0.98v-26.71c0-0.54,0.44-0.98,0.98-0.98c0.54,0,0.98,0.44,0.98,0.98v26.71
			C132.15-17.6,131.72-17.16,131.18-17.16z"/>
		<path d="M131.17-43.87c-3.78,0-6.86-3.08-6.86-6.88c0-3.78,3.08-6.86,6.86-6.86c3.79,0,6.87,3.08,6.87,6.86
			C138.04-46.95,134.96-43.87,131.17-43.87z M131.17-55.66c-2.71,0-4.91,2.2-4.91,4.91c0,2.71,2.2,4.92,4.91,4.92
			c2.71,0,4.91-2.2,4.91-4.92C136.08-53.45,133.88-55.66,131.17-55.66z"/>
	</g>
	<g class="st1">
		<path d="M80.81,154.88c-5.5,0-15.91-3.33-15.91-15.91V69.21c0-12.58,10.41-15.91,15.91-15.91c12.58,0,15.9,10.41,15.9,15.91v69.76
			C96.71,151.55,86.31,154.88,80.81,154.88z M80.81,57.21c-1.22,0.01-12,0.41-12,12v69.76c0,11.82,11.43,12,11.99,12
			c1.23-0.01,12-0.41,12-12V69.21C92.79,67.98,92.39,57.21,80.81,57.21z"/>
	</g>
	<g class="st1">
		<path d="M182.11,154.88c-5.5,0-15.9-3.33-15.9-15.91V69.21c0-12.58,10.4-15.91,15.9-15.91c12.58,0,15.9,10.41,15.9,15.91v69.76
			C198.01,151.55,187.61,154.88,182.11,154.88z M182.11,57.21c-1.22,0.01-11.99,0.41-11.99,12v69.76c0,11.82,11.43,12,11.98,12
			c1.24-0.01,12-0.41,12-12V69.21C194.09,67.98,193.69,57.21,182.11,57.21z"/>
	</g>
	<g class="st1">
		<path d="M182.34,246.47c-12.02,0-21.43-16.21-21.43-36.89c0-20.69,9.41-36.89,21.43-36.89c12.02,0,21.43,16.2,21.43,36.89
			C203.77,230.27,194.36,246.47,182.34,246.47z M182.34,176.6c-9.5,0-17.52,15.1-17.52,32.98c0,17.87,8.03,32.98,17.52,32.98
			c9.49,0,17.52-15.11,17.52-32.98C199.86,191.71,191.83,176.6,182.34,176.6z"/>
	</g>
	<ellipse class="st1" cx="182.35" cy="209.59" rx="5.77" ry="10.36"/>
	<g class="st1">
		<path d="M99.13,246.47c-12.02,0-21.43-16.21-21.43-36.89c0-20.69,9.41-36.89,21.43-36.89c12.02,0,21.43,16.2,21.43,36.89
			C120.57,230.27,111.15,246.47,99.13,246.47z M99.13,176.6c-9.5,0-17.52,15.1-17.52,32.98c0,17.87,8.03,32.98,17.52,32.98
			c9.5,0,17.52-15.11,17.52-32.98C116.66,191.71,108.63,176.6,99.13,176.6z"/>
	</g>
	<ellipse class="st1" cx="99.14" cy="209.59" rx="5.78" ry="10.36"/>
	<g class="st1">
		<g>
			<path d="M182.34,246.47h-19.47c-12.02,0-21.44-16.21-21.44-36.89c0-20.69,9.42-36.89,21.44-36.89h19.47
				c1.08,0,1.95,0.87,1.95,1.95c0,1.07-0.88,1.95-1.95,1.95c-9.5,0-17.52,15.1-17.52,32.98c0,17.87,8.03,32.98,17.52,32.98
				c1.08,0,1.95,0.87,1.95,1.95C184.29,245.6,183.42,246.47,182.34,246.47z M162.86,176.6c-9.5,0-17.53,15.1-17.53,32.98
				c0,17.87,8.03,32.98,17.53,32.98h9.72c-6.99-6.02-11.67-18.38-11.67-32.98c0-14.6,4.69-26.97,11.67-32.98L162.86,176.6
				L162.86,176.6z"/>
		</g>
		<g>
			<polygon points="182.34,244.52 182.38,244.52 182.38,244.52 			"/>
			<path d="M182.38,246.47h-0.05c-1.08,0-1.95-0.88-1.95-1.95c0-1.08,0.88-1.95,1.95-1.95s1.98,0.87,1.98,1.95
				C184.32,245.6,183.47,246.47,182.38,246.47z"/>
		</g>
	</g>
	<g class="st1">
		<g>
			<path d="M99.13,246.47H79.66c-12.02,0-21.44-16.21-21.44-36.89c0-20.69,9.42-36.89,21.44-36.89h19.47c1.08,0,1.95,0.87,1.95,1.95
				c0,1.07-0.88,1.95-1.95,1.95c-9.5,0-17.52,15.1-17.52,32.98c0,17.87,8.03,32.98,17.52,32.98c1.08,0,1.95,0.87,1.95,1.95
				C101.09,245.6,100.21,246.47,99.13,246.47z M79.66,176.6c-9.5,0-17.53,15.1-17.53,32.98c0,17.87,8.03,32.98,17.53,32.98h9.72
				c-6.99-6.02-11.67-18.38-11.67-32.98c0-14.6,4.69-26.97,11.67-32.98L79.66,176.6L79.66,176.6z"/>
		</g>
		<g>
			<polygon points="99.13,244.52 99.18,244.52 99.18,244.52 			"/>
			<path d="M99.18,246.47h-0.05c-1.08,0-1.95-0.88-1.95-1.95c0-1.08,0.88-1.95,1.95-1.95s1.98,0.87,1.98,1.95
				C101.11,245.6,100.26,246.47,99.18,246.47z"/>
		</g>
	</g>
</g>
<g class="st0">
	<g class="st1">
		<g>
			<path d="M160.61,137.43H99.07c-0.54,0-0.98-0.44-0.98-0.98c0-0.54,0.44-0.98,0.98-0.98h61.54c0.54,0,0.98,0.44,0.98,0.98
				C161.59,136.99,161.15,137.43,160.61,137.43z"/>
			<g>
				<path d="M129.85,128.03c-0.54,0-0.98-0.43-0.98-0.98V97.43c0-0.54,0.44-0.98,0.98-0.98c0.54,0,0.98,0.44,0.98,0.98v29.61
					C130.82,127.59,130.39,128.03,129.85,128.03z"/>
				<path d="M139.71,108.29c-0.25,0-0.5-0.09-0.69-0.29l-9.18-9.19l-9.19,9.19c-0.38,0.38-1,0.38-1.38,0c-0.38-0.38-0.38-1,0-1.38
					l9.87-9.87c0.18-0.18,0.43-0.29,0.69-0.29l0,0c0.26,0,0.51,0.1,0.69,0.29l9.87,9.87c0.38,0.38,0.38,1,0,1.38
					C140.21,108.19,139.97,108.29,139.71,108.29z"/>
			</g>
		</g>
		<g>
			<path d="M156.3,87.36c-0.54,0-1.08-0.23-1.47-0.66c-0.08-0.09-8.18-9.1-23.92-9.1c-15.76,0-23.86,9.01-23.93,9.1
				c-0.71,0.81-1.94,0.9-2.76,0.18c-0.81-0.71-0.9-1.93-0.2-2.75c0.37-0.43,9.26-10.44,26.89-10.44c17.61,0,26.5,10.01,26.87,10.44
				c0.71,0.81,0.62,2.04-0.19,2.75C157.21,87.2,156.76,87.36,156.3,87.36z"/>
			<path d="M166.88,74.66c-0.54,0-1.07-0.22-1.46-0.65c-0.11-0.13-11.79-12.64-34.52-12.64c-22.75,0-34.41,12.51-34.53,12.64
				c-0.72,0.81-1.95,0.88-2.76,0.16c-0.81-0.72-0.89-1.95-0.16-2.75c0.51-0.57,12.86-13.95,37.45-13.95
				c24.57,0,36.93,13.38,37.44,13.95c0.72,0.81,0.64,2.04-0.16,2.76C167.8,74.5,167.34,74.66,166.88,74.66z"/>
			<path d="M177.46,61.96c-0.54,0-1.06-0.22-1.45-0.64c-0.15-0.16-15.39-16.18-45.11-16.18c-29.72,0-44.97,16.02-45.12,16.18
				c-0.73,0.8-1.96,0.86-2.76,0.13c-0.8-0.73-0.86-1.96-0.14-2.76c0.65-0.72,16.47-17.46,48.02-17.46c31.54,0,47.35,16.75,48,17.46
				c0.73,0.8,0.66,2.03-0.13,2.76C178.4,61.79,177.93,61.96,177.46,61.96z"/>
			<path d="M188.04,49.26c-0.53,0-1.05-0.21-1.43-0.63c-0.18-0.2-19-19.72-55.71-19.72S75.37,48.44,75.18,48.64
				c-0.74,0.78-1.97,0.84-2.76,0.1c-0.79-0.73-0.84-1.97-0.11-2.76C73.12,45.12,92.4,25,130.9,25c38.51,0,57.77,20.12,58.57,20.98
				c0.73,0.79,0.68,2.03-0.1,2.76C188.99,49.09,188.52,49.26,188.04,49.26z"/>
			<path d="M198.62,36.56c-0.52,0-1.04-0.2-1.42-0.61c-0.22-0.23-22.61-23.26-66.3-23.26c-43.68,0-66.09,23.03-66.31,23.27
				c-0.74,0.78-1.98,0.81-2.76,0.07c-0.78-0.74-0.82-1.97-0.08-2.76c0.95-1,23.69-24.49,69.15-24.49c45.47,0,68.2,23.48,69.14,24.49
				c0.74,0.79,0.71,2.02-0.08,2.76C199.59,36.38,199.11,36.56,198.62,36.56z"/>
		</g>
	</g>
	<g class="st1">
		<path d="M41.86,143.85c-5.5,0-15.91-3.33-15.91-15.91V58.19c0-12.59,10.41-15.91,15.91-15.91c12.58,0,15.9,10.41,15.9,15.91v69.75
			C57.76,140.53,47.36,143.85,41.86,143.85z M41.86,46.19c-1.22,0.01-12,0.41-12,12v69.75c0,11.82,11.43,12,11.99,12
			c1.23-0.01,12-0.41,12-12V58.19C53.85,56.97,53.44,46.19,41.86,46.19z"/>
	</g>
	<g class="st1">
		<path d="M220.14,143.38c-5.5,0-15.91-3.33-15.91-15.91V57.71c0-12.59,10.41-15.91,15.91-15.91c12.58,0,15.9,10.41,15.9,15.91
			v69.76C236.04,140.05,225.64,143.38,220.14,143.38z M220.14,45.71c-1.22,0.01-12,0.41-12,12v69.76c0,11.82,11.44,11.99,11.99,12
			c1.23-0.01,11.99-0.41,11.99-12V57.71C232.12,56.49,231.73,45.71,220.14,45.71z"/>
	</g>
	<path class="st1" d="M130.75,0.79c-0.54,0-0.98-0.44-0.98-0.98v-26.71c0-0.54,0.44-0.98,0.98-0.98c0.54,0,0.98,0.44,0.98,0.98
		v26.71C131.73,0.36,131.29,0.79,130.75,0.79z"/>
	<path class="st1" d="M130.75-25.92c-3.79,0-6.87-3.08-6.87-6.87c0-3.78,3.08-6.86,6.87-6.86c3.78,0,6.86,3.08,6.86,6.86
		C137.61-29,134.53-25.92,130.75-25.92z M130.75-37.7c-2.71,0-4.92,2.2-4.92,4.91s2.2,4.92,4.92,4.92c2.71,0,4.91-2.2,4.91-4.92
		C135.65-35.49,133.45-37.7,130.75-37.7z"/>
	<g class="st1">
		<path d="M180.49,228.52c-12.02,0-21.43-16.2-21.43-36.89c0-20.68,9.42-36.89,21.43-36.89c12.02,0,21.43,16.21,21.43,36.89
			C201.92,212.32,192.51,228.52,180.49,228.52z M180.49,158.65c-9.5,0-17.52,15.1-17.52,32.98c0,17.88,8.03,32.98,17.52,32.98
			s17.52-15.1,17.52-32.98C198.01,173.76,189.99,158.65,180.49,158.65z"/>
	</g>
	<ellipse class="st1" cx="180.5" cy="191.63" rx="5.78" ry="10.36"/>
	<g class="st1">
		<path d="M97.29,228.52c-12.02,0-21.44-16.2-21.44-36.89c0-20.68,9.42-36.89,21.44-36.89c12.02,0,21.42,16.21,21.42,36.89
			C118.71,212.32,109.3,228.52,97.29,228.52z M97.29,158.65c-9.5,0-17.53,15.1-17.53,32.98c0,17.88,8.03,32.98,17.53,32.98
			c9.49,0,17.52-15.1,17.52-32.98C114.8,173.76,106.78,158.65,97.29,158.65z"/>
	</g>
	<ellipse class="st1" cx="97.29" cy="191.63" rx="5.78" ry="10.36"/>
	<g class="st1">
		<g>
			<path d="M180.49,228.52h-19.48c-12.02,0-21.44-16.2-21.44-36.89c0-20.68,9.42-36.89,21.44-36.89h19.48
				c1.08,0,1.95,0.88,1.95,1.95s-0.88,1.95-1.95,1.95c-9.5,0-17.52,15.1-17.52,32.98c0,17.88,8.03,32.98,17.52,32.98
				c1.08,0,1.95,0.88,1.95,1.95C182.45,227.65,181.57,228.52,180.49,228.52z M161.01,158.65c-9.5,0-17.53,15.1-17.53,32.98
				c0,17.88,8.03,32.98,17.53,32.98h9.72c-6.99-6.01-11.68-18.38-11.68-32.98c0-14.6,4.69-26.96,11.68-32.98H161.01z"/>
		</g>
		<g>
			<polygon points="180.49,226.57 180.53,226.57 180.53,226.56 			"/>
			<path d="M180.53,228.52h-0.04c-1.08,0-1.95-0.87-1.95-1.95c0-0.97,0.72-1.78,1.65-1.93c1.23-0.21,2.31,0.73,2.31,1.93
				C182.49,227.64,181.61,228.52,180.53,228.52z"/>
		</g>
	</g>
	<g class="st1">
		<g>
			<path d="M97.29,228.52H77.8c-12.02,0-21.44-16.2-21.44-36.89c0-20.68,9.42-36.89,21.44-36.89h19.48c1.08,0,1.95,0.88,1.95,1.95
				s-0.88,1.95-1.95,1.95c-9.5,0-17.53,15.1-17.53,32.98c0,17.88,8.03,32.98,17.53,32.98c1.08,0,1.95,0.88,1.95,1.95
				C99.24,227.65,98.36,228.52,97.29,228.52z M77.8,158.65c-9.5,0-17.53,15.1-17.53,32.98c0,17.88,8.03,32.98,17.53,32.98h9.72
				c-6.99-6.01-11.68-18.38-11.68-32.98c0-14.6,4.69-26.96,11.68-32.98H77.8z"/>
		</g>
		<g>
			<polygon points="97.29,226.57 97.33,226.57 97.33,226.56 			"/>
			<path d="M97.33,228.52h-0.04c-1.08,0-1.95-0.87-1.95-1.95c0-0.97,0.71-1.78,1.64-1.92c1.24-0.24,2.31,0.73,2.31,1.92
				C99.28,227.64,98.41,228.52,97.33,228.52z"/>
		</g>
	</g>
</g>
<g class="st0">
	<path class="st1" d="M160.61,137.43H99.07c-0.54,0-0.98-0.44-0.98-0.98c0-0.54,0.44-0.98,0.98-0.98h61.54
		c0.54,0,0.98,0.44,0.98,0.98C161.59,136.99,161.15,137.43,160.61,137.43z"/>
	<g class="st1">
		<path d="M129.84,96.46c0.54,0,0.98,0.43,0.98,0.98v29.61c0,0.54-0.44,0.98-0.98,0.98c-0.54,0-0.98-0.44-0.98-0.98V97.43
			C128.87,96.89,129.3,96.46,129.84,96.46z"/>
		<path d="M119.97,116.19c0.25,0,0.5,0.09,0.69,0.29l9.18,9.19l9.18-9.19c0.38-0.38,1-0.38,1.38,0c0.38,0.38,0.38,1,0,1.38
			l-9.87,9.87c-0.18,0.18-0.43,0.29-0.69,0.29l0,0c-0.26,0-0.51-0.1-0.69-0.29l-9.87-9.87c-0.38-0.38-0.38-1,0-1.38
			C119.47,116.29,119.72,116.19,119.97,116.19z"/>
	</g>
	<g class="st1">
		<path d="M156.3,87.36c-0.54,0-1.08-0.23-1.47-0.66c-0.08-0.09-8.18-9.1-23.92-9.1c-15.76,0-23.86,9.01-23.93,9.1
			c-0.71,0.81-1.94,0.9-2.76,0.18c-0.81-0.71-0.9-1.93-0.2-2.75c0.37-0.43,9.26-10.44,26.89-10.44c17.61,0,26.5,10.01,26.87,10.44
			c0.71,0.81,0.62,2.04-0.19,2.75C157.21,87.2,156.76,87.36,156.3,87.36z"/>
		<path d="M166.88,74.66c-0.54,0-1.07-0.22-1.46-0.65c-0.11-0.13-11.79-12.64-34.52-12.64c-22.75,0-34.41,12.51-34.53,12.64
			c-0.72,0.81-1.95,0.88-2.76,0.16c-0.81-0.72-0.89-1.95-0.16-2.75c0.51-0.57,12.86-13.95,37.45-13.95
			c24.57,0,36.93,13.38,37.44,13.95c0.72,0.81,0.64,2.04-0.16,2.76C167.8,74.5,167.34,74.66,166.88,74.66z"/>
		<path d="M177.46,61.96c-0.54,0-1.06-0.22-1.45-0.64c-0.15-0.16-15.39-16.18-45.11-16.18c-29.72,0-44.97,16.02-45.12,16.18
			c-0.73,0.8-1.96,0.86-2.76,0.13c-0.8-0.73-0.86-1.96-0.14-2.76c0.65-0.72,16.47-17.46,48.02-17.46c31.54,0,47.35,16.75,48,17.46
			c0.73,0.8,0.66,2.03-0.13,2.76C178.4,61.79,177.93,61.96,177.46,61.96z"/>
		<path d="M188.04,49.26c-0.53,0-1.05-0.21-1.43-0.63c-0.18-0.2-19-19.72-55.71-19.72S75.37,48.44,75.18,48.64
			c-0.74,0.78-1.97,0.84-2.76,0.1c-0.79-0.73-0.84-1.97-0.11-2.76C73.12,45.12,92.4,25,130.9,25c38.51,0,57.77,20.12,58.57,20.98
			c0.73,0.79,0.68,2.03-0.1,2.76C188.99,49.09,188.52,49.26,188.04,49.26z"/>
		<path d="M198.62,36.56c-0.52,0-1.04-0.2-1.42-0.61c-0.22-0.23-22.61-23.26-66.3-23.26c-43.68,0-66.09,23.03-66.31,23.27
			c-0.74,0.78-1.98,0.81-2.76,0.07c-0.78-0.74-0.82-1.97-0.08-2.76c0.95-1,23.69-24.49,69.15-24.49c45.47,0,68.2,23.48,69.14,24.49
			c0.74,0.79,0.71,2.02-0.08,2.76C199.59,36.38,199.11,36.56,198.62,36.56z"/>
	</g>
	<g class="st1">
		<path d="M41.86,143.85c-5.5,0-15.91-3.33-15.91-15.91V58.19c0-12.59,10.41-15.91,15.91-15.91c12.58,0,15.9,10.41,15.9,15.91v69.75
			C57.76,140.53,47.36,143.85,41.86,143.85z M41.86,46.19c-1.22,0.01-12,0.41-12,12v69.75c0,11.82,11.43,12,11.99,12
			c1.23-0.01,12-0.41,12-12V58.19C53.85,56.97,53.44,46.19,41.86,46.19z"/>
	</g>
	<g class="st1">
		<path d="M220.14,143.38c-5.5,0-15.91-3.33-15.91-15.91V57.71c0-12.59,10.41-15.91,15.91-15.91c12.58,0,15.9,10.41,15.9,15.91
			v69.76C236.04,140.05,225.64,143.38,220.14,143.38z M220.14,45.71c-1.22,0.01-12,0.41-12,12v69.76c0,11.82,11.44,11.99,11.99,12
			c1.23-0.01,11.99-0.41,11.99-12V57.71C232.12,56.49,231.73,45.71,220.14,45.71z"/>
	</g>
	<path class="st1" d="M130.75,0.79c-0.54,0-0.98-0.44-0.98-0.98v-26.71c0-0.54,0.44-0.98,0.98-0.98c0.54,0,0.98,0.44,0.98,0.98
		v26.71C131.73,0.36,131.29,0.79,130.75,0.79z"/>
	<path class="st1" d="M130.75-25.92c-3.79,0-6.87-3.08-6.87-6.87c0-3.78,3.08-6.86,6.87-6.86c3.78,0,6.86,3.08,6.86,6.86
		C137.61-29,134.53-25.92,130.75-25.92z M130.75-37.7c-2.71,0-4.92,2.2-4.92,4.91s2.2,4.92,4.92,4.92c2.71,0,4.91-2.2,4.91-4.92
		C135.65-35.49,133.45-37.7,130.75-37.7z"/>
	<g class="st1">
		<path d="M180.49,228.52c-12.02,0-21.43-16.2-21.43-36.89c0-20.68,9.42-36.89,21.43-36.89c12.02,0,21.43,16.21,21.43,36.89
			C201.92,212.32,192.51,228.52,180.49,228.52z M180.49,158.65c-9.5,0-17.52,15.1-17.52,32.98c0,17.88,8.03,32.98,17.52,32.98
			s17.52-15.1,17.52-32.98C198.01,173.76,189.99,158.65,180.49,158.65z"/>
	</g>
	<ellipse class="st1" cx="180.5" cy="191.63" rx="5.78" ry="10.36"/>
	<g class="st1">
		<path d="M97.29,228.52c-12.02,0-21.44-16.2-21.44-36.89c0-20.68,9.42-36.89,21.44-36.89c12.02,0,21.42,16.21,21.42,36.89
			C118.71,212.32,109.3,228.52,97.29,228.52z M97.29,158.65c-9.5,0-17.53,15.1-17.53,32.98c0,17.88,8.03,32.98,17.53,32.98
			c9.49,0,17.52-15.1,17.52-32.98C114.8,173.76,106.78,158.65,97.29,158.65z"/>
	</g>
	<ellipse class="st1" cx="97.29" cy="191.63" rx="5.78" ry="10.36"/>
	<g class="st1">
		<g>
			<path d="M180.49,228.52h-19.48c-12.02,0-21.44-16.2-21.44-36.89c0-20.68,9.42-36.89,21.44-36.89h19.48
				c1.08,0,1.95,0.88,1.95,1.95s-0.88,1.95-1.95,1.95c-9.5,0-17.52,15.1-17.52,32.98c0,17.88,8.03,32.98,17.52,32.98
				c1.08,0,1.95,0.88,1.95,1.95C182.45,227.65,181.57,228.52,180.49,228.52z M161.01,158.65c-9.5,0-17.53,15.1-17.53,32.98
				c0,17.88,8.03,32.98,17.53,32.98h9.72c-6.99-6.01-11.68-18.38-11.68-32.98c0-14.6,4.69-26.96,11.68-32.98H161.01z"/>
		</g>
		<g>
			<polygon points="180.49,226.57 180.53,226.57 180.53,226.56 			"/>
			<path d="M180.53,228.52h-0.04c-1.08,0-1.95-0.87-1.95-1.95c0-0.97,0.72-1.78,1.65-1.93c1.23-0.21,2.31,0.73,2.31,1.93
				C182.49,227.64,181.61,228.52,180.53,228.52z"/>
		</g>
	</g>
	<g class="st1">
		<g>
			<path d="M97.29,228.52H77.8c-12.02,0-21.44-16.2-21.44-36.89c0-20.68,9.42-36.89,21.44-36.89h19.48c1.08,0,1.95,0.88,1.95,1.95
				s-0.88,1.95-1.95,1.95c-9.5,0-17.53,15.1-17.53,32.98c0,17.88,8.03,32.98,17.53,32.98c1.08,0,1.95,0.88,1.95,1.95
				C99.24,227.65,98.36,228.52,97.29,228.52z M77.8,158.65c-9.5,0-17.53,15.1-17.53,32.98c0,17.88,8.03,32.98,17.53,32.98h9.72
				c-6.99-6.01-11.68-18.38-11.68-32.98c0-14.6,4.69-26.96,11.68-32.98H77.8z"/>
		</g>
		<g>
			<polygon points="97.29,226.57 97.33,226.57 97.33,226.56 			"/>
			<path d="M97.33,228.52h-0.04c-1.08,0-1.95-0.87-1.95-1.95c0-0.97,0.71-1.78,1.64-1.92c1.24-0.24,2.31,0.73,2.31,1.92
				C99.28,227.64,98.41,228.52,97.33,228.52z"/>
		</g>
	</g>
</g>
<g class="st0">
	<g class="st1">
		<path d="M131.04,162.45c-19.83,0-35.37-7.15-35.37-16.28V7.75c0-1.08,0.88-1.95,1.95-1.95c1.08,0,1.95,0.88,1.95,1.95
			c0,5.86,12.92,12.38,31.46,12.38c18.55,0,31.47-6.52,31.47-12.38c0-1.08,0.88-1.95,1.95-1.95s1.95,0.88,1.95,1.95v138.42
			C166.42,155.29,150.88,162.45,131.04,162.45z M99.58,15.31v130.86c0,5.86,12.92,12.38,31.46,12.38c18.55,0,31.47-6.52,31.47-12.38
			V15.31c-5.82,5.23-17.6,8.72-31.47,8.72C117.17,24.04,105.4,20.54,99.58,15.31z"/>
	</g>
	<g class="st1">
		<path d="M131.49,67.54c-16.81,0-34.2-4.51-34.2-12.05c0-7.55,17.39-12.06,34.2-12.06c16.81,0,34.19,4.51,34.19,12.06
			C165.68,63.03,148.3,67.54,131.49,67.54z M131.49,45.39c-19.01,0-32.25,5.32-32.25,10.1c0,4.88,12.96,10.1,32.25,10.1
			c19.29,0,32.24-5.22,32.24-10.1C163.73,50.71,150.49,45.39,131.49,45.39z"/>
	</g>
	<g class="st1">
		<path d="M71.17,151.01c-5.5,0-15.91-3.33-15.91-15.91V65.35c0-12.59,10.41-15.91,15.91-15.91c12.58,0,15.9,10.41,15.9,15.91v69.75
			C87.07,147.68,76.67,151.01,71.17,151.01z M71.17,53.35c-1.22,0.01-12,0.41-12,12v69.75c0,11.82,11.44,12,12,12
			c1.23-0.01,12-0.41,12-12V65.35C83.15,64.13,82.75,53.35,71.17,53.35z"/>
	</g>
	<g class="st1">
		<path d="M190.84,151.03c-5.5,0-15.9-3.33-15.9-15.91V65.37c0-12.59,10.4-15.91,15.9-15.91c12.58,0,15.9,10.41,15.9,15.91v69.75
			C206.74,147.7,196.34,151.03,190.84,151.03z M190.84,53.36c-1.22,0.01-11.99,0.41-11.99,12v69.75c0,11.82,11.43,12,11.98,12
			c1.23-0.01,11.99-0.41,11.99-12V65.37C202.82,64.14,202.42,53.36,190.84,53.36z"/>
	</g>
	<path class="st1" d="M131.16-19.73c-0.54,0-0.98-0.44-0.98-0.98v-26.71c0-0.54,0.44-0.98,0.98-0.98c0.54,0,0.98,0.44,0.98,0.98
		v26.71C132.14-20.17,131.7-19.73,131.16-19.73z"/>
	<path class="st1" d="M131.16-46.44c-3.79,0-6.87-3.08-6.87-6.88c0-3.78,3.08-6.86,6.87-6.86c3.78,0,6.86,3.08,6.86,6.86
		C138.02-49.52,134.94-46.44,131.16-46.44z M131.16-58.22c-2.71,0-4.91,2.2-4.91,4.91c0,2.71,2.2,4.92,4.91,4.92
		c2.71,0,4.91-2.2,4.91-4.92C136.07-56.02,133.86-58.22,131.16-58.22z"/>
	<g class="st1">
		<path d="M182.27,249.04c-12.02,0-21.44-16.2-21.44-36.89c0-20.68,9.42-36.89,21.44-36.89c12.01,0,21.42,16.21,21.42,36.89
			C203.69,232.83,194.28,249.04,182.27,249.04z M182.27,179.16c-9.5,0-17.53,15.11-17.53,32.98c0,17.88,8.03,32.98,17.53,32.98
			c9.49,0,17.52-15.1,17.52-32.98C199.79,194.27,191.76,179.16,182.27,179.16z"/>
	</g>
	<path class="st1" d="M188.04,212.14c0,5.72-2.59,10.36-5.78,10.36c-3.2,0-5.78-4.64-5.78-10.36c0-5.73,2.57-10.37,5.78-10.37
		C185.45,201.78,188.04,206.42,188.04,212.14z"/>
	<g class="st1">
		<path d="M99.06,249.04c-12.02,0-21.43-16.2-21.43-36.89c0-20.68,9.42-36.89,21.43-36.89s21.43,16.21,21.43,36.89
			C120.49,232.83,111.07,249.04,99.06,249.04z M99.06,179.16c-9.5,0-17.52,15.11-17.52,32.98c0,17.88,8.03,32.98,17.52,32.98
			s17.52-15.1,17.52-32.98C116.58,194.27,108.55,179.16,99.06,179.16z"/>
	</g>
	<ellipse class="st1" cx="99.06" cy="212.14" rx="5.77" ry="10.36"/>
	<g class="st1">
		<g>
			<path d="M182.27,249.04h-19.48c-12.02,0-21.44-16.2-21.44-36.89c0-20.68,9.42-36.89,21.44-36.89h19.48
				c1.08,0,1.95,0.88,1.95,1.95c0,1.08-0.88,1.95-1.95,1.95c-9.5,0-17.53,15.11-17.53,32.98c0,17.88,8.03,32.98,17.53,32.98
				c1.08,0,1.95,0.88,1.95,1.95C184.22,248.16,183.35,249.04,182.27,249.04z M162.78,179.16c-9.5,0-17.53,15.11-17.53,32.98
				c0,17.88,8.03,32.98,17.53,32.98h9.72c-6.99-6.01-11.68-18.38-11.68-32.98c0-14.6,4.69-26.96,11.68-32.98L162.78,179.16
				L162.78,179.16z"/>
		</g>
		<g>
			<polygon points="182.27,247.08 182.3,247.08 182.3,247.08 			"/>
			<path d="M182.3,249.04h-0.04c-1.08,0-1.95-0.87-1.95-1.95c0-1.04,0.82-1.89,1.85-1.95c0.04-0.01,0.07,0,0.11-0.01
				c1.08,0,1.97,0.88,1.97,1.95C184.24,248.16,183.38,249.04,182.3,249.04z"/>
		</g>
	</g>
	<g class="st1">
		<g>
			<path d="M99.06,249.04H79.58c-12.02,0-21.44-16.2-21.44-36.89c0-20.68,9.42-36.89,21.44-36.89h19.48c1.08,0,1.95,0.88,1.95,1.95
				c0,1.08-0.88,1.95-1.95,1.95c-9.5,0-17.52,15.11-17.52,32.98c0,17.88,8.03,32.98,17.52,32.98c1.08,0,1.95,0.88,1.95,1.95
				C101.01,248.16,100.13,249.04,99.06,249.04z M79.58,179.16c-9.5,0-17.53,15.11-17.53,32.98c0,17.88,8.03,32.98,17.53,32.98h9.72
				c-6.99-6.01-11.68-18.38-11.68-32.98c0-14.6,4.69-26.96,11.68-32.98L79.58,179.16L79.58,179.16z"/>
		</g>
		<g>
			<polygon points="99.06,247.08 99.1,247.08 99.1,247.08 			"/>
			<path d="M99.1,249.04h-0.04c-1.08,0-1.95-0.87-1.95-1.95c0-1.07,0.88-1.95,1.95-1.95s1.97,0.88,1.97,1.95
				C101.03,248.16,100.18,249.04,99.1,249.04z"/>
		</g>
	</g>
	<g class="st1">
		<path d="M131.04,24.04c-19.83,0-35.37-7.15-35.37-16.28c0-6.59,8-12.29,20.88-14.88c1.06-0.22,2.09,0.47,2.3,1.53
			s-0.47,2.09-1.53,2.3C106.7-1.17,99.57,3.27,99.57,7.75c0,5.86,12.92,12.38,31.46,12.38c18.55,0,31.47-6.52,31.47-12.38
			c0-4.48-7.13-8.91-17.74-11.04c-1.06-0.21-1.74-1.24-1.53-2.3c0.21-1.06,1.26-1.74,2.3-1.53c12.88,2.58,20.88,8.28,20.88,14.87
			C166.42,16.88,150.88,24.04,131.04,24.04z"/>
	</g>
	<g class="st1">
		<path d="M131.16,14.26c-14.84,0-15.4-5.82-15.42-6.49V-4.17c0-0.54,0.44-0.98,0.98-0.98s0.98,0.44,0.98,0.98
			C117.7-3.93,118,2,131.04,2c13,0,13.34-5.89,13.35-6.18c0-0.54,0.44-0.97,0.98-0.97c0.53,0,0.97,0.43,0.98,0.96l0,0l0,0l0,0l0,0
			l0,0l0,0l0,0l0,0v0c0,0,0,0,0,0V7.74c0,0.13-0.01,1.48-1.41,2.92C142.6,13.06,137.97,14.26,131.16,14.26z M117.7,7.75
			c0,0,0.52,4.56,13.46,4.56c12.92,0,13.23-4.52,13.23-4.56v-7.76c-1.93,2-5.75,3.96-13.35,3.96c-7.59,0-11.41-1.96-13.34-3.96V7.75
			L117.7,7.75z"/>
	</g>
	<g class="st1">
		<path d="M131.04,3.95c-8.58,0-15.3-3.57-15.3-8.12c0-4.57,6.72-8.14,15.3-8.14c8.58,0,15.3,3.58,15.3,8.14
			C146.34,0.38,139.62,3.95,131.04,3.95z M131.04-10.36c-7.98,0-13.34,3.2-13.34,6.19c0,3.34,6.11,6.17,13.34,6.17
			c7.24,0,13.35-2.83,13.35-6.17C144.39-7.16,139.02-10.36,131.04-10.36z"/>
	</g>
</g>
<g class="st0">
	<g class="st1">
		<path d="M114.49,47.79c-0.36,0.36-0.85,0.59-1.4,0.59h-5.37L87.21,58.64l20.52,10.26h47.92l20.53-10.26l-20.51-10.26h-5.37
			c-0.46,0-0.88-0.16-1.21-0.41c-0.46-0.36,2.56-3.49,2.56-3.49h4.48c0.3,0,0.6,0.07,0.88,0.21l24.42,12.22
			c0.66,0.33,1.08,1.01,1.08,1.75c0,0.74-0.42,1.42-1.08,1.75l-24.43,12.22c-0.27,0.14-0.57,0.21-0.88,0.21h-48.83
			c-0.3,0-0.6-0.07-0.88-0.21L81.97,60.39c-0.66-0.33-1.08-1.01-1.08-1.75c0-0.74,0.42-1.42,1.08-1.75l24.42-12.22
			c0.27-0.14,0.57-0.21,0.88-0.21h4.56"/>
		<path d="M111.82,44.47c0,0,3.01,2.97,2.67,3.32"/>
	</g>
	<g class="st1">
		<path d="M180.55,146.12H82.81c-0.48,0-0.94-0.18-1.29-0.49l-27.65-24.44c-0.64-0.57-0.84-1.49-0.49-2.28l27.68-61.08
			c0.22-0.48,0.63-0.86,1.13-1.04c0.5-0.18,1.05-0.14,1.53,0.09l24.02,12.01h47.92l24.02-12.01c0.48-0.24,1.03-0.27,1.53-0.09
			c0.5,0.18,0.91,0.55,1.13,1.04L210,118.92c0.36,0.78,0.16,1.7-0.48,2.27l-27.67,24.44C181.48,145.94,181.02,146.12,180.55,146.12z
			 M83.55,142.21h96.25l26.03-23L179.6,61.3l-22.62,11.31c-0.27,0.14-0.57,0.21-0.88,0.21h-48.83c-0.3,0-0.6-0.07-0.88-0.21
			L83.78,61.3l-26.25,57.92L83.55,142.21z"/>
	</g>
	<g class="st1">
		<line class="st6" x1="82.81" y1="144.17" x2="107.27" y2="70.86"/>
		<path d="M82.81,146.12c-0.2,0-0.41-0.03-0.62-0.1c-1.02-0.34-1.58-1.45-1.24-2.47l24.46-73.3c0.34-1.02,1.45-1.58,2.47-1.24
			c1.02,0.34,1.58,1.45,1.24,2.47l-24.46,73.3C84.39,145.6,83.63,146.12,82.81,146.12z"/>
	</g>
	<g class="st1">
		<line class="st6" x1="156.11" y1="70.86" x2="180.55" y2="144.17"/>
		<path d="M180.55,146.12c-0.82,0-1.58-0.52-1.86-1.34l-24.43-73.3c-0.34-1.02,0.21-2.13,1.23-2.47c1.03-0.34,2.13,0.21,2.47,1.24
			l24.44,73.3c0.34,1.02-0.21,2.13-1.24,2.47C180.96,146.09,180.75,146.12,180.55,146.12z"/>
	</g>
	<g class="st1">
		<path d="M114.36,123.42h-5.62l8.82-23.52H104.8v-4.82h18.38v4.82L114.36,123.42z"/>
		<path d="M125.87,111.89v-16.8h17.16v4.82h-11.82v5.91c0.77-0.49,2.47-0.94,4.01-0.94c5.71,0,8.91,3.81,8.91,9.6v1.3
			c0,5.02-3.77,8.06-9.06,8.06c-6.15,0-9.15-3.32-9.55-8.46v-0.04h5.3v0.04c0.16,2.15,1.7,3.64,4.01,3.64
			c2.67,0,3.97-1.54,3.97-3.68v-1.54c0-2.47-1.42-4.08-3.97-4.08c-1.78,0-3.03,0.76-3.61,2.19L125.87,111.89L125.87,111.89z"/>
		<path d="M148.92,117.06l3.12-3.4h3.03l-3.54,3.84l4.05,5.93h-2.94l-2.8-4.09l-0.92,1.02v3.07h-2.49v-13.25h2.49V117.06z"/>
		<path d="M158.44,123.48c0.19,0.86,0.79,1.37,1.8,1.37c1.19,0,1.85-0.76,1.85-1.91v-1.14c-0.43,0.66-1.42,1.11-2.29,1.11
			c-1.99,0-3.91-1.36-3.91-4.24v-1.05c0-2.87,1.93-4.24,3.91-4.24c0.87,0,1.86,0.46,2.29,1.11v-0.85h2.5v8.95
			c0,2.71-1.55,4.49-4.35,4.49c-2.48,0-3.99-1.4-4.3-3.62L158.44,123.48L158.44,123.48z M158.39,118.57c0,1.33,0.9,1.89,1.86,1.89
			c0.93,0,1.85-0.57,1.85-1.89v-0.85c0-1.32-0.91-1.89-1.85-1.89c-0.95,0-1.86,0.57-1.86,1.89V118.57z"/>
	</g>
	<g class="st1">
		<path d="M136.19,58.61h-9.01c-0.54,0-0.98-0.44-0.98-0.98V46.69c0-0.54,0.44-0.98,0.98-0.98h9.01c0.54,0,0.98,0.44,0.98,0.98
			v10.94C137.16,58.17,136.73,58.61,136.19,58.61z M128.16,56.65h7.05v-8.98h-7.05V56.65z"/>
	</g>
	<g class="st1">
		<path d="M131.7-4.59c-0.54,0-0.98-0.44-0.98-0.98v-26.71c0-0.54,0.44-0.98,0.98-0.98s0.98,0.44,0.98,0.98v26.71
			C132.68-5.03,132.24-4.59,131.7-4.59z"/>
		<path d="M131.7-31.3c-3.79,0-6.87-3.09-6.87-6.88c0-3.78,3.08-6.86,6.87-6.86c3.78,0,6.86,3.08,6.86,6.86
			C138.56-34.39,135.48-31.3,131.7-31.3z M131.7-43.09c-2.71,0-4.91,2.2-4.91,4.91c0,2.72,2.2,4.93,4.91,4.93
			c2.71,0,4.91-2.21,4.91-4.93C136.61-40.89,134.4-43.09,131.7-43.09z"/>
	</g>
	<g class="st1">
		<path d="M23.61,147.42c-5.5,0-15.91-3.33-15.91-15.91V61.75c0-12.58,10.41-15.91,15.91-15.91c12.57,0,15.89,10.41,15.89,15.91
			v69.76C39.5,144.09,29.1,147.42,23.61,147.42z M23.61,49.75c-1.22,0.01-12,0.41-12,12v69.76c0,11.82,11.44,12,12,12
			c1.23-0.01,11.98-0.41,11.98-12V61.75C35.58,60.53,35.18,49.75,23.61,49.75z"/>
	</g>
	<g class="st1">
		<path d="M238.4,146.99c-5.5,0-15.91-3.33-15.91-15.91V61.32c0-12.58,10.4-15.91,15.91-15.91c12.58,0,15.9,10.41,15.9,15.91v69.76
			C254.3,143.66,243.9,146.99,238.4,146.99z M238.4,49.32c-1.22,0.01-12,0.41-12,12v69.76c0,11.82,11.43,12,11.99,12
			c1.24-0.01,12-0.41,12-12V61.32C250.38,60.1,249.98,49.32,238.4,49.32z"/>
	</g>
	<g class="st1">
		<path d="M182.24,233.91c-12.02,0-21.43-16.2-21.43-36.89c0-20.68,9.42-36.89,21.43-36.89c12.02,0,21.43,16.21,21.43,36.89
			C203.67,217.71,194.26,233.91,182.24,233.91z M182.24,164.04c-9.5,0-17.52,15.11-17.52,32.98c0,17.88,8.03,32.98,17.52,32.98
			c9.49,0,17.52-15.1,17.52-32.98C199.76,179.15,191.74,164.04,182.24,164.04z"/>
	</g>
	<ellipse class="st1" cx="182.24" cy="197.02" rx="5.78" ry="10.36"/>
	<g class="st1">
		<path d="M99.02,233.91c-12.02,0-21.42-16.2-21.42-36.89c0-20.68,9.41-36.89,21.42-36.89c12.02,0,21.44,16.21,21.44,36.89
			C120.47,217.71,111.04,233.91,99.02,233.91z M99.02,164.04c-9.49,0-17.52,15.11-17.52,32.98c0,17.88,8.02,32.98,17.52,32.98
			c9.5,0,17.53-15.1,17.53-32.98C116.56,179.15,108.53,164.04,99.02,164.04z"/>
	</g>
	<ellipse class="st1" cx="99.04" cy="197.02" rx="5.78" ry="10.36"/>
	<g class="st1">
		<g>
			<path d="M182.24,233.91h-19.48c-12.02,0-21.44-16.2-21.44-36.89c0-20.68,9.42-36.89,21.44-36.89h19.48
				c1.08,0,1.95,0.88,1.95,1.95c0,1.08-0.88,1.95-1.95,1.95c-9.5,0-17.52,15.11-17.52,32.98c0,17.88,8.03,32.98,17.52,32.98
				c1.08,0,1.95,0.88,1.95,1.95C184.19,233.04,183.32,233.91,182.24,233.91z M162.76,164.04c-9.5,0-17.53,15.11-17.53,32.98
				c0,17.88,8.03,32.98,17.53,32.98h9.72c-6.99-6.01-11.68-18.38-11.68-32.98c0-14.6,4.69-26.96,11.68-32.98L162.76,164.04
				L162.76,164.04z"/>
		</g>
		<g>
			<polygon points="182.24,231.96 182.28,231.96 182.28,231.95 			"/>
			<path d="M182.28,233.91h-0.04c-1.08,0-1.95-0.87-1.95-1.95c0-0.97,0.71-1.78,1.64-1.92c1.24-0.25,2.31,0.73,2.31,1.92
				C184.24,233.03,183.36,233.91,182.28,233.91z"/>
		</g>
	</g>
	<g class="st1">
		<g>
			<path d="M99.02,233.91H79.55c-12.02,0-21.44-16.2-21.44-36.89c0-20.68,9.42-36.89,21.44-36.89h19.47c1.08,0,1.95,0.88,1.95,1.95
				c0,1.08-0.88,1.95-1.95,1.95c-9.49,0-17.52,15.11-17.52,32.98c0,17.88,8.02,32.98,17.52,32.98c1.08,0,1.95,0.88,1.95,1.95
				C100.98,233.04,100.11,233.91,99.02,233.91z M79.55,164.04c-9.5,0-17.53,15.11-17.53,32.98c0,17.88,8.03,32.98,17.53,32.98h9.72
				C82.29,224,77.6,211.63,77.6,197.02c0-14.6,4.69-26.96,11.67-32.98L79.55,164.04L79.55,164.04z"/>
		</g>
		<g>
			<polygon points="99.02,231.96 99.08,231.96 99.08,231.95 			"/>
			<path d="M99.08,233.91h-0.05c-1.08,0-1.95-0.87-1.95-1.95c0-0.99,0.73-1.8,1.69-1.93c1.25-0.23,2.27,0.75,2.27,1.93
				C101.03,233.03,100.15,233.91,99.08,233.91z"/>
		</g>
	</g>
	<g class="st1">
		<path d="M136.19,55.59c-0.23,0-0.45-0.08-0.63-0.23c-0.22-0.19-0.35-0.46-0.35-0.75V48c0-0.45,0.3-0.83,0.73-0.95
			c7.52-1.94,12.78-8.7,12.78-16.43c0-9.39-7.64-17.03-17.03-17.03s-17.03,7.64-17.03,17.03c0,7.72,5.25,14.47,12.77,16.42
			c0.43,0.11,0.73,0.5,0.73,0.95v6.61c0,0.29-0.13,0.57-0.35,0.75c-0.22,0.19-0.51,0.27-0.81,0.21c-12-2.24-20.72-12.73-20.72-24.94
			c0-14.01,11.4-25.42,25.41-25.42s25.41,11.4,25.41,25.42c0,12.22-8.72,22.71-20.74,24.94C136.31,55.58,136.25,55.59,136.19,55.59z
			 M137.16,48.74v4.66c10.49-2.5,17.99-11.89,17.99-22.77c0-12.94-10.52-23.46-23.46-23.46s-23.45,10.52-23.45,23.46
			c0,10.87,7.49,20.27,17.97,22.77v-4.66c-7.99-2.42-13.5-9.76-13.5-18.11c0-10.47,8.52-18.99,18.98-18.99s18.99,8.52,18.99,18.99
			C150.68,38.99,145.16,46.34,137.16,48.74z"/>
	</g>
</g>
<g class="st0">
	<g class="st1">
		<path d="M147,71.82V95.6h3.86v2.59H147v10.54h-2.79V98.18h-17.35V95.6l17.35-23.78H147z M144.2,95.6V76.35L130.12,95.6H144.2z"/>
		<path d="M159.52,88.69c1.69-1.95,4.48-3.01,7.16-3.01c4.92,0,10.45,2.74,10.45,10.65v2.28c0,7.9-5.53,10.65-10.45,10.65
			c-4.89,0-10.43-2.75-10.43-10.65v-0.43h2.79v0.42c0,4.9,3.21,7.95,7.63,7.95c4.44,0,7.65-3.05,7.65-7.95v-2.28
			c0-4.9-3.21-7.96-7.65-7.96c-2.95,0-5.42,1.38-6.69,3.74h-3.26v-20.3h18.98v2.69h-16.19L159.52,88.69L159.52,88.69z"/>
		<path d="M190.9,71.55c4.53,0,8.22,3.69,8.22,8.22c0,4.53-3.69,8.22-8.22,8.22s-8.22-3.69-8.22-8.22
			C182.68,75.24,186.37,71.55,190.9,71.55z M190.9,85.68c3.26,0,5.85-2.63,5.85-5.91s-2.59-5.91-5.85-5.91
			c-3.26,0-5.86,2.63-5.86,5.91S187.64,85.68,190.9,85.68z"/>
	</g>
	<path class="st1" d="M215.93,138.53H42.43c-0.79,0-1.5-0.47-1.81-1.21c-0.3-0.73-0.14-1.57,0.42-2.13L163.73,12.52
		c0.76-0.76,2-0.76,2.76,0c0.76,0.76,0.76,2,0,2.76L47.15,134.62h168.78c1.08,0,1.95,0.88,1.95,1.95
		C217.88,137.66,217.01,138.53,215.93,138.53z"/>
	<path class="st1" d="M74.96,137.55c-0.54,0-0.98-0.43-0.98-0.98c0-8.42-3.28-16.36-9.24-22.32c-0.38-0.38-0.38-1,0-1.38
		c0.38-0.38,1-0.38,1.38,0c6.33,6.34,9.82,14.75,9.82,23.7C75.94,137.12,75.5,137.55,74.96,137.55z"/>
	<g class="st1">
		<path d="M132.76,4.68c-0.54,0-0.98-0.44-0.98-0.98v-26.71c0-0.54,0.44-0.98,0.98-0.98c0.54,0,0.98,0.44,0.98,0.98V3.7
			C133.73,4.24,133.29,4.68,132.76,4.68z"/>
		<path d="M132.76-22.03c-3.79,0-6.88-3.08-6.88-6.87c0-3.78,3.08-6.86,6.88-6.86c3.78,0,6.86,3.08,6.86,6.86
			C139.61-25.12,136.54-22.03,132.76-22.03z M132.76-33.82c-2.71,0-4.92,2.2-4.92,4.91s2.2,4.92,4.92,4.92c2.7,0,4.9-2.2,4.9-4.92
			C137.66-31.62,135.46-33.82,132.76-33.82z"/>
	</g>
	<g class="st1">
		<path d="M17.19,143.59c-5.5,0-15.91-3.32-15.91-15.91V57.93c0-12.59,10.41-15.91,15.91-15.91c12.58,0,15.9,10.41,15.9,15.91v69.75
			C33.08,140.27,22.69,143.59,17.19,143.59z M17.19,45.93c-1.22,0.01-12,0.41-12,12v69.75c0,11.83,11.43,12,11.99,12
			c1.23-0.01,12-0.41,12-12V57.93C29.17,56.71,28.77,45.93,17.19,45.93z"/>
	</g>
	<g class="st1">
		<path d="M244.82,143.59c-5.5,0-15.9-3.32-15.9-15.91V57.93c0-12.59,10.4-15.91,15.9-15.91c12.58,0,15.9,10.41,15.9,15.91v69.75
			C260.72,140.27,250.32,143.59,244.82,143.59z M244.82,45.93c-1.22,0.01-11.99,0.41-11.99,12v69.75c0,11.83,11.43,12,11.98,12
			c1.23-0.01,11.99-0.41,11.99-12V57.93C256.8,56.71,256.4,45.93,244.82,45.93z"/>
	</g>
	<g class="st1">
		<path d="M184.1,224.64c-12.02,0-21.43-16.2-21.43-36.89c0-20.68,9.42-36.89,21.43-36.89c12.02,0,21.43,16.21,21.43,36.89
			C205.52,208.43,196.11,224.64,184.1,224.64z M184.1,154.76c-9.5,0-17.52,15.11-17.52,32.98c0,17.88,8.03,32.98,17.52,32.98
			s17.52-15.1,17.52-32.98C201.62,169.87,193.59,154.76,184.1,154.76z"/>
	</g>
	<ellipse class="st1" cx="184.1" cy="187.74" rx="5.78" ry="10.37"/>
	<g class="st1">
		<path d="M100.89,224.64c-12.02,0-21.42-16.2-21.42-36.89c0-20.68,9.41-36.89,21.42-36.89c12.02,0,21.44,16.21,21.44,36.89
			C122.32,208.43,112.91,224.64,100.89,224.64z M100.89,154.76c-9.49,0-17.52,15.11-17.52,32.98c0,17.88,8.02,32.98,17.52,32.98
			c9.5,0,17.53-15.1,17.53-32.98C118.41,169.87,110.39,154.76,100.89,154.76z"/>
	</g>
	<ellipse class="st1" cx="100.89" cy="187.74" rx="5.78" ry="10.37"/>
	<g class="st1">
		<g>
			<path d="M184.1,224.64h-19.48c-12.02,0-21.44-16.2-21.44-36.89c0-20.68,9.42-36.89,21.44-36.89h19.48c1.08,0,1.95,0.88,1.95,1.95
				c0,1.08-0.88,1.95-1.95,1.95c-9.5,0-17.52,15.11-17.52,32.98c0,17.88,8.03,32.98,17.52,32.98c1.08,0,1.95,0.88,1.95,1.95
				C186.05,223.76,185.17,224.64,184.1,224.64z M164.62,154.76c-9.5,0-17.53,15.11-17.53,32.98c0,17.88,8.03,32.98,17.53,32.98h9.72
				c-6.99-6.01-11.68-18.38-11.68-32.98c0-14.6,4.69-26.96,11.68-32.98L164.62,154.76L164.62,154.76z"/>
		</g>
		<g>
			<polygon points="184.1,222.68 184.14,222.68 184.14,222.68 			"/>
			<path d="M184.14,224.64h-0.04c-1.08,0-1.95-0.87-1.95-1.95c0-1.07,0.88-1.95,1.95-1.95s1.98,0.88,1.98,1.95
				C186.07,223.76,185.22,224.64,184.14,224.64z"/>
		</g>
	</g>
	<g class="st1">
		<g>
			<polygon points="100.89,222.68 100.93,222.68 100.93,222.68 			"/>
			<path d="M100.93,224.64h-0.05c-1.08,0-1.95-0.87-1.95-1.95c0-1.07,0.88-1.95,1.95-1.95s1.98,0.88,1.98,1.95
				C102.86,223.76,102.01,224.64,100.93,224.64z"/>
		</g>
		<g>
			<path d="M100.89,224.64H81.41c-12.02,0-21.44-16.2-21.44-36.89c0-20.68,9.42-36.89,21.44-36.89h19.47c1.08,0,1.95,0.88,1.95,1.95
				c0,1.08-0.88,1.95-1.95,1.95c-9.49,0-17.52,15.11-17.52,32.98c0,17.88,8.02,32.98,17.52,32.98c1.08,0,1.95,0.88,1.95,1.95
				C102.84,223.76,101.96,224.64,100.89,224.64z M81.41,154.76c-9.5,0-17.53,15.11-17.53,32.98c0,17.88,8.03,32.98,17.53,32.98h9.72
				c-6.99-6.01-11.67-18.38-11.67-32.98c0-14.6,4.69-26.96,11.67-32.98L81.41,154.76L81.41,154.76z"/>
		</g>
	</g>
</g>
<g class="st0">
	<path class="st1" d="M219.57,139.17H46.07c-1.08,0-1.95-0.88-1.95-1.95c0-1.08,0.88-1.95,1.95-1.95h168.78L95.5,15.92
		c-0.76-0.76-0.76-2,0-2.76c0.76-0.76,2-0.76,2.76,0l122.69,122.68c0.56,0.56,0.73,1.4,0.42,2.13
		C221.08,138.69,220.36,139.17,219.57,139.17z"/>
	<path class="st1" d="M187.03,138.19c-0.54,0-0.98-0.44-0.98-0.98c0-8.95,3.49-17.36,9.82-23.7c0.38-0.38,1-0.38,1.38,0
		c0.38,0.38,0.38,1,0,1.38c-5.96,5.96-9.24,13.89-9.24,22.32C188.01,137.76,187.58,138.19,187.03,138.19z"/>
	<g class="st1">
		<path d="M129.24,5.31c-0.54,0-0.98-0.44-0.98-0.98v-26.71c0-0.54,0.44-0.98,0.98-0.98c0.54,0,0.98,0.44,0.98,0.98V4.34
			C130.22,4.87,129.78,5.31,129.24,5.31z"/>
		<path d="M129.24-21.39c-3.78,0-6.85-3.08-6.85-6.88c0-3.78,3.07-6.86,6.85-6.86c3.79,0,6.87,3.08,6.87,6.86
			C136.11-24.48,133.03-21.39,129.24-21.39z M129.24-33.18c-2.7,0-4.9,2.2-4.9,4.91c0,2.71,2.2,4.92,4.9,4.92
			c2.71,0,4.92-2.2,4.92-4.92C134.16-30.98,131.95-33.18,129.24-33.18z"/>
	</g>
	<g class="st1">
		<path d="M244.81,144.23c-5.5,0-15.89-3.33-15.89-15.91V58.57c0-5.5,3.32-15.91,15.89-15.91c5.5,0,15.91,3.33,15.91,15.91v69.75
			C260.72,140.91,250.31,144.23,244.81,144.23z M244.81,46.57c-11.85,0-11.98,11.51-11.98,12v69.76c0,11.82,11.43,12,11.98,12
			c1.23-0.01,12-0.41,12-12V58.57C256.81,46.7,245.3,46.57,244.81,46.57z"/>
	</g>
	<g class="st1">
		<path d="M17.18,144.23c-5.5,0-15.9-3.33-15.9-15.91V58.57c0-5.5,3.32-15.91,15.9-15.91c5.5,0,15.9,3.33,15.9,15.91v69.75
			C33.08,140.91,22.68,144.23,17.18,144.23z M17.18,46.57c-11.86,0-11.99,11.51-11.99,12v69.76c0,11.57,10.73,11.99,11.99,12
			c1.25-0.01,11.99-0.43,11.99-12V58.57C29.17,46.7,17.67,46.57,17.18,46.57z"/>
	</g>
	<g class="st1">
		<path d="M177.09,224c-12.02,0-21.43-16.21-21.43-36.89c0-20.69,9.41-36.89,21.43-36.89s21.43,16.2,21.43,36.89
			C198.52,207.79,189.1,224,177.09,224z M177.09,154.13c-9.5,0-17.52,15.1-17.52,32.98c0,17.88,8.03,32.98,17.52,32.98
			c9.49,0,17.52-15.1,17.52-32.98C194.61,169.23,186.59,154.13,177.09,154.13z"/>
	</g>
	<ellipse class="st1" cx="177.09" cy="187.11" rx="5.78" ry="10.36"/>
	<g class="st1">
		<path d="M93.88,224c-12.02,0-21.43-16.21-21.43-36.89c0-20.69,9.41-36.89,21.43-36.89c12.02,0,21.43,16.2,21.43,36.89
			C115.31,207.79,105.9,224,93.88,224z M93.88,154.13c-9.5,0-17.52,15.1-17.52,32.98c0,17.88,8.03,32.98,17.52,32.98
			c9.5,0,17.52-15.1,17.52-32.98C111.4,169.23,103.38,154.13,93.88,154.13z"/>
	</g>
	<ellipse class="st1" cx="93.88" cy="187.11" rx="5.78" ry="10.36"/>
	<g class="st1">
		<path d="M83.66,72.59v23.77h3.86v2.6h-3.86v10.53h-2.79V98.96H63.52v-2.6l17.35-23.77H83.66z M80.87,96.36V77.12L66.78,96.36
			H80.87z"/>
		<path d="M96.18,89.46c1.69-1.95,4.48-3.01,7.17-3.01c4.91,0,10.44,2.74,10.44,10.65v2.28c0,7.9-5.53,10.65-10.44,10.65
			c-4.9,0-10.44-2.75-10.44-10.65v-0.42h2.79v0.42c0,4.9,3.21,7.95,7.64,7.95c4.43,0,7.64-3.05,7.64-7.95V97.1
			c0-4.9-3.21-7.96-7.64-7.96c-2.95,0-5.43,1.38-6.7,3.74h-3.26v-20.3h18.98v2.69H96.18L96.18,89.46L96.18,89.46z"/>
		<path d="M127.57,72.32c4.53,0,8.22,3.69,8.22,8.22c0,4.53-3.69,8.22-8.22,8.22c-4.53,0-8.22-3.69-8.22-8.22
			C119.35,76.01,123.04,72.32,127.57,72.32z M127.57,86.45c3.27,0,5.86-2.63,5.86-5.91s-2.59-5.91-5.86-5.91
			c-3.26,0-5.85,2.63-5.85,5.91S124.3,86.45,127.57,86.45z"/>
	</g>
	<g class="st1">
		<g>
			<path d="M177.09,224h-19.47c-12.02,0-21.44-16.21-21.44-36.89c0-20.69,9.41-36.89,21.44-36.89h19.47c1.07,0,1.95,0.87,1.95,1.95
				c0,1.07-0.88,1.95-1.95,1.95c-9.5,0-17.52,15.1-17.52,32.98c0,17.88,8.03,32.98,17.52,32.98c1.07,0,1.95,0.87,1.95,1.95
				C179.04,223.12,178.16,224,177.09,224z M157.61,154.13c-9.51,0-17.53,15.1-17.53,32.98c0,17.88,8.03,32.98,17.53,32.98h9.72
				c-6.99-6.02-11.67-18.38-11.67-32.98c0-14.6,4.69-26.97,11.67-32.98L157.61,154.13L157.61,154.13z"/>
		</g>
		<g>
			<polygon points="177.09,222.04 177.13,222.04 177.13,222.04 			"/>
			<path d="M177.13,224h-0.05c-1.08,0-1.95-0.88-1.95-1.95c0-1.08,0.87-1.95,1.95-1.95c1.07,0,1.98,0.87,1.98,1.95
				C179.06,223.12,178.21,224,177.13,224z"/>
		</g>
	</g>
	<g class="st1">
		<g>
			<polygon points="93.88,222.04 93.92,222.04 93.92,222.04 			"/>
			<path d="M93.92,224h-0.05c-1.08,0-1.95-0.88-1.95-1.95c0-1.08,0.88-1.95,1.95-1.95s1.98,0.87,1.98,1.95
				C95.85,223.12,95,224,93.92,224z"/>
		</g>
		<g>
			<path d="M93.88,224H74.4c-12.02,0-21.44-16.21-21.44-36.89c0-20.69,9.42-36.89,21.44-36.89h19.47c1.08,0,1.95,0.87,1.95,1.95
				c0,1.07-0.88,1.95-1.95,1.95c-9.5,0-17.52,15.1-17.52,32.98c0,17.88,8.03,32.98,17.52,32.98c1.08,0,1.95,0.87,1.95,1.95
				C95.83,223.12,94.96,224,93.88,224z M74.4,154.13c-9.5,0-17.53,15.1-17.53,32.98c0,17.88,8.03,32.98,17.53,32.98h9.72
				c-6.99-6.02-11.67-18.38-11.67-32.98c0-14.6,4.69-26.97,11.67-32.98L74.4,154.13L74.4,154.13z"/>
		</g>
	</g>
</g>
<g class="st0">
	<path class="st1" d="M131.89,212.28h-1.77c-16.68,0-30.25-13.57-30.25-30.24v-1.77c0-7.7,2.87-14.98,8.1-20.6V-0.38
		c0-12.7,10.33-23.04,23.02-23.04c12.7,0,23.03,10.34,23.03,23.04v160.06c5.23,5.61,8.09,12.9,8.09,20.6v1.77
		C162.12,198.72,148.56,212.28,131.89,212.28z M131-19.51c-10.54,0-19.11,8.58-19.11,19.13v160.84c0,0.51-0.2,1-0.56,1.37
		c-4.87,4.96-7.54,11.51-7.54,18.45v1.77c0,14.52,11.82,26.33,26.34,26.33h1.77c14.51,0,26.32-11.81,26.32-26.33v-1.77
		c0-6.94-2.68-13.5-7.53-18.45c-0.36-0.37-0.56-0.86-0.56-1.37V-0.38C150.12-10.93,141.54-19.51,131-19.51z"/>
	<path class="st1" d="M152.08,131.41h-40.53c-1.08,0-1.95-0.88-1.95-1.95c0-1.08,0.88-1.95,1.95-1.95h40.53
		c1.08,0,1.95,0.88,1.95,1.95C154.03,130.54,153.16,131.41,152.08,131.41z"/>
	<path class="st1" d="M150.36,150.85h-14.23c-0.54,0-0.98-0.44-0.98-0.98s0.44-0.98,0.98-0.98h14.23c0.54,0,0.98,0.44,0.98,0.98
		S150.9,150.85,150.36,150.85z"/>
	<path class="st1" d="M150.36,130.44h-22.35c-0.54,0-0.98-0.44-0.98-0.98c0-0.54,0.44-0.98,0.98-0.98h22.35
		c0.54,0,0.98,0.44,0.98,0.98C151.33,130,150.9,130.44,150.36,130.44z"/>
	<path class="st1" d="M150.36,110.04h-14.23c-0.54,0-0.98-0.44-0.98-0.98s0.44-0.98,0.98-0.98h14.23c0.54,0,0.98,0.44,0.98,0.98
		S150.9,110.04,150.36,110.04z"/>
	<path class="st1" d="M150.36,88.12h-22.68c-0.54,0-0.98-0.44-0.98-0.98s0.44-0.98,0.98-0.98h22.68c0.54,0,0.98,0.44,0.98,0.98
		S150.9,88.12,150.36,88.12z"/>
	<path class="st1" d="M150.36,65.44h-14.44c-0.54,0-0.98-0.44-0.98-0.98s0.44-0.98,0.98-0.98h14.44c0.54,0,0.98,0.44,0.98,0.98
		S150.9,65.44,150.36,65.44z"/>
	<path class="st1" d="M150.36,42.73h-22.68c-0.54,0-0.98-0.44-0.98-0.98s0.44-0.98,0.98-0.98h22.68c0.54,0,0.98,0.44,0.98,0.98
		S150.9,42.73,150.36,42.73z"/>
	<path class="st1" d="M152.08,22.34h-16.66c-0.54,0-0.98-0.44-0.98-0.98c0-0.54,0.44-0.98,0.98-0.98h16.66
		c0.54,0,0.98,0.44,0.98,0.98C153.05,21.9,152.61,22.34,152.08,22.34z"/>
	<path class="st1" d="M150.36,0.42h-22.68c-0.54,0-0.98-0.44-0.98-0.98s0.44-0.98,0.98-0.98h22.68c0.54,0,0.98,0.44,0.98,0.98
		S150.9,0.42,150.36,0.42z"/>
</g>
<g class="st0">
	<g class="st1">
		<path d="M68.11,43.44c-1.04,0-1.89-0.81-1.95-1.84c-0.06-0.99,0.62-1.85,1.58-2.04c0.47-0.33,4.58-3.93,4.58-28.89
			s-4.11-28.57-4.58-28.89c-0.2-0.04-0.38-0.11-0.55-0.2c-0.48-0.24-0.82-0.67-0.95-1.18c-0.06-0.21-0.09-0.43-0.07-0.66
			c0.06-1.03,0.91-1.84,1.95-1.84l0,0c0.06,0,0.15,0,0.23,0.02l0,0l0,0c0.03,0,0.05-0.02,0.08,0.01L222.4-3.59
			c0.15-0.02,7.89,0.2,7.89,14.27c0,14.12-7.79,14.28-8.11,14.28L68.43,43.42c0,0,0,0,0,0C68.31,43.43,68.19,43.44,68.11,43.44z
			 M72.73-17.62c1.9,4.32,3.49,12.62,3.49,28.29s-1.59,23.97-3.49,28.29l149.2-17.91c1.65-0.11,4.44-2.41,4.44-10.39
			s-2.79-10.27-4.27-10.37L72.73-17.62z"/>
	</g>
	<g class="st1">
		<path d="M166.72,30.14c-0.25,0-0.5-0.09-0.7-0.29c-0.38-0.38-0.38-1,0-1.38c0.06-0.06,5.88-6.07,5.88-17.8s-5.82-17.74-5.88-17.8
			c-0.38-0.38-0.38-1,0-1.38c0.38-0.38,1-0.38,1.38,0c0.26,0.26,6.45,6.6,6.45,19.18s-6.18,18.92-6.45,19.18
			C167.22,30.04,166.96,30.14,166.72,30.14z"/>
	</g>
	<g class="st1">
		<path d="M117.42,36.3c-0.25,0-0.5-0.09-0.69-0.29c-0.38-0.38-0.38-1,0-1.38c0.05-0.05,5.86-6.21,5.86-23.96
			c0-17.75-5.8-23.91-5.86-23.97c-0.38-0.39-0.37-1,0.01-1.38c0.39-0.38,1-0.38,1.38,0c0.26,0.26,6.43,6.66,6.43,25.34
			s-6.17,25.08-6.43,25.34C117.92,36.2,117.67,36.3,117.42,36.3z"/>
	</g>
	<g class="st1">
		<path d="M68.11,43.44c-0.5,0-1-0.19-1.38-0.57L35.91,12.06c-0.76-0.76-0.76-2,0-2.76l30.81-30.81c0.76-0.76,2-0.76,2.76,0
			c0.76,0.76,0.76,2,0,2.76L40.06,10.68l29.43,29.43c0.76,0.76,0.76,2,0,2.76C69.11,43.25,68.61,43.44,68.11,43.44z"/>
	</g>
	<path class="st1" d="M36.74,207.84c0,1.72-1.13,3.12-2.53,3.12l0,0c-1.38,0-2.51-1.4-2.51-3.12V-17.02c0-1.72,1.13-3.12,2.51-3.12
		l0,0c1.4,0,2.53,1.4,2.53,3.12V207.84z"/>
</g>
<g class="st0">
	<g class="st1">
		<g>
			<path d="M216.13,122.63H46.22c-6.57,0-11.92-5.35-11.92-11.93V11.91C34.3,5.34,39.65,0,46.22,0h169.9
				c6.57,0,11.92,5.34,11.92,11.91v98.79C228.05,117.28,222.7,122.63,216.13,122.63z M46.22,3.91c-4.42,0-8.01,3.59-8.01,8.01v98.79
				c0,4.42,3.59,8.02,8.01,8.02h169.9c4.42,0,8.01-3.6,8.01-8.02V11.91c0-4.41-3.6-8.01-8.01-8.01H46.22z"/>
		</g>
		<path d="M217.19,112.26H45.16c-0.54,0-0.98-0.44-0.98-0.98V11.35c0-0.54,0.44-0.98,0.98-0.98h172.03c0.54,0,0.98,0.44,0.98,0.98
			v99.93C218.17,111.82,217.73,112.26,217.19,112.26z M46.14,110.3h170.08V12.32H46.14L46.14,110.3L46.14,110.3z"/>
	</g>
	<g class="st1">
		<path d="M249.61,180.32H12.39c-6.29,0-10.66-1.5-11.98-4.13c-0.41-0.82-0.89-2.49,0.56-4.42l34.61-46.2
			c2.61-3.48,9.23-6.21,15.06-6.21h160.69c5.84,0,12.46,2.73,15.07,6.21l34.61,46.19c1.45,1.93,0.97,3.6,0.57,4.42
			C259.71,179.92,252.58,180.32,249.61,180.32z M50.65,123.27c-4.58,0-10.05,2.13-11.93,4.64L4.1,174.1
			c-0.15,0.2-0.19,0.33-0.19,0.36c0.18,0.47,2.62,1.95,8.48,1.95h237.21c5.85,0,8.29-1.47,8.48-1.99l0,0c-0.01,0-0.05-0.12-0.2-0.32
			l-34.61-46.19c-1.88-2.52-7.35-4.64-11.93-4.64L50.65,123.27L50.65,123.27z"/>
	</g>
	<g class="st1">
		<path d="M153.78,99.1h-45.22c-0.54,0-0.98-0.44-0.98-0.98c0-0.54,0.44-0.98,0.98-0.98h45.22c0.54,0,0.98,0.44,0.98,0.98
			C154.75,98.66,154.32,99.1,153.78,99.1z"/>
		<g>
			<path d="M130.78,92.26c-0.54,0-0.98-0.44-0.98-0.98V74.36c0-0.54,0.44-0.98,0.98-0.98c0.54,0,0.98,0.44,0.98,0.98v16.92
				C131.76,91.83,131.32,92.26,130.78,92.26z"/>
			<path d="M130.78,92.26c-0.25,0-0.5-0.09-0.69-0.29l-5.62-5.63c-0.38-0.38-0.38-1,0-1.38c0.38-0.38,1-0.38,1.38,0l4.94,4.94
				l4.95-4.94c0.38-0.38,1-0.38,1.38,0c0.38,0.38,0.38,1,0,1.38l-5.64,5.63C131.28,92.17,131.03,92.26,130.78,92.26z"/>
		</g>
	</g>
	<path class="st1" d="M238.18,159.63H25.04c-0.36,0-0.7-0.2-0.86-0.52c-0.17-0.32-0.15-0.71,0.06-1.01l19.44-28.54
		c0.18-0.27,0.48-0.43,0.81-0.43h174.34c0.32,0,0.63,0.16,0.81,0.43l19.37,28.54c0.2,0.3,0.23,0.69,0.05,1.01
		C238.87,159.43,238.54,159.63,238.18,159.63z M26.88,157.67h209.45l-18.04-26.58H44.99L26.88,157.67z"/>
	<g class="st1">
		<path d="M145.32,71.02c-0.55,0-1.09-0.23-1.48-0.68c-0.17-0.19-4.46-4.91-13.04-4.91c-8.59,0-12.87,4.72-13.05,4.92
			c-0.71,0.81-1.94,0.9-2.76,0.18c-0.81-0.71-0.9-1.93-0.19-2.74c0.22-0.25,5.54-6.27,16-6.27c10.45,0,15.77,6.01,16,6.27
			c0.71,0.81,0.62,2.05-0.2,2.76C146.23,70.86,145.77,71.02,145.32,71.02z"/>
		<path d="M151.37,63.75c-0.54,0-1.07-0.22-1.46-0.66c-0.16-0.18-6.52-6.95-19.11-6.95s-18.95,6.77-19.11,6.95
			c-0.72,0.8-1.95,0.88-2.76,0.16c-0.8-0.72-0.88-1.95-0.16-2.75c0.3-0.34,7.6-8.26,22.03-8.26c14.42,0,21.73,7.92,22.03,8.26
			c0.72,0.81,0.64,2.04-0.17,2.76C152.29,63.59,151.83,63.75,151.37,63.75z"/>
		<path d="M157.42,56.49c-0.53,0-1.06-0.22-1.45-0.64c-0.15-0.16-8.58-8.97-25.17-8.97s-25.03,8.81-25.18,8.98
			c-0.73,0.79-1.96,0.85-2.76,0.13c-0.79-0.73-0.86-1.95-0.13-2.75c0.38-0.42,9.67-10.26,28.07-10.26s27.68,9.84,28.07,10.26
			c0.73,0.8,0.66,2.03-0.14,2.76C158.36,56.33,157.89,56.49,157.42,56.49z"/>
		<path d="M163.47,49.23c-0.52,0-1.04-0.21-1.43-0.63c-0.14-0.14-10.66-11.01-31.24-11.01c-20.58,0-31.11,10.87-31.24,11.01
			c-0.73,0.78-1.97,0.83-2.76,0.1c-0.79-0.73-0.84-1.97-0.11-2.76c0.47-0.5,11.73-12.26,34.11-12.26c22.38,0,33.63,11.76,34.1,12.26
			c0.73,0.79,0.69,2.02-0.11,2.76C164.42,49.06,163.95,49.23,163.47,49.23z"/>
		<path d="M169.52,41.97c-0.52,0-1.03-0.2-1.42-0.61c-0.12-0.13-12.72-13.04-37.3-13.04S93.61,41.24,93.49,41.37
			c-0.74,0.78-1.98,0.81-2.76,0.07s-0.81-1.98-0.07-2.76c0.55-0.58,13.79-14.26,40.15-14.26s39.59,13.68,40.14,14.26
			c0.74,0.78,0.71,2.02-0.08,2.76C170.49,41.79,170,41.97,169.52,41.97z"/>
	</g>
	<g class="st1">
		<path d="M249.61,188.86H12.39c-3.16,0-8.83-0.41-11.29-3.14c-0.82-0.92-1.2-2.01-1.07-3.15l-0.01-7.83
			c-0.02-0.19-0.02-0.38,0-0.57v-0.11c0-1.67,2.43-2.53,3.49-1.24c0.36,0.44,0.52,1.02,0.42,1.58v0.07
			c0.25,0.51,2.71,1.94,8.47,1.94h237.21c5.61,0,8.08-1.36,8.44-1.92v-0.19c-0.07-0.53,0.08-1.06,0.42-1.47
			c1.05-1.29,3.43-0.47,3.49,1.16c0.04,0.31,0.04,0.63,0,0.93v7.87c0.13,0.9-0.23,1.99-1.05,2.91
			C258.47,188.45,252.78,188.86,249.61,188.86z M3.93,179.02v3.77c0.16,0.7,2.57,2.17,8.47,2.17h237.21c5.83,0,8.27-1.46,8.46-1.96
			l-0.01-3.98c-2.1,0.85-4.97,1.31-8.45,1.31H12.39C8.9,180.32,6.03,179.86,3.93,179.02z"/>
	</g>
</g>
<g>
	<g>
		<g>
			<path d="M216.13,122.63H46.22c-6.57,0-11.92-5.35-11.92-11.93V11.91C34.3,5.34,39.65,0,46.22,0h169.9
				c6.57,0,11.92,5.34,11.92,11.91v98.79C228.05,117.28,222.7,122.63,216.13,122.63z M46.22,3.91c-4.42,0-8.01,3.59-8.01,8.01v98.79
				c0,4.42,3.59,8.02,8.01,8.02h169.9c4.42,0,8.01-3.6,8.01-8.02V11.91c0-4.41-3.6-8.01-8.01-8.01H46.22z"/>
		</g>
		<path d="M217.19,112.26H45.16c-0.54,0-0.98-0.44-0.98-0.98V11.35c0-0.54,0.44-0.98,0.98-0.98h172.03c0.54,0,0.98,0.44,0.98,0.98
			v99.93C218.17,111.82,217.73,112.26,217.19,112.26z M46.14,110.3h170.08V12.32H46.14L46.14,110.3L46.14,110.3z"/>
	</g>
	<g>
		<path d="M249.61,180.32H12.39c-6.29,0-10.66-1.5-11.98-4.13c-0.41-0.82-0.89-2.49,0.56-4.42l34.61-46.2
			c2.61-3.48,9.23-6.21,15.06-6.21h160.69c5.84,0,12.46,2.73,15.07,6.21l34.61,46.19c1.45,1.93,0.97,3.6,0.57,4.42
			C259.71,179.92,252.58,180.32,249.61,180.32z M50.65,123.27c-4.58,0-10.05,2.13-11.93,4.64L4.1,174.1
			c-0.15,0.2-0.19,0.33-0.19,0.36c0.18,0.47,2.62,1.95,8.48,1.95h237.21c5.85,0,8.29-1.47,8.48-1.99l0,0c-0.01,0-0.05-0.12-0.2-0.32
			l-34.61-46.19c-1.88-2.52-7.35-4.64-11.93-4.64L50.65,123.27L50.65,123.27z"/>
	</g>
	<path d="M153.78,99.1h-45.22c-0.54,0-0.98-0.44-0.98-0.98c0-0.54,0.44-0.98,0.98-0.98h45.22c0.54,0,0.98,0.44,0.98,0.98
		C154.75,98.66,154.32,99.1,153.78,99.1z"/>
	<g>
		<path d="M130.8,73.38c0.54,0,0.98,0.44,0.98,0.98v16.92c0,0.54-0.44,0.98-0.98,0.98c-0.54,0-0.98-0.44-0.98-0.98V74.36
			C129.82,73.82,130.26,73.38,130.8,73.38z"/>
		<path d="M130.8,73.38c0.25,0,0.5,0.09,0.69,0.29l5.62,5.63c0.38,0.38,0.38,1,0,1.38c-0.38,0.38-1,0.38-1.38,0l-4.94-4.94
			l-4.95,4.94c-0.38,0.38-1,0.38-1.38,0c-0.38-0.38-0.38-1,0-1.38l5.64-5.63C130.3,73.48,130.55,73.38,130.8,73.38z"/>
	</g>
	<path d="M238.18,159.63H25.04c-0.36,0-0.7-0.2-0.86-0.52c-0.17-0.32-0.15-0.71,0.06-1.01l19.44-28.54
		c0.18-0.27,0.48-0.43,0.81-0.43h174.34c0.32,0,0.63,0.16,0.81,0.43l19.37,28.54c0.2,0.3,0.23,0.69,0.05,1.01
		C238.87,159.43,238.54,159.63,238.18,159.63z M26.88,157.67h209.45l-18.04-26.58H44.99L26.88,157.67z"/>
	<g>
		<path d="M145.32,71.02c-0.55,0-1.09-0.23-1.48-0.68c-0.17-0.19-4.46-4.91-13.04-4.91c-8.59,0-12.87,4.72-13.05,4.92
			c-0.71,0.81-1.94,0.9-2.76,0.18c-0.81-0.71-0.9-1.93-0.19-2.74c0.22-0.25,5.54-6.27,16-6.27c10.45,0,15.77,6.01,16,6.27
			c0.71,0.81,0.62,2.05-0.2,2.76C146.23,70.86,145.77,71.02,145.32,71.02z"/>
		<path d="M151.37,63.75c-0.54,0-1.07-0.22-1.46-0.66c-0.16-0.18-6.52-6.95-19.11-6.95s-18.95,6.77-19.11,6.95
			c-0.72,0.8-1.95,0.88-2.76,0.16c-0.8-0.72-0.88-1.95-0.16-2.75c0.3-0.34,7.6-8.26,22.03-8.26c14.42,0,21.73,7.92,22.03,8.26
			c0.72,0.81,0.64,2.04-0.17,2.76C152.29,63.59,151.83,63.75,151.37,63.75z"/>
		<path d="M157.42,56.49c-0.53,0-1.06-0.22-1.45-0.64c-0.15-0.16-8.58-8.97-25.17-8.97s-25.03,8.81-25.18,8.98
			c-0.73,0.79-1.96,0.85-2.76,0.13c-0.79-0.73-0.86-1.95-0.13-2.75c0.38-0.42,9.67-10.26,28.07-10.26s27.68,9.84,28.07,10.26
			c0.73,0.8,0.66,2.03-0.14,2.76C158.36,56.33,157.89,56.49,157.42,56.49z"/>
		<path d="M163.47,49.23c-0.52,0-1.04-0.21-1.43-0.63c-0.14-0.14-10.66-11.01-31.24-11.01c-20.58,0-31.11,10.87-31.24,11.01
			c-0.73,0.78-1.97,0.83-2.76,0.1c-0.79-0.73-0.84-1.97-0.11-2.76c0.47-0.5,11.73-12.26,34.11-12.26c22.38,0,33.63,11.76,34.1,12.26
			c0.73,0.79,0.69,2.02-0.11,2.76C164.42,49.06,163.95,49.23,163.47,49.23z"/>
		<path d="M169.52,41.97c-0.52,0-1.03-0.2-1.42-0.61c-0.12-0.13-12.72-13.04-37.3-13.04S93.61,41.24,93.49,41.37
			c-0.74,0.78-1.98,0.81-2.76,0.07s-0.81-1.98-0.07-2.76c0.55-0.58,13.79-14.26,40.15-14.26s39.59,13.68,40.14,14.26
			c0.74,0.78,0.71,2.02-0.08,2.76C170.49,41.79,170,41.97,169.52,41.97z"/>
	</g>
	<g>
		<path d="M249.61,188.86H12.39c-3.16,0-8.83-0.41-11.29-3.14c-0.82-0.92-1.2-2.01-1.07-3.15l-0.01-7.83
			c-0.02-0.19-0.02-0.38,0-0.57v-0.11c0-1.67,2.43-2.53,3.49-1.24c0.36,0.44,0.52,1.02,0.42,1.58v0.07
			c0.25,0.51,2.71,1.94,8.47,1.94h237.21c5.61,0,8.08-1.36,8.44-1.92v-0.19c-0.07-0.53,0.08-1.06,0.42-1.47
			c1.05-1.29,3.43-0.47,3.49,1.16c0.04,0.31,0.04,0.63,0,0.93v7.87c0.13,0.9-0.23,1.99-1.05,2.91
			C258.47,188.45,252.78,188.86,249.61,188.86z M3.93,179.02v3.77c0.16,0.7,2.57,2.17,8.47,2.17h237.21c5.83,0,8.27-1.46,8.46-1.96
			l-0.01-3.98c-2.1,0.85-4.97,1.31-8.45,1.31H12.39C8.9,180.32,6.03,179.86,3.93,179.02z"/>
	</g>
</g>
</svg>
