<?xml version="1.0" encoding="utf-8"?>
<!-- Generator: Adobe Illustrator 23.0.1, SVG Export Plug-In . SVG Version: 6.00 Build 0)  -->
<svg version="1.1" id="Layer_1" xmlns="http://www.w3.org/2000/svg" xmlns:xlink="http://www.w3.org/1999/xlink" x="0px" y="0px"
	 viewBox="0 0 200 200.07" style="enable-background:new 0 0 200 200.07;" xml:space="preserve">
<style type="text/css">
	.st0{fill:#EE4036;}
</style>
<g transform="translate(0,-952.36218)">
	<path class="st0" d="M176.24,952.42c-0.38,0.1-0.73,0.3-1.02,0.58l-20.93,18.61c-0.51,0.44-0.8,1.07-0.8,1.74v22.24l-4.36,4.36
		c-15.84-15.02-37.22-24.27-60.76-24.27c-48.78,0-88.38,39.6-88.38,88.38c0,48.78,39.6,88.38,88.38,88.38s88.38-39.6,88.38-88.38
		c0-23.57-9.29-44.91-24.35-60.76l4.36-4.36h22.31c0.67,0,1.3-0.29,1.74-0.8l18.61-20.93c0.84-0.97,0.74-2.44-0.23-3.28
		c-0.42-0.37-0.96-0.57-1.51-0.57h-18.61v-18.61c0.03-1.28-0.98-2.35-2.27-2.38C176.62,952.36,176.43,952.38,176.24,952.42z
		 M174.43,959.9v15.77c0,1.28,1.04,2.33,2.33,2.33h15.7l-14.46,16.28h-19.84v-19.91L174.43,959.9z M88.38,980.33
		c22.26,0,42.5,8.74,57.49,22.89l-19.77,19.77c-9.94-9.14-23.17-14.75-37.72-14.75c-30.8,0-55.82,25.02-55.82,55.82
		c0,30.8,25.02,55.82,55.82,55.82s55.82-25.02,55.82-55.82c0-14.57-5.6-27.85-14.75-37.79l19.7-19.7
		c14.22,15,22.97,35.17,22.97,57.49c0,46.27-37.46,83.73-83.73,83.73s-83.73-37.46-83.73-83.73
		C4.65,1017.78,42.11,980.33,88.38,980.33z M88.38,1012.89c13.26,0,25.37,5.05,34.45,13.3l-18.17,18.17
		c-4.42-3.65-10.11-5.89-16.28-5.89c-14.1,0-25.58,11.48-25.58,25.58c0,14.1,11.48,25.58,25.58,25.58
		c14.1,0,25.58-11.48,25.58-25.58c0-6.23-2.25-11.91-5.96-16.35l18.17-18.17c8.32,9.1,13.37,21.21,13.37,34.52
		c0,28.29-22.88,51.17-51.17,51.17s-51.17-22.88-51.17-51.17C37.21,1035.77,60.09,1012.89,88.38,1012.89z M88.38,1043.12
		c4.94,0,9.44,1.73,13.01,4.58l-14.68,14.68c-0.9,0.93-0.87,2.41,0.06,3.31c0.92,0.89,2.39,0.87,3.29-0.04l14.68-14.68
		c2.87,3.58,4.58,8.12,4.58,13.08c0,11.59-9.34,20.93-20.93,20.93c-11.59,0-20.93-9.34-20.93-20.93
		C67.45,1052.46,76.79,1043.12,88.38,1043.12z"/>
</g>
</svg>
