<?xml version="1.0" encoding="utf-8"?>
<!-- Generator: Adobe Illustrator 23.0.1, SVG Export Plug-In . SVG Version: 6.00 Build 0)  -->
<svg version="1.1" id="Layer_1" xmlns="http://www.w3.org/2000/svg" xmlns:xlink="http://www.w3.org/1999/xlink" x="0px" y="0px"
	 viewBox="0 0 186.23 170" style="enable-background:new 0 0 186.23 170;" xml:space="preserve">
<style type="text/css">
	.st0{fill:#D7E0E5;}
	.st1{font-family:'Roboto-Regular';}
	.st2{font-size:22px;}
</style>
<g>
	<g>
		<path class="st0" d="M73.36,127.44c1.23,4.2,5.07,6.92,9.23,6.92c0.9,0,1.81-0.13,2.71-0.39c5.1-1.49,8.02-6.84,6.53-11.94
			l-11.8-40.27c-0.71-2.43-2.33-4.44-4.52-5.67c-0.59,0.39-1.21,0.76-1.85,1.12c-6.3,3.46-14.73,5.59-26.51,6.71
			c-0.24,0.02-0.48,0.03-0.72,0.03c-4,0-7.29-3-7.66-6.98c-0.19-2.05,0.43-4.04,1.74-5.63c1.31-1.58,3.16-2.56,5.21-2.75
			c7.17-0.66,13.18-1.85,17.37-3.43c0.33-0.13,0.64-0.25,0.95-0.38l2.92-14.34c1.16,1.51,2.22,3.11,2.97,4.62
			c0.36,0.71,0.64,1.4,0.85,2.04c0.33,1,0.49,1.89,0.48,2.59c0,0.22-0.01,0.43-0.04,0.64l0,0c-0.11,0.72-0.31,1.28-0.87,2.05
			c-0.83,1.12-2.76,2.73-6.71,4.22c-3.93,1.49-9.75,2.79-17.77,3.53c-3.39,0.31-5.87,3.32-5.56,6.7c0.3,3.19,2.98,5.59,6.13,5.59
			c0.19,0,0.38-0.01,0.57-0.03c11.69-1.11,19.9-3.22,25.91-6.52c2.99-1.66,5.45-3.67,7.26-6.06c1.81-2.38,2.9-5.15,3.25-7.86
			c0,0,0-0.01,0-0.01c0.1-0.75,0.14-1.5,0.14-2.24c0-1.2-0.13-2.35-0.34-3.47c-0.48-2.63-1.44-5.04-2.58-7.23
			c-2.45-4.67-5.79-8.5-8.52-11.33c-1.67-1.71-3.12-3.02-4.03-3.81c-0.84-1.02-2.02-1.78-3.42-2.06l-1.45-0.3
			c-3.34,2.92-7.69,4.67-12.35,4.67c-1.26,0-2.54-0.13-3.78-0.38c-4.93-1-9.18-3.87-11.96-8.07c-0.42-0.63-0.79-1.29-1.13-1.96
			c-0.09,0.01-0.17,0.01-0.26,0.02c-2.66,0.09-10.68,0.98-18.41,8c-4.16,3.77-8.06,9.27-10.84,16.87C1.7,58.26,0,67.96,0,80.41
			c0,1.97,0.04,4,0.13,6.11c0.14,3.31,2.87,5.9,6.15,5.9c0.09,0,0.17,0,0.26-0.01c3.4-0.14,6.04-3.01,5.89-6.41
			c-0.08-1.94-0.12-3.8-0.12-5.59c0-11.33,1.56-19.59,3.74-25.53c2.83-7.61,6.49-11.5,9.78-13.74c-3.11,12.61-7.8,32.94-7.8,40.94
			c0,0.36,0.03,0.72,0.09,1.06v77.34c0,5.26,4.26,9.51,9.51,9.51c5.25,0,9.52-4.26,9.52-9.51V99.48c2.44,3.49,7,5.04,11.19,3.5
			l16.12-5.93L73.36,127.44z"/>
		<rect x="54.06" y="138.46" class="st0" width="56.43" height="31.42"/>
		
			<ellipse transform="matrix(0.1996 -0.9799 0.9799 0.1996 23.7346 63.6942)" class="st0" cx="50.86" cy="17.32" rx="17.32" ry="17.31"/>
	</g>
	<text transform="matrix(1 0 0 1 31.9263 85.9778)" class="st1 st2">Name Surname</text>
</g>
</svg>
