<?xml version="1.0" encoding="utf-8"?>
<!-- Generator: Adobe Illustrator 23.0.1, SVG Export Plug-In . SVG Version: 6.00 Build 0)  -->
<svg version="1.1" id="Layer_1" xmlns="http://www.w3.org/2000/svg" xmlns:xlink="http://www.w3.org/1999/xlink" x="0px" y="0px"
	 viewBox="0 0 186.27 170" style="enable-background:new 0 0 186.27 170;" xml:space="preserve">
<style type="text/css">
	.st0{fill:#D7E0E5;}
	.st1{font-family:'Roboto-Regular';}
	.st2{font-size:22px;}
</style>
<g>
	<g>
		<path class="st0" d="M81.01,22.52c-3.14,0.42-5.35,3.3-4.93,6.44c0.58,4.39,0.83,7.94,0.83,10.68c0.02,3.12-0.36,5.19-0.68,6.23
			c-0.33-0.15-0.74-0.36-1.17-0.64c-1.63-1.01-3.61-2.76-5.04-4.22c-0.73-0.73-1.33-1.39-1.74-1.86c-0.21-0.23-0.36-0.42-0.47-0.54
			c-0.05-0.06-0.09-0.1-0.11-0.13c-0.02-0.02-0.02-0.02-0.02-0.02c-1.26-1.54-3.16-2.25-5-2.06c-0.24-0.03-0.48-0.05-0.73-0.05
			H34.25c-0.25,0-0.49,0.02-0.73,0.05c-1.84-0.18-3.74,0.53-5,2.06c0,0,0,0.01-0.05,0.06c-0.33,0.4-2.28,2.64-4.54,4.6
			c-1.12,0.97-2.33,1.87-3.3,2.41c-0.24,0.13-0.47,0.25-0.67,0.34c-0.32-1.04-0.72-3.09-0.68-6.22c0-2.74,0.25-6.28,0.83-10.68
			c0.42-3.14-1.79-6.02-4.93-6.44c-3.14-0.41-6.02,1.79-6.44,4.93c-0.63,4.77-0.93,8.77-0.93,12.19c0.03,5.13,0.58,8.96,2.29,12.28
			c0.86,1.64,2.13,3.17,3.8,4.21c1.63,1.04,3.53,1.49,5.2,1.49c0.02,0,0.05,0,0.07,0c3.08-0.04,5.42-1.14,7.47-2.32
			c0.72-0.43,1.41-0.88,2.07-1.36v107.2c0,4.9,3.97,8.86,8.86,8.86c4.89,0,8.86-3.97,8.86-8.86v-64.7h3.32v64.7
			c0,4.9,3.97,8.86,8.86,8.86c4.89,0,8.86-3.97,8.86-8.86V53.93c0.66,0.47,1.34,0.94,2.07,1.36c2.06,1.18,4.39,2.28,7.47,2.32
			c0.02,0,0.05,0,0.07,0c1.66,0,3.57-0.45,5.2-1.49c2.52-1.59,4.03-4.13,4.87-6.81c0.86-2.72,1.21-5.83,1.21-9.68
			c0-3.41-0.3-7.41-0.93-12.18C87.03,24.31,84.15,22.1,81.01,22.52z"/>
		<circle class="st0" cx="48.1" cy="16.13" r="16.13"/>
		<path class="st0" d="M6.72,20.66c0.2-0.13,0.31-0.17,0.3-0.18c0.36-0.17,0.51-0.6,0.34-0.95c-0.17-0.36-0.59-0.51-0.95-0.34l0,0
			c-0.05,0.04-2.84,1.29-2.89,4.38c0,0.84,0.23,1.78,0.76,2.8c0.13,0.25,0.38,0.38,0.64,0.38c0.11,0,0.23-0.03,0.33-0.08
			c0.35-0.18,0.49-0.62,0.3-0.97c-0.45-0.85-0.6-1.55-0.6-2.14c0-1.04,0.49-1.78,1.03-2.32C6.24,20.99,6.52,20.79,6.72,20.66z"/>
		<path class="st0" d="M2.3,27.83c0.34-0.2,0.46-0.64,0.27-0.98c-0.84-1.46-1.13-2.68-1.13-3.72c0-1.65,0.76-2.88,1.55-3.74
			c0.39-0.43,0.79-0.75,1.09-0.96c0.3-0.21,0.47-0.3,0.47-0.3c0.35-0.19,0.48-0.62,0.29-0.97c-0.19-0.35-0.62-0.48-0.97-0.29h0
			C3.81,16.9,0.04,18.87,0,23.13c0,1.31,0.38,2.8,1.32,4.43c0.13,0.23,0.37,0.36,0.62,0.36C2.06,27.92,2.19,27.89,2.3,27.83z"/>
		<path class="st0" d="M18.14,20.42c-0.04,0.39,0.25,0.74,0.65,0.78c1.75,0.18,2.55,0.85,3.02,1.58c0.47,0.73,0.57,1.62,0.56,2.12
			c0,0.26-0.02,0.38-0.02,0.38c-0.05,0.39,0.22,0.75,0.61,0.81c0.03,0,0.07,0.01,0.1,0.01c0.35,0,0.66-0.26,0.71-0.62
			c0-0.03,0.03-0.24,0.03-0.58c0-0.66-0.1-1.8-0.79-2.89c-0.68-1.1-2-2.05-4.1-2.24C18.53,19.74,18.18,20.03,18.14,20.42z"/>
		<path class="st0" d="M19.47,18.07c3.05,0.19,4.49,1.4,5.31,2.71c0.81,1.32,0.93,2.83,0.92,3.44c0,0.19-0.01,0.27-0.01,0.27
			c-0.03,0.39,0.26,0.74,0.66,0.77c0.02,0,0.04,0,0.06,0c0.37,0,0.68-0.28,0.71-0.66v0c0-0.02,0.01-0.16,0.01-0.39
			c0-0.76-0.11-2.5-1.13-4.18c-1.02-1.69-3.03-3.23-6.46-3.4c-0.4-0.02-0.73,0.28-0.76,0.68C18.77,17.71,19.07,18.05,19.47,18.07z"
			/>
		<path class="st0" d="M87.85,20.49c0,0,0.1,0.05,0.3,0.18c0.62,0.4,1.78,1.36,1.76,2.9c0,0.58-0.16,1.29-0.6,2.14
			c-0.18,0.35-0.05,0.78,0.3,0.97c0.11,0.06,0.22,0.08,0.33,0.08c0.26,0,0.51-0.14,0.64-0.38c0.53-1.02,0.76-1.96,0.76-2.8
			c-0.05-3.09-2.84-4.34-2.89-4.38c-0.36-0.17-0.78-0.01-0.95,0.34C87.33,19.89,87.49,20.32,87.85,20.49z"/>
		<path class="st0" d="M90.33,18.12L90.33,18.12c0,0,0.17,0.09,0.47,0.3c0.9,0.65,2.65,2.25,2.64,4.71c0,1.03-0.3,2.26-1.13,3.72
			c-0.2,0.34-0.08,0.78,0.27,0.98c0.11,0.06,0.24,0.09,0.36,0.09c0.25,0,0.49-0.13,0.62-0.36c0.94-1.63,1.32-3.12,1.32-4.43
			c-0.04-4.26-3.81-6.23-3.86-6.27c-0.35-0.19-0.78-0.06-0.97,0.29C89.85,17.5,89.98,17.94,90.33,18.12z"/>
		<path class="st0" d="M76.08,21.2c0.39-0.04,0.68-0.39,0.65-0.78c-0.04-0.39-0.39-0.68-0.78-0.65c-2.1,0.19-3.42,1.14-4.1,2.24
			c-0.69,1.09-0.79,2.23-0.79,2.89c0,0.34,0.03,0.55,0.03,0.58c0.05,0.36,0.36,0.62,0.71,0.62c0.03,0,0.07,0,0.1-0.01
			c0.39-0.05,0.67-0.42,0.61-0.81v0c0,0-0.02-0.13-0.02-0.38c0-0.5,0.09-1.39,0.56-2.12C73.53,22.05,74.33,21.38,76.08,21.2z"/>
		<path class="st0" d="M67.73,24.22c0,0.23,0.01,0.38,0.01,0.39c0.03,0.37,0.34,0.65,0.71,0.65c0.02,0,0.04,0,0.06,0
			c0.39-0.03,0.69-0.38,0.65-0.77c0,0-0.01-0.08-0.01-0.27c0-0.61,0.11-2.12,0.92-3.44c0.82-1.31,2.26-2.53,5.32-2.71
			c0.39-0.02,0.7-0.36,0.68-0.76c-0.02-0.39-0.36-0.7-0.76-0.68c-3.43,0.18-5.45,1.71-6.46,3.4C67.84,21.72,67.74,23.47,67.73,24.22
			z"/>
	</g>
	<text transform="matrix(1 0 0 1 31.968 83.8224)" class="st1 st2">Name Surname</text>
</g>
</svg>
