<?xml version="1.0" encoding="utf-8"?>
<!-- Generator: Adobe Illustrator 23.0.1, SVG Export Plug-In . SVG Version: 6.00 Build 0)  -->
<svg version="1.1" id="Layer_1" xmlns="http://www.w3.org/2000/svg" xmlns:xlink="http://www.w3.org/1999/xlink" x="0px" y="0px"
	 viewBox="0 0 175.73 170" style="enable-background:new 0 0 175.73 170;" xml:space="preserve">
<style type="text/css">
	.st0{fill:#D7E0E5;}
	.st1{font-family:'Roboto-Regular';}
	.st2{font-size:22px;}
</style>
<g>
	<g>
		<path class="st0" d="M6.52,52.35c2.99,2.09,6.35,3.57,9.37,4.63c0.9,0.31,1.75,0.58,2.57,0.81v104.13c0,4.46,3.61,8.07,8.07,8.07
			c4.46,0,8.07-3.61,8.07-8.07V103h3.03v58.93c0,4.46,3.61,8.07,8.07,8.07c4.46,0,8.07-3.61,8.07-8.07V64.04
			c0.39,0.79,0.78,1.7,1.16,2.77c1.84,5.1,3.39,13.47,3.38,26.53c0,3.6-0.12,7.55-0.37,11.9c-0.17,2.88,2.03,5.35,4.91,5.52
			c0.1,0.01,0.21,0.01,0.31,0.01c2.74,0,5.05-2.14,5.21-4.92c0.26-4.53,0.39-8.68,0.39-12.51c-0.03-19.7-3.17-30.61-7.46-37.16
			c-2.15-3.26-4.65-5.34-6.97-6.5c-2.19-1.1-4.12-1.37-5.3-1.39c-0.1-0.01-0.2-0.02-0.3-0.02H23.55c-0.49-0.07-1.73-0.33-3.07-0.76
			c-2.45-0.76-5.54-2.07-7.62-3.47c-1.04-0.69-1.81-1.4-2.16-1.86c-0.1-0.13-0.17-0.23-0.21-0.31c0.09-0.16,0.3-0.46,0.73-0.88
			c1.25-1.3,4.46-3.24,9.98-5.35c-0.69-1.79-1.08-3.74-1.08-5.77c0-1.84,0.32-3.6,0.89-5.25c-5.75,1.93-10.07,3.89-13.36,5.99
			c-2.26,1.46-4.06,3-5.43,4.86c-1.36,1.83-2.23,4.11-2.22,6.4c0,1.84,0.53,3.55,1.29,4.94C2.64,49.26,4.54,50.94,6.52,52.35z"/>
		<circle class="st0" cx="36.11" cy="29.86" r="14.69"/>
		<path class="st0" d="M58,20.91c0.56,0.11,1.2,0.03,1.93-0.25c0.73-0.28,1.15-0.71,1.27-1.29c0.15-0.73-0.19-1.21-1.03-1.44
			c-0.39-0.41-0.73-0.64-1.03-0.7c-0.43-0.09-0.78-0.06-1.06,0.09c-0.1,0.06-0.23,0.12-0.38,0.18c-0.85,0.36-1.31,0.75-1.4,1.18
			c-0.1,0.52,0.01,0.99,0.34,1.42C56.96,20.52,57.42,20.79,58,20.91z"/>
		<path class="st0" d="M59.7,15.19c0.8,0.16,1.39,0.16,1.77,0c0.38-0.16,0.67-0.48,0.86-0.94c0.37-0.87,0.75-1.61,1.13-2.21
			c2.49-0.33,4.15-0.6,4.96-0.8c0.81-0.2,1.59-0.68,2.33-1.44c0.74-0.76,1.24-1.84,1.52-3.22l0-0.01c0.24-1.26,0.27-2.21,0.12-2.85
			c-0.16-0.64-0.68-1.4-1.55-2.29c-0.53-0.55-1.31-0.91-2.36-1.08c-0.54-0.09-1.08-0.19-1.62-0.29C66.08-0.07,65.3,0,64.51,0.29
			l0.01,0c-0.92,0.28-1.71,0.68-2.39,1.21c-0.67,0.53-1.06,1.04-1.16,1.53c-0.17,0.82,0.18,1.31,1.03,1.49c1.31,0.27,2.11,0,2.4-0.8
			c0.1-0.23,0.35-0.44,0.76-0.61c0.41-0.18,1.11-0.17,2.12,0.04c0.34,0.07,0.68,0.2,1,0.38c0.32,0.18,0.53,0.35,0.62,0.51
			C69,4.18,69.06,4.54,69.1,5.11c0.03,0.57,0.02,1.01-0.04,1.32c-0.09,0.45-0.29,0.87-0.61,1.28c-0.32,0.41-0.65,0.65-1,0.73
			L65.41,8.8c-1.28,0.22-2.16,0.4-2.63,0.54c-0.47,0.14-1,0.37-1.6,0.69c-0.8,1.04-1.31,1.73-1.52,2.08
			c-0.21,0.35-0.36,0.74-0.45,1.18c-0.08,0.41-0.09,0.81-0.02,1.22C59.27,14.91,59.44,15.14,59.7,15.19z"/>
	</g>
	<text transform="matrix(1 0 0 1 21.4275 83.8226)" class="st1 st2">Name Surname</text>
</g>
</svg>
