<?xml version="1.0" encoding="utf-8"?>
<!-- Generator: Adobe Illustrator 23.0.1, SVG Export Plug-In . SVG Version: 6.00 Build 0)  -->
<svg version="1.1" id="Layer_1" xmlns="http://www.w3.org/2000/svg" xmlns:xlink="http://www.w3.org/1999/xlink" x="0px" y="0px"
	 viewBox="0 0 185.42 170" style="enable-background:new 0 0 185.42 170;" xml:space="preserve">
<style type="text/css">
	.st0{fill:#D7E0E5;}
	.st1{font-family:'Roboto-Regular';}
	.st2{font-size:22px;}
</style>
<g>
	<g>
		<path class="st0" d="M59.09,27.86c0.03-0.39,0.05-0.78,0.05-1.18c0-8.4-6.81-15.21-15.21-15.21c-8.4,0-15.21,6.81-15.21,15.21
			c0,8.4,6.81,15.21,15.21,15.21c3.36,0,6.46-1.09,8.98-2.93c1.42-2.41,2.95-5.33,4.55-8.87C57.85,29.23,58.41,28.48,59.09,27.86z"
			/>
		<path class="st0" d="M68.92,28.69c1.51,1.92,1.93,4.59,0.86,6.97c-4.53,9.99-9.21,17.21-14.32,22.07
			c-4.74,4.55-10.3,7.05-15.65,7.05h-0.1c-2.92,0-5.82-0.68-8.6-2.02c-2.09-1.01-4.03-2.33-5.93-4.03c-1.32-1.2-2.9-2.87-4.19-4.58
			v107.5c0,4.62,3.74,8.36,8.36,8.36c4.62,0,8.36-3.74,8.36-8.36v-61.02h3.13v61.02c0,4.62,3.74,8.36,8.36,8.36
			c4.62,0,8.36-3.74,8.36-8.36V69.94c0.45,0.1,0.93,0.16,1.44,0.16c0.02,0,0.04,0,0.05,0c1.54,0,3.03-0.59,4.07-1.34
			c1.85-1.36,2.74-2.91,3.6-4.66c1.23-2.64,2.21-6.02,3.21-10.8c0.98-4.77,1.93-10.9,2.84-18.81C73.08,31.84,71.4,29.41,68.92,28.69
			z"/>
		<path class="st0" d="M81.12,6.97c-3.38-2.27-6.25-0.42-6.25-0.42s0.58-3.36-2.83-5.59c-3.41-2.23-16.1-2.29-6.51,19.7
			C89.52,20.89,84.5,9.23,81.12,6.97z"/>
		<path class="st0" d="M11.24,11.4c-3.27,2.43-2.48,5.75-2.48,5.75s-2.98-1.67-6.21,0.8c-3.24,2.47-7.53,14.42,16.4,12.71
			C27.17,8.13,14.51,8.97,11.24,11.4z"/>
		<path class="st0" d="M21.36,52.25L21.36,52.25c0.17,0.26,1.76,2.77,4.73,5.46c1.49,1.34,3.34,2.72,5.61,3.82
			c2.26,1.09,4.98,1.89,8.01,1.89c0.03,0,0.07,0,0.1,0c4.82,0,10.02-2.17,14.72-6.68c4.78-4.55,9.38-11.41,14.01-21.65
			c1.23-2.72,0.02-5.92-2.7-7.15c-2.72-1.23-5.93-0.02-7.15,2.7c-4.25,9.43-8.3,15.14-11.6,18.25c-3.35,3.12-5.62,3.68-7.38,3.71
			c-1.13,0-2.21-0.29-3.31-0.81c-1.13-0.54-2.24-1.37-3.18-2.22l2.12-0.01c0.56,0.41,1.12,0.76,1.65,1.01
			c0.96,0.46,1.85,0.68,2.73,0.68c1.34-0.02,3.31-0.43,6.46-3.35c0.96-0.91,2.13-2.18,3.46-3.96H26.22c-0.07,0-0.14,0.01-0.21,0.01
			c-1.02-0.02-2.05,0.25-2.97,0.83c-1.7,1.07-2.59,2.94-2.51,4.82C20.58,50.52,20.84,51.43,21.36,52.25z"/>
	</g>
	<text transform="matrix(1 0 0 1 31.1098 85)" class="st1 st2">Name Surname</text>
</g>
</svg>
