<?xml version="1.0" encoding="utf-8"?>
<!-- Generator: Adobe Illustrator 23.0.1, SVG Export Plug-In . SVG Version: 6.00 Build 0)  -->
<svg version="1.1" id="Layer_1" xmlns="http://www.w3.org/2000/svg" xmlns:xlink="http://www.w3.org/1999/xlink" x="0px" y="0px"
	 viewBox="0 0 194 194.01" style="enable-background:new 0 0 194 194.01;" xml:space="preserve">
<style type="text/css">
	.st0{fill:#EE4036;}
</style>
<g>
	<path class="st0" d="M45.57,92.38c-6.85,11.1-9.95,18.17-10.07,18.46c-0.4,0.91-0.19,1.98,0.51,2.68l44.48,44.47
		c0.46,0.46,1.08,0.71,1.72,0.71c0.33,0,0.66-0.07,0.97-0.2c0.3-0.13,7.35-3.22,18.46-10.07c1.14-0.7,1.49-2.2,0.79-3.34
		c-0.7-1.14-2.2-1.49-3.34-0.79c-7.89,4.87-13.76,7.82-16.36,9.06l-42.08-42.07c1.24-2.6,4.19-8.47,9.06-16.36
		c0.7-1.14,0.35-2.64-0.79-3.34C47.76,90.88,46.27,91.24,45.57,92.38z"/>
	<path class="st0" d="M66.94,152.19c-0.72-0.74-1.83-0.94-2.77-0.5c-4.31,2.03-9.54,1.8-13.99-0.62c-1.17-0.64-2.65-0.2-3.29,0.97
		c-0.64,1.18-0.2,2.65,0.97,3.29c5.26,2.86,11.39,3.36,16.75,1.41l3.07,3.14c-13.3,14.8-35.83,13.34-44.31,12.15
		c1.99-4.57,1.56-9.92,1.11-15.52c-0.81-10.02-1.64-20.36,9.62-30.18l3.4,3.4c-1.3,5.51-0.96,10.79,0.97,15.28
		c0.02,0.05,1.72,4.76-0.29,8.15c-1.16,1.97-3.46,3.23-6.84,3.74c-1.33,0.2-2.24,1.44-2.03,2.76s1.45,2.24,2.76,2.03
		c4.91-0.75,8.38-2.8,10.31-6.11c3.17-5.41,0.74-12.01,0.59-12.39c-1.69-3.94-1.84-8.62-0.44-13.54c0.24-0.85,0-1.76-0.62-2.38
		l-5.95-5.94c-0.87-0.87-2.25-0.95-3.22-0.19C17.73,133,18.8,146.26,19.66,156.92c0.5,6.28,0.94,11.7-2.06,15.39
		c-0.53,0.65-0.68,1.53-0.41,2.32c0.27,0.79,0.94,1.39,1.75,1.57c0.59,0.14,6.63,1.47,14.8,1.47c11.93,0,28.42-2.84,39.13-16.4
		c0.76-0.96,0.68-2.33-0.17-3.2L66.94,152.19z"/>
	<path class="st0" d="M158.14,68.9c4.41-4.41,6.84-10.27,6.83-16.52c0-6.24-2.43-12.11-6.84-16.52c-4.41-4.41-10.27-6.84-16.51-6.84
		h0c-6.24,0-12.1,2.43-16.51,6.84c-4.41,4.41-6.85,10.28-6.85,16.52c0,6.24,2.43,12.1,6.84,16.52c4.56,4.56,10.54,6.83,16.52,6.83
		C147.61,75.73,153.59,73.45,158.14,68.9z M123.11,52.38c0-4.94,1.93-9.59,5.43-13.09c3.49-3.49,8.14-5.42,13.08-5.42c0,0,0,0,0,0
		c4.94,0,9.59,1.92,13.08,5.42c3.49,3.49,5.42,8.14,5.42,13.1c0,4.94-1.92,9.59-5.41,13.08c-7.22,7.22-18.96,7.22-26.18,0
		C125.03,61.97,123.11,57.32,123.11,52.38z"/>
	<path class="st0" d="M193.98,2.7c0.08-0.74-0.17-1.47-0.7-1.99s-1.25-0.78-1.99-0.7l-7.86,0.89c-4.83-0.73-50.37-6.04-98.88,42.48
		c-1.74,1.74-3.41,3.47-5.05,5.19l-29.54,0.01c-0.72,0-1.39,0.32-1.86,0.86L0.57,105.81c-0.81,0.96-0.75,2.39,0.14,3.28l6.72,6.72
		c0.77,0.77,1.97,0.93,2.92,0.39l27.35-15.59c1.16-0.66,1.57-2.15,0.91-3.31c-0.66-1.16-2.15-1.57-3.31-0.91L9.55,111.07l-3.84-3.84
		l45.38-53.8l29.46-0.01c0.67,0,1.31-0.27,1.76-0.76c1.83-1.93,3.71-3.89,5.67-5.85c25.28-25.28,49.76-35.09,65.84-38.88
		c17.42-4.1,29.03-2.21,29.15-2.19c0.22,0.04,0.46,0.05,0.68,0.02l5.16-0.58l-0.58,5.16c-0.03,0.23-0.02,0.46,0.02,0.68
		c0.02,0.12,1.91,11.73-2.19,29.15c-3.79,16.08-13.6,40.56-38.88,65.84c-1.96,1.96-3.92,3.85-5.86,5.68
		c-0.49,0.46-0.76,1.1-0.76,1.77l0,29.45l-53.8,45.38l-3.78-3.78l16.05-25.29c0.72-1.13,0.38-2.63-0.75-3.35
		c-1.13-0.72-2.63-0.38-3.35,0.75l-17.09,26.93c-0.61,0.96-0.47,2.21,0.33,3.02l6.72,6.72c0.47,0.47,1.09,0.71,1.72,0.71
		c0.56,0,1.11-0.19,1.57-0.57l56.37-47.55c0.55-0.46,0.86-1.14,0.86-1.86l0-29.53c1.72-1.64,3.46-3.32,5.19-5.06
		c48.52-48.52,43.21-94.05,42.48-98.89L193.98,2.7z"/>
	<path class="st0" d="M84.41,105.22l-20.02,20.02c-0.95,0.95-0.95,2.48,0,3.43c0.47,0.47,1.09,0.71,1.72,0.71s1.24-0.24,1.72-0.71
		l20.02-20.02c0.95-0.95,0.95-2.48,0-3.43C86.89,104.27,85.35,104.27,84.41,105.22z"/>
	<path class="st0" d="M74.4,95.21l-20.02,20.02c-0.95,0.95-0.95,2.48,0,3.43c0.47,0.47,1.09,0.71,1.72,0.71
		c0.62,0,1.24-0.24,1.72-0.71l20.02-20.02c0.95-0.95,0.95-2.48,0-3.43C76.88,94.26,75.35,94.26,74.4,95.21z"/>
	<path class="st0" d="M74.22,138.51c0.47,0.47,1.09,0.71,1.72,0.71c0.62,0,1.24-0.24,1.72-0.71l20.02-20.02
		c0.95-0.95,0.95-2.48,0-3.43c-0.95-0.95-2.48-0.95-3.43,0l-20.02,20.02C73.27,136.02,73.27,137.56,74.22,138.51z"/>
	<path class="st0" d="M73.79,61.44H51.54c-1.34,0-2.43,1.08-2.43,2.43s1.09,2.43,2.43,2.43h22.24c1.34,0,2.43-1.08,2.43-2.43
		S75.12,61.44,73.79,61.44z"/>
	<path class="st0" d="M127.71,120.22v22.24c0,1.34,1.09,2.43,2.43,2.43c1.34,0,2.43-1.08,2.43-2.43v-22.24
		c0-1.34-1.09-2.43-2.43-2.43C128.8,117.79,127.71,118.88,127.71,120.22z"/>
</g>
</svg>
