<?xml version="1.0" encoding="utf-8"?>
<!-- Generator: Adobe Illustrator 23.0.1, SVG Export Plug-In . SVG Version: 6.00 Build 0)  -->
<svg version="1.1" id="Layer_1" xmlns="http://www.w3.org/2000/svg" xmlns:xlink="http://www.w3.org/1999/xlink" x="0px" y="0px"
	 viewBox="0 0 199.84 22" style="enable-background:new 0 0 199.84 22;" xml:space="preserve">
<style type="text/css">
	.st0{fill:#4A62AC;}
	.st1{fill:#FFFFFF;}
	.st2{font-family:'Helvetica-Bold';}
	.st3{font-size:11.8462px;}
	.st4{fill:#F1F1F2;stroke:#808184;stroke-miterlimit:10;}
	.st5{fill:#DA4536;}
	.st6{fill:#404041;}
	.st7{fill:#5FA8DC;}
	.st8{enable-background:new    ;}
</style>
<g>
	<g>
		<g>
			<rect y="0.5" class="st0" width="60.31" height="21"/>
			<text transform="matrix(1 0 0 1 21.5372 15.3048)" class="st1 st2 st3">Share</text>
			<path class="st1" d="M17.5,15.25c0,0.75-0.27,1.4-0.81,1.94S15.51,18,14.75,18h-1.83v-5.76h1.94l0.27-2.1h-2.21V8.79
				c0-0.32,0.11-0.59,0.27-0.81c0.16-0.16,0.48-0.27,0.92-0.27h1.24V5.72c-0.59-0.05-1.18-0.11-1.72-0.11
				c-0.86,0-1.56,0.27-2.05,0.75c-0.54,0.48-0.75,1.24-0.75,2.15v1.56h-2.1v2.1h2.1v5.76H5.65c-0.7,0.05-1.35-0.22-1.88-0.75
				s-0.81-1.18-0.81-1.94V6.21c0-0.75,0.27-1.4,0.81-1.94s1.18-0.81,1.94-0.81h9.1c0.7,0,1.35,0.27,1.88,0.81s0.81,1.18,0.81,1.94
				V15.25L17.5,15.25z"/>
		</g>
	</g>
	<g>
		<path class="st4" d="M124.38,19.42c0,1.15-0.85,2.08-1.91,2.08H68.75c-1.05,0-1.91-0.93-1.91-2.08V2.58
			c0-1.15,0.85-2.08,1.91-2.08h53.72c1.05,0,1.91,0.93,1.91,2.08V19.42z"/>
		<g>
			<polygon class="st5" points="88.81,8.64 87.1,8.64 87.1,10.36 85.38,10.36 85.38,12.08 87.1,12.08 87.1,13.8 88.81,13.8 
				88.81,12.08 90.53,12.08 90.53,10.36 88.81,10.36 			"/>
			<path class="st5" d="M77.08,10.36v2.4h3.38c-0.29,1.49-1.55,2.52-3.38,2.52c-2,0-3.66-1.72-3.66-3.78s1.6-3.78,3.66-3.78
				c0.92,0,1.77,0.29,2.4,0.92l1.77-1.77c-1.09-0.97-2.52-1.6-4.18-1.6c-3.43,0-6.24,2.8-6.24,6.24s2.8,6.24,6.24,6.24
				c3.61,0,6.01-2.52,6.01-6.07c0-0.46-0.06-0.92-0.11-1.32H77.08z"/>
		</g>
		<g>
			<path class="st6" d="M94.74,12.82l1.39-0.21c0.06,0.27,0.18,0.47,0.36,0.61c0.18,0.14,0.43,0.21,0.76,0.21
				c0.36,0,0.63-0.07,0.81-0.2c0.12-0.09,0.18-0.21,0.18-0.37c0-0.1-0.03-0.19-0.1-0.26c-0.07-0.07-0.22-0.13-0.46-0.18
				c-1.11-0.25-1.82-0.47-2.12-0.67c-0.41-0.28-0.62-0.67-0.62-1.17c0-0.45,0.18-0.83,0.54-1.14c0.36-0.31,0.91-0.46,1.66-0.46
				c0.71,0,1.24,0.12,1.59,0.35c0.35,0.23,0.59,0.58,0.72,1.03l-1.3,0.24c-0.06-0.2-0.16-0.36-0.32-0.47
				c-0.16-0.11-0.38-0.16-0.67-0.16c-0.36,0-0.62,0.05-0.78,0.15c-0.1,0.07-0.16,0.17-0.16,0.28c0,0.1,0.05,0.18,0.14,0.25
				c0.12,0.09,0.55,0.22,1.29,0.39c0.74,0.17,1.25,0.37,1.54,0.61c0.29,0.25,0.43,0.59,0.43,1.03c0,0.48-0.2,0.89-0.6,1.23
				c-0.4,0.34-0.99,0.52-1.77,0.52c-0.71,0-1.27-0.14-1.69-0.43C95.14,13.71,94.87,13.32,94.74,12.82z"/>
			<path class="st6" d="M102.2,7.11v2.65c0.45-0.52,0.98-0.78,1.6-0.78c0.32,0,0.6,0.06,0.86,0.18c0.26,0.12,0.45,0.27,0.58,0.45
				c0.13,0.18,0.22,0.39,0.27,0.61c0.05,0.22,0.07,0.57,0.07,1.04v3.06h-1.38v-2.76c0-0.55-0.03-0.89-0.08-1.04
				c-0.05-0.15-0.14-0.26-0.28-0.35c-0.13-0.09-0.3-0.13-0.5-0.13c-0.23,0-0.43,0.06-0.61,0.17c-0.18,0.11-0.31,0.28-0.4,0.5
				c-0.08,0.22-0.13,0.56-0.13,1v2.61h-1.38v-7.2H102.2z"/>
			<path class="st6" d="M108,10.69l-1.25-0.23c0.14-0.5,0.38-0.88,0.73-1.12c0.34-0.24,0.85-0.36,1.53-0.36
				c0.62,0,1.07,0.07,1.38,0.22c0.3,0.15,0.51,0.33,0.64,0.56c0.12,0.22,0.18,0.64,0.18,1.24l-0.01,1.61c0,0.46,0.02,0.8,0.07,1.01
				c0.04,0.22,0.13,0.45,0.25,0.7h-1.37c-0.04-0.09-0.08-0.23-0.13-0.41c-0.02-0.08-0.04-0.14-0.05-0.16
				c-0.24,0.23-0.49,0.4-0.76,0.52c-0.27,0.11-0.56,0.17-0.86,0.17c-0.54,0-0.96-0.15-1.27-0.44c-0.31-0.29-0.46-0.66-0.46-1.11
				c0-0.29,0.07-0.56,0.21-0.79c0.14-0.23,0.34-0.41,0.59-0.53c0.25-0.12,0.62-0.23,1.1-0.32c0.65-0.12,1.09-0.23,1.34-0.34v-0.14
				c0-0.27-0.07-0.45-0.2-0.57c-0.13-0.11-0.38-0.17-0.74-0.17c-0.25,0-0.44,0.05-0.57,0.15S108.09,10.44,108,10.69z M109.85,11.81
				c-0.18,0.06-0.46,0.13-0.84,0.21c-0.38,0.08-0.63,0.16-0.75,0.24c-0.18,0.13-0.27,0.29-0.27,0.49c0,0.19,0.07,0.36,0.22,0.5
				c0.14,0.14,0.33,0.21,0.55,0.21c0.25,0,0.49-0.08,0.71-0.25c0.17-0.12,0.28-0.28,0.33-0.46c0.04-0.12,0.05-0.34,0.05-0.67V11.81z
				"/>
			<path class="st6" d="M113.89,14.31h-1.38V9.09h1.28v0.74c0.22-0.35,0.42-0.58,0.59-0.69c0.18-0.11,0.37-0.17,0.6-0.17
				c0.31,0,0.62,0.09,0.91,0.26l-0.43,1.2c-0.23-0.15-0.45-0.23-0.65-0.23c-0.19,0-0.36,0.05-0.49,0.16
				c-0.13,0.11-0.24,0.3-0.32,0.58c-0.08,0.28-0.12,0.86-0.12,1.75V14.31z"/>
			<path class="st6" d="M119.5,12.65l1.38,0.23c-0.18,0.5-0.46,0.89-0.84,1.15c-0.38,0.26-0.86,0.4-1.43,0.4
				c-0.91,0-1.58-0.3-2.01-0.89c-0.34-0.47-0.52-1.07-0.52-1.8c0-0.86,0.23-1.54,0.68-2.03c0.45-0.49,1.02-0.73,1.71-0.73
				c0.78,0,1.39,0.26,1.84,0.77c0.45,0.51,0.66,1.3,0.64,2.36h-3.46c0.01,0.41,0.12,0.73,0.33,0.96c0.21,0.23,0.48,0.34,0.8,0.34
				c0.22,0,0.4-0.06,0.55-0.18C119.32,13.1,119.43,12.91,119.5,12.65z M119.58,11.26c-0.01-0.4-0.11-0.7-0.31-0.91
				c-0.2-0.21-0.44-0.31-0.72-0.31c-0.3,0-0.55,0.11-0.75,0.33c-0.2,0.22-0.29,0.52-0.29,0.89H119.58z"/>
		</g>
	</g>
	<g>
		<path class="st7" d="M199.82,20.25c0,0.59-0.43,1-1.08,1h-67.01c-0.64,0-1.08-0.39-1.08-1V1.5c0-0.59,0.43-1,1.08-1h67.02
			c0.64,0,1.08,0.39,1.08,1v18.76H199.82z"/>
		<g>
			<path class="st1" d="M148.78,8.04c-0.43,0.2-0.76,0.3-1.3,0.3c0.43-0.3,0.76-0.59,0.97-1.09c-0.43,0.2-0.87,0.39-1.4,0.5
				c-0.43-0.39-0.97-0.59-1.51-0.59c-1.18,0-2.15,0.89-2.15,1.98c0,0.2,0,0.3,0.11,0.5c-1.73-0.2-3.35-1-4.42-2.18
				c-0.21,0.3-0.21,0.59-0.21,1c0,0.7,0.43,1.29,0.97,1.59c-0.43,0-0.64-0.1-0.97-0.3l0,0c0,1,0.76,1.69,1.61,1.89
				c-0.21,0-0.43,0.1-0.54,0.1s-0.33,0-0.43,0c0.33,0.8,1.08,1.39,1.94,1.39c-0.64,0.5-1.61,0.8-2.6,0.8c-0.21,0-0.33,0-0.54,0
				c0.97,0.5,2.05,0.89,3.24,0.89c3.88,0,6.05-2.98,6.05-5.56c0-0.1,0-0.2,0-0.3C148.02,8.84,148.45,8.45,148.78,8.04z"/>
		</g>
		<g class="st8">
			<path class="st1" d="M160.11,5.82v1.43h-3.06v7.9h-1.89v-7.9h-3.06V5.82H160.11z"/>
			<path class="st1" d="M159.23,8.53h1.39c0.13,0,0.24,0.02,0.33,0.08c0.09,0.06,0.15,0.13,0.18,0.21l1.03,3.53
				c0.05,0.2,0.1,0.38,0.14,0.57c0.04,0.19,0.08,0.37,0.1,0.54c0.05-0.19,0.1-0.36,0.16-0.54c0.06-0.19,0.13-0.37,0.19-0.57
				l1.2-3.55c0.03-0.08,0.09-0.16,0.16-0.21c0.08-0.06,0.18-0.08,0.3-0.08h0.77c0.13,0,0.23,0.02,0.32,0.08
				c0.09,0.06,0.14,0.13,0.18,0.21l1.16,3.55c0.06,0.2,0.11,0.39,0.18,0.58c0.06,0.19,0.1,0.37,0.15,0.56
				c0.04-0.19,0.08-0.37,0.11-0.56c0.04-0.19,0.09-0.37,0.15-0.58l1.06-3.53c0.04-0.08,0.09-0.16,0.18-0.21
				c0.09-0.06,0.19-0.08,0.3-0.08h1.32l-2.33,6.62h-1.39c-0.16,0-0.26-0.09-0.33-0.28l-1.29-3.82c-0.09-0.27-0.15-0.52-0.2-0.76
				c-0.05,0.25-0.13,0.52-0.21,0.78l-1.31,3.81c-0.05,0.19-0.18,0.28-0.38,0.28h-1.34L159.23,8.53z"/>
			<path class="st1" d="M174.16,8.42c0.45,0,0.87,0.07,1.26,0.2c0.38,0.14,0.72,0.32,0.98,0.58c0.28,0.25,0.49,0.57,0.64,0.94
				c0.15,0.37,0.24,0.8,0.24,1.27c0,0.24-0.03,0.41-0.09,0.49s-0.16,0.13-0.33,0.13h-4.46c0.03,0.34,0.09,0.64,0.2,0.88
				c0.1,0.24,0.24,0.45,0.4,0.61s0.37,0.28,0.6,0.36c0.23,0.08,0.49,0.12,0.77,0.12c0.28,0,0.52-0.03,0.73-0.09
				c0.2-0.06,0.38-0.13,0.53-0.2c0.15-0.07,0.29-0.14,0.4-0.2s0.23-0.09,0.33-0.09c0.15,0,0.25,0.05,0.33,0.15l0.5,0.58
				c-0.19,0.21-0.4,0.38-0.64,0.52c-0.24,0.14-0.49,0.25-0.74,0.34c-0.25,0.08-0.53,0.14-0.79,0.17c-0.26,0.03-0.53,0.05-0.78,0.05
				c-0.5,0-0.97-0.08-1.4-0.23c-0.43-0.15-0.81-0.38-1.12-0.67c-0.32-0.3-0.57-0.67-0.76-1.11c-0.18-0.44-0.28-0.95-0.28-1.53
				c0-0.45,0.08-0.88,0.24-1.27c0.16-0.39,0.39-0.74,0.68-1.04c0.3-0.29,0.66-0.53,1.08-0.7C173.14,8.51,173.63,8.42,174.16,8.42z
				 M174.19,9.57c-0.5,0-0.89,0.13-1.18,0.39c-0.29,0.27-0.47,0.64-0.54,1.11h3.26c0-0.21-0.03-0.41-0.1-0.58
				c-0.06-0.19-0.16-0.35-0.29-0.48c-0.13-0.14-0.29-0.24-0.48-0.32C174.67,9.61,174.46,9.57,174.19,9.57z"/>
			<path class="st1" d="M181.65,8.42c0.45,0,0.87,0.07,1.26,0.2c0.38,0.14,0.72,0.32,0.98,0.58c0.28,0.25,0.49,0.57,0.64,0.94
				c0.15,0.37,0.24,0.8,0.24,1.27c0,0.24-0.03,0.41-0.09,0.49c-0.06,0.08-0.16,0.13-0.33,0.13h-4.45c0.03,0.34,0.09,0.64,0.2,0.88
				c0.1,0.24,0.24,0.45,0.4,0.61s0.37,0.28,0.6,0.36c0.23,0.08,0.49,0.12,0.77,0.12s0.52-0.03,0.73-0.09
				c0.2-0.06,0.38-0.13,0.53-0.2c0.15-0.07,0.29-0.14,0.4-0.2s0.23-0.09,0.33-0.09c0.15,0,0.25,0.05,0.33,0.15l0.5,0.58
				c-0.19,0.21-0.4,0.38-0.64,0.52c-0.24,0.14-0.49,0.25-0.74,0.34c-0.25,0.08-0.53,0.14-0.79,0.17c-0.26,0.03-0.53,0.05-0.78,0.05
				c-0.5,0-0.97-0.08-1.4-0.23c-0.43-0.15-0.81-0.38-1.12-0.67c-0.32-0.3-0.57-0.67-0.76-1.11c-0.18-0.44-0.28-0.95-0.28-1.53
				c0-0.45,0.08-0.88,0.24-1.27c0.16-0.39,0.39-0.74,0.68-1.04c0.3-0.29,0.66-0.53,1.08-0.7C180.63,8.51,181.11,8.42,181.65,8.42z
				 M181.69,9.57c-0.5,0-0.89,0.13-1.18,0.39c-0.29,0.27-0.47,0.64-0.54,1.11h3.26c0-0.21-0.03-0.41-0.1-0.58
				c-0.06-0.19-0.16-0.35-0.29-0.48c-0.13-0.14-0.29-0.24-0.48-0.32C182.17,9.61,181.94,9.57,181.69,9.57z"/>
			<path class="st1" d="M188.39,15.25c-0.63,0-1.11-0.16-1.44-0.49c-0.34-0.32-0.5-0.78-0.5-1.34v-3.7h-0.74
				c-0.09,0-0.18-0.02-0.24-0.08s-0.1-0.14-0.1-0.25V8.75l1.16-0.17l0.37-1.81c0.03-0.08,0.06-0.15,0.14-0.2
				c0.06-0.05,0.15-0.07,0.25-0.07h0.89v2.09h1.93v1.14h-1.93v3.59c0,0.21,0.05,0.37,0.16,0.49c0.11,0.12,0.26,0.17,0.45,0.17
				c0.11,0,0.2-0.01,0.26-0.03c0.08-0.02,0.14-0.05,0.19-0.07c0.05-0.02,0.1-0.05,0.14-0.07c0.04-0.02,0.09-0.03,0.13-0.03
				c0.05,0,0.09,0.01,0.13,0.03c0.04,0.02,0.06,0.06,0.1,0.1l0.52,0.78c-0.25,0.2-0.54,0.34-0.87,0.44
				C189.06,15.23,188.75,15.25,188.39,15.25z"/>
		</g>
	</g>
</g>
</svg>
